<?xml version="1.0" encoding="utf-8"?>
<!-- Generator: Adobe Illustrator 16.0.0, SVG Export Plug-In . SVG Version: 6.00 Build 0)  -->
<!DOCTYPE svg PUBLIC "-//W3C//DTD SVG 1.1//EN" "http://www.w3.org/Graphics/SVG/1.1/DTD/svg11.dtd">
<svg version="1.1" id="Layer_1" xmlns="http://www.w3.org/2000/svg" xmlns:xlink="http://www.w3.org/1999/xlink" x="0px" y="0px"
	 width="100px" height="100px" viewBox="0 0 100 100" enable-background="new 0 0 100 100" xml:space="preserve">
<g>
	<circle fill="#666766" cx="22.415" cy="21.154" r="5.769"/>
	<circle fill="#666766" cx="37.799" cy="9.615" r="5.769"/>
	<circle fill="#666766" cx="53.184" cy="5.769" r="5.769"/>
	<circle fill="#666766" cx="68.568" cy="13.461" r="5.769"/>
	<path fill="#666766" d="M16.646,21.154c0,0,0,45.739,0,51.923S19.049,100,45.903,100c16.219,0,24.892-6.365,30.246-14.504
		c5.354-8.139,17.915-27.15,17.915-27.15c2.276-3.546,1.462-8.092-1.827-10.176c-3.3-2.039-7.804-0.846-10.111,2.711l-7.789,10.658
		V13.461H62.799v28.846c0,1.062-0.861,1.923-1.923,1.923s-1.924-0.862-1.924-1.923V5.769H47.415v36.539
		c0,1.062-0.862,1.923-1.924,1.923s-1.923-0.862-1.923-1.923V9.615H32.03v36.539c0,1.062-0.861,1.923-1.924,1.923
		c-1.061,0-1.923-0.862-1.923-1.923v-25H16.646z"/>
</g>
<g>
	<g>
		<path fill="#CCCCCC" d="M52,64.77h5.651l-6.781-7.912v6.782C50.87,64.317,51.435,64.77,52,64.77z"/>
		<path fill="#CCCCCC" d="M49.739,63.64v-6.782H38.437c-1.244,0-2.26,1.018-2.26,2.261v25.996c0,1.243,1.017,2.261,2.26,2.261
			h16.954c1.244,0,2.261-1.018,2.261-2.261V65.899H52C50.756,65.899,49.739,64.883,49.739,63.64z M43.749,82.062l-0.792,0.791
			l-4.521-4.521l4.521-4.52l0.792,0.791l-3.73,3.729L43.749,82.062z M46.348,82.854h-1.13l2.261-9.041h1.129L46.348,82.854z
			 M50.87,82.854l-0.791-0.791l3.729-3.73l-3.729-3.729l0.791-0.791l4.521,4.52L50.87,82.854z"/>
	</g>
</g>
</svg>
