<?xml version="1.0" encoding="utf-8"?>
<!-- Generator: Adobe Illustrator 16.0.0, SVG Export Plug-In . SVG Version: 6.00 Build 0)  -->
<!DOCTYPE svg PUBLIC "-//W3C//DTD SVG 1.1//EN" "http://www.w3.org/Graphics/SVG/1.1/DTD/svg11.dtd">
<svg version="1.1" id="Layer_1" xmlns="http://www.w3.org/2000/svg" xmlns:xlink="http://www.w3.org/1999/xlink" x="0px" y="0px"
	 width="400px" height="400px" viewBox="0 0 400 400" enable-background="new 0 0 400 400" xml:space="preserve">
<rect fill="#F1E4C4" width="400" height="400"/>
<g>
	<path fill="#FFFFFF" d="M133.282,102.968c2.433-2.857,3.904-6.56,3.904-10.604c0-9.044-7.332-16.373-16.373-16.373
		c-4.93,0-9.347,2.183-12.351,5.626c-1.798-7.088-8.22-12.329-15.869-12.329c-8.29,0-15.137,6.163-16.218,14.157
		c-2.859-2.433-6.56-3.904-10.606-3.904c-9.041,0-16.373,7.332-16.373,16.373c0,6.285,3.544,11.74,8.738,14.484
		c-1.33,2.368-2.094,5.097-2.094,8.009c0,9.045,7.332,16.373,16.373,16.373c4.108,0,7.86-1.514,10.734-4.014
		c2.303,6.255,8.312,10.717,15.368,10.717c7.56,0,13.919-5.125,15.804-12.087c2.909,2.646,6.776,4.264,11.022,4.264
		c9.041,0,16.373-7.328,16.373-16.373C141.716,111.127,138.31,105.761,133.282,102.968z"/>
	<path fill="#FFFFFF" d="M355.259,173.796c1.83-2.149,2.938-4.936,2.938-7.979c0-6.807-5.518-12.322-12.321-12.322
		c-3.71,0-7.033,1.643-9.294,4.234c-1.354-5.334-6.186-9.278-11.942-9.278c-6.238,0-11.391,4.638-12.205,10.654
		c-2.151-1.831-4.936-2.938-7.981-2.938c-6.804,0-12.321,5.518-12.321,12.321c0,4.729,2.667,8.835,6.576,10.9
		c-1.001,1.782-1.576,3.835-1.576,6.026c0,6.807,5.518,12.322,12.321,12.322c3.092,0,5.916-1.14,8.078-3.021
		c1.733,4.707,6.256,8.064,11.565,8.064c5.689,0,10.475-3.856,11.894-9.096c2.188,1.991,5.099,3.208,8.294,3.208
		c6.805,0,12.322-5.515,12.322-12.321C361.605,179.937,359.042,175.898,355.259,173.796z"/>
	<path fill="#FFFFFF" d="M156.895,333.258c1.83-2.149,2.938-4.936,2.938-7.979c0-6.807-5.518-12.322-12.321-12.322
		c-3.71,0-7.033,1.643-9.294,4.234c-1.354-5.334-6.186-9.278-11.942-9.278c-6.238,0-11.391,4.638-12.205,10.654
		c-2.151-1.831-4.936-2.938-7.981-2.938c-6.804,0-12.321,5.518-12.321,12.321c0,4.729,2.667,8.835,6.576,10.9
		c-1.001,1.782-1.576,3.835-1.576,6.026c0,6.807,5.518,12.322,12.321,12.322c3.092,0,5.916-1.14,8.078-3.021
		c1.733,4.707,6.256,8.064,11.565,8.064c5.689,0,10.475-3.856,11.894-9.096c2.188,1.991,5.099,3.208,8.294,3.208
		c6.805,0,12.322-5.515,12.322-12.321C163.241,339.398,160.678,335.36,156.895,333.258z"/>
	<g>
		<g>
			<path fill="#F6B344" d="M231.161,304.422c0,11.463-10.243,57.616-22.876,57.616c-12.638,0-22.881-46.152-22.881-57.616
				c0-11.466,10.243-20.76,22.881-20.76C220.918,283.662,231.161,292.957,231.161,304.422z"/>
			<path fill="#EC6346" d="M225.07,298.892c-0.001,8.413-7.514,42.278-16.785,42.278c-9.273,0-16.787-33.865-16.787-42.278
				c-0.001-8.41,7.513-15.229,16.787-15.229C217.556,283.662,225.069,290.481,225.07,298.892z"/>
			<path fill="#FFFFFF" d="M219.998,294.078c0,5.872-5.244,29.508-11.713,29.508c-6.473,0-11.718-23.636-11.718-29.508
				c-0.001-5.87,5.245-10.629,11.718-10.629C214.753,283.449,219.998,288.21,219.998,294.078z"/>
		</g>
		<path fill="#52A485" d="M160.456,200c-47.664,0-55.249,76.631-44.82,82.12c10.43,5.489,28.537-48.299,57.944-30.312
			C189.45,261.509,174.271,200,160.456,200z"/>
		<path fill="#52A485" d="M253.4,200c47.662,0,55.247,76.631,44.818,82.12c-10.428,5.489-28.538-48.299-57.944-30.312
			C224.41,261.509,239.583,200,253.4,200z"/>
		<path fill="#EC6346" d="M257.506,169.563c0,62.164-22.854,112.557-51.044,112.557c-28.186,0-51.037-50.393-51.037-112.557
			c0-62.162,41.16-112.554,51.037-112.555C216.345,57.009,257.506,107.401,257.506,169.563z"/>
		<polygon fill="#52A485" points="231.161,301.877 185.062,301.877 190.822,270.597 226.223,270.597 		"/>
		<g>
			<path fill="#413934" d="M228.291,128.412c0,12.719-10.312,23.025-23.024,23.025c-12.72,0-23.03-10.308-23.03-23.024
				c0-12.719,10.311-23.027,23.03-23.028C217.98,105.385,228.291,115.695,228.291,128.412z"/>
			<path fill="#FFFFFF" d="M205.267,154.319c-14.286,0-25.91-11.621-25.909-25.906c0-14.286,11.623-25.909,25.909-25.909
				c14.282,0,25.906,11.622,25.906,25.908C231.173,142.697,219.55,154.319,205.267,154.319z M205.267,108.266
				c-11.11,0-20.147,9.038-20.146,20.147c-0.001,11.107,9.036,20.143,20.146,20.142c11.104,0.001,20.142-9.034,20.145-20.143
				C225.408,117.304,216.372,108.267,205.267,108.266z"/>
		</g>
		<g>
			<path fill="#223228" d="M223.229,186.328c0,9.258-7.508,16.764-16.766,16.763c-9.257,0-16.762-7.505-16.762-16.763
				c0-9.261,7.505-16.765,16.762-16.765C215.722,169.564,223.229,177.067,223.229,186.328z"/>
			<path fill="#413934" d="M206.463,205.97c-10.832,0-19.642-8.812-19.642-19.642c0-10.832,8.812-19.646,19.643-19.646
				c10.833,0,19.644,8.814,19.644,19.646C226.109,197.156,217.297,205.97,206.463,205.97z M206.464,172.444
				c-7.652,0.001-13.882,6.228-13.881,13.884c0,7.656,6.23,13.879,13.88,13.879c7.657,0,13.884-6.223,13.884-13.879
				S214.12,172.444,206.464,172.444z"/>
		</g>
		<g>
			<defs>
				<path id="SVGID_1_" d="M257.506,169.563c0,62.164-22.854,112.557-51.044,112.557c-28.186,0-51.037-50.393-51.037-112.557
					c0-62.162,41.16-112.554,51.037-112.555C216.345,57.009,257.506,107.401,257.506,169.563z"/>
			</defs>
			<clipPath id="SVGID_2_">
				<use xlink:href="#SVGID_1_"  overflow="visible"/>
			</clipPath>
			<path clip-path="url(#SVGID_2_)" fill="#60BD97" d="M299.49,270.576c0,31.6-40.911,57.215-91.379,57.215
				c-50.465,0-91.379-25.617-91.379-57.214c0-31.599,12.761-57.215,91.379-57.214C286.73,213.363,299.489,238.979,299.49,270.576z"
				/>
			<path clip-path="url(#SVGID_2_)" fill="#60BD97" d="M297.842,28.171c-0.001,31.598-40.911,57.215-91.38,57.215
				c-50.462,0-91.374-25.617-91.374-57.215s12.758-57.213,91.374-57.213C285.081-29.042,297.841-3.427,297.842,28.171z"/>
		</g>
		<path fill="#EC6346" d="M196.07,235.547c-0.101-2.812,23.152-4.004,22.777,0c-0.381,4.002-4.994,57.044-11.392,57.044
			C201.064,292.591,196.169,238.359,196.07,235.547z"/>
	</g>
</g>
</svg>
