<?xml version="1.0" encoding="utf-8"?>
<!-- Generator: Adobe Illustrator 16.0.0, SVG Export Plug-In . SVG Version: 6.00 Build 0)  -->
<!DOCTYPE svg PUBLIC "-//W3C//DTD SVG 1.1//EN" "http://www.w3.org/Graphics/SVG/1.1/DTD/svg11.dtd">
<svg version="1.1" id="Layer_1" xmlns="http://www.w3.org/2000/svg" xmlns:xlink="http://www.w3.org/1999/xlink" x="0px" y="0px"
	 width="106px" height="106px" viewBox="-3 -3 106 106" enable-background="new -3 -3 106 106" xml:space="preserve">
<circle fill="none" stroke="#FFFFFF" stroke-width="3" stroke-miterlimit="10" cx="50" cy="50" r="50"/>
<g id="_x23_020201ff">
	<path fill="#FFFFFF" d="M46.022,27.576c1.95-1.856,4.723-2.483,7.339-2.562c2.766-0.024,5.533-0.01,8.299-0.008
		c0.012,2.918,0.012,5.839-0.002,8.757c-1.787-0.003-3.576,0.004-5.365-0.003c-1.133-0.07-2.297,0.789-2.504,1.913
		c-0.025,1.953-0.01,3.907-0.008,5.86c2.623,0.011,5.244-0.003,7.867,0.006c-0.191,2.826-0.543,5.638-0.953,8.439
		c-2.316,0.021-4.635-0.002-6.951,0.012c-0.021,8.334,0.011,16.667-0.016,25c-3.441,0.014-6.885-0.008-10.326,0.01
		c-0.065-8.335,0.005-16.673-0.036-25.009c-1.679-0.017-3.358,0.013-5.037-0.014c0.006-2.802,0.002-5.603,0.003-8.403
		c1.677-0.021,3.356,0.004,5.034-0.012c0.051-2.723-0.051-5.45,0.053-8.171C43.589,31.235,44.411,29.064,46.022,27.576z"/>
</g>
</svg>
