<?xml version="1.0" encoding="utf-8"?>
<!-- Generator: Adobe Illustrator 16.0.0, SVG Export Plug-In . SVG Version: 6.00 Build 0)  -->
<!DOCTYPE svg PUBLIC "-//W3C//DTD SVG 1.1//EN" "http://www.w3.org/Graphics/SVG/1.1/DTD/svg11.dtd">
<svg version="1.1" id="Layer_1" xmlns="http://www.w3.org/2000/svg" xmlns:xlink="http://www.w3.org/1999/xlink" x="0px" y="0px"
	 width="230.89px" height="230.89px" viewBox="0 0 230.89 230.89" enable-background="new 0 0 230.89 230.89" xml:space="preserve">
<g>
	<g>
		<path fill="#CFE295" d="M152.565,103.938c5.91,0,10.697,4.791,10.697,10.701c0,5.914-4.787,10.701-10.697,10.701
			c-5.911,0-10.697-4.787-10.697-10.701C141.868,108.729,146.654,103.938,152.565,103.938z"/>
		<path fill="#FBF49C" d="M203.65,111.35l-16.559-1.99c-1.701-6.32-4.176-12.292-7.367-17.829l10.3-13.094
			c1.565-2.013,1.39-5.124-0.422-6.937L172.53,54.421c-1.812-1.806-4.933-1.998-6.939-0.424l-13.118,10.316
			c-5.52-3.194-11.487-5.675-17.797-7.354l-1.995-16.567c-0.306-2.531-2.632-4.605-5.185-4.605h-24.149
			c-2.558,0-4.896,2.075-5.193,4.605l-1.979,16.567c-6.312,1.687-12.293,4.175-17.811,7.361L65.25,54.019
			c-2.005-1.574-5.123-1.388-6.929,0.417L41.25,71.521c-1.806,1.799-1.99,4.917-0.41,6.937l10.301,13.101
			c-3.194,5.526-5.675,11.501-7.36,17.822l-16.56,1.983c-2.531,0.297-4.612,2.636-4.612,5.188V140.7
			c0,2.566,2.074,4.887,4.612,5.192l16.567,2.001l143.29-0.021l16.565-1.994c2.521-0.304,4.61-2.625,4.61-5.193v-24.146
			C208.261,113.986,206.194,111.655,203.65,111.35z M99.713,117.431c0,0.588-0.475,1.114-1.059,1.19l-3.826,0.46
			c-0.388,1.443-0.957,2.829-1.699,4.104l2.375,3.024c0.364,0.463,0.318,1.174-0.095,1.596l-3.939,3.937
			c-0.413,0.421-1.134,0.457-1.596,0.101l-3.023-2.371c-1.269,0.74-2.649,1.305-4.104,1.697l-0.461,3.822
			c-0.068,0.587-0.608,1.066-1.195,1.066h-5.57c-0.587,0-1.128-0.472-1.197-1.066l-0.459-3.83c-1.455-0.398-2.83-0.957-4.105-1.703
			l-3.025,2.378c-0.468,0.362-1.186,0.319-1.596-0.095l-3.934-3.937c-0.417-0.421-0.459-1.132-0.098-1.596l2.375-3.024
			c-0.731-1.27-1.305-2.647-1.7-4.097l-3.823-0.461c-0.587-0.076-1.062-0.609-1.062-1.197v-5.569c0-0.594,0.475-1.12,1.062-1.204
			l3.815-0.46c0.396-1.455,0.968-2.836,1.702-4.112l-2.375-3.024c-0.363-0.468-0.32-1.189,0.098-1.595l3.934-3.945
			c0.416-0.414,1.134-0.46,1.595-0.095l3.023,2.376c1.271-0.736,2.652-1.306,4.105-1.701l0.461-3.826
			c0.068-0.583,0.609-1.063,1.196-1.063h5.571c0.587,0,1.128,0.479,1.195,1.063l0.461,3.826c1.446,0.384,2.828,0.957,4.097,1.693
			l3.025-2.375c0.468-0.366,1.178-0.318,1.596,0.094l3.937,3.938c0.413,0.414,0.462,1.127,0.095,1.595l-2.375,3.017
			c0.743,1.276,1.312,2.658,1.7,4.112l3.826,0.46c0.584,0.076,1.059,0.609,1.059,1.189v5.599h0.015V117.431z M173.973,117.431
			c0,0.588-0.471,1.114-1.064,1.19l-3.831,0.46c-0.392,1.443-0.955,2.829-1.695,4.104l2.365,3.024
			c0.368,0.463,0.318,1.174-0.09,1.596l-3.943,3.937c-0.415,0.421-1.131,0.457-1.596,0.101l-3.015-2.371
			c-1.277,0.74-2.657,1.305-4.106,1.697l-0.465,3.822c-0.073,0.587-0.61,1.066-1.188,1.066h-5.572c-0.594,0-1.132-0.472-1.201-1.066
			l-0.464-3.83c-1.453-0.398-2.83-0.957-4.106-1.703l-3.016,2.378c-0.464,0.362-1.19,0.319-1.596-0.095l-3.946-3.937
			c-0.406-0.421-0.456-1.132-0.086-1.596l2.371-3.024c-0.748-1.27-1.307-2.647-1.704-4.097l-3.821-0.461
			c-0.589-0.076-1.061-0.609-1.061-1.197v-5.569c0-0.594,0.472-1.12,1.061-1.204l3.821-0.46c0.391-1.455,0.956-2.836,1.697-4.112
			l-2.364-3.024c-0.378-0.468-0.32-1.189,0.086-1.595l3.946-3.945c0.411-0.414,1.132-0.46,1.596-0.095l3.016,2.376
			c1.276-0.736,2.653-1.306,4.106-1.701l0.464-3.826c0.069-0.583,0.607-1.063,1.188-1.063h5.569c0.594,0,1.131,0.479,1.204,1.063
			l0.465,3.826c1.436,0.384,2.829,0.957,4.09,1.693l3.031-2.375c0.465-0.366,1.175-0.318,1.596,0.094l3.931,3.938
			c0.421,0.414,0.464,1.127,0.103,1.595l-2.371,3.017c0.746,1.276,1.303,2.658,1.701,4.112l3.824,0.46
			c0.587,0.076,1.065,0.609,1.065,1.189v5.599h0.006V117.431z"/>
		<path fill="#CFE295" d="M78.312,103.938c5.911,0,10.7,4.791,10.7,10.701c0,5.914-4.789,10.701-10.7,10.701
			c-5.909,0-10.701-4.787-10.701-10.701C67.611,108.729,72.402,103.938,78.312,103.938z"/>
		<path fill="#CFE295" d="M45.236,52.601L17.753,28.897c2.864-3.861,2.582-9.329-0.921-12.832c-3.847-3.848-10.091-3.848-13.945,0
			c-3.847,3.854-3.847,10.099,0,13.945c3.503,3.506,8.971,3.786,12.825,0.914l23.711,27.492L45.236,52.601z"/>
		<path fill="#CFE295" d="M228.001,16.058c-3.864-3.847-10.094-3.847-13.945,0c-3.509,3.502-3.784,8.971-0.922,12.833
			l-27.485,23.703l5.809,5.816l23.717-27.493c3.864,2.872,9.311,2.589,12.827-0.914C231.852,26.164,231.852,19.912,228.001,16.058z"
			/>
		<path fill="#FBF49C" d="M175.257,166.01l1.264-2.177c1.639-2.857,3.045-5.845,4.279-8.905h-22.771
			c-8.833,14.272-24.602,23.815-42.578,23.815c-17.986,0-33.744-9.558-42.589-23.815H50.094c1.234,3.075,2.628,6.055,4.275,8.905
			l1.259,2.177l-11.84,15.076c-0.41,0.522-0.349,1.545,0.127,2.016l17.056,17.08c0.446,0.449,1.501,0.506,2.014,0.129l15.09-11.879
			l2.176,1.256c5.287,3.061,10.982,5.417,16.908,6.983l2.43,0.638l2.284,19.074c0.076,0.666,0.841,1.334,1.509,1.334h24.149
			c0.674,0,1.413-0.668,1.508-1.32l2.284-19.072l2.438-0.653c5.93-1.581,11.608-3.923,16.902-6.977l2.177-1.255l15.079,11.857
			c0.49,0.391,1.565,0.318,2.007-0.131l17.079-17.086c0.471-0.471,0.53-1.472,0.116-2.016L175.257,166.01z"/>
	</g>
</g>
</svg>
