<?xml version="1.0" encoding="utf-8"?>
<!-- Generator: Adobe Illustrator 16.0.0, SVG Export Plug-In . SVG Version: 6.00 Build 0)  -->
<!DOCTYPE svg PUBLIC "-//W3C//DTD SVG 1.1//EN" "http://www.w3.org/Graphics/SVG/1.1/DTD/svg11.dtd">
<svg version="1.1" id="Layer_1" xmlns="http://www.w3.org/2000/svg" xmlns:xlink="http://www.w3.org/1999/xlink" x="0px" y="0px"
	 width="106px" height="106px" viewBox="-3 -3 106 106" enable-background="new -3 -3 106 106" xml:space="preserve">
<circle fill="none" stroke="#FFFFFF" stroke-width="3" stroke-miterlimit="10" cx="50" cy="50" r="50"/>
<path fill="#FFFFFF" d="M25,52.383c0,4.167,0.625,7.491,1.875,9.975c1.337,2.64,3.411,4.593,6.224,5.858
	c2.848,1.337,5.755,2.162,8.724,2.476c2.674,0.312,5.556,0.469,8.646,0.469c1.338,0,3.014-0.053,5.026-0.156
	c1.685-0.104,3.478-0.335,5.378-0.689c1.9-0.355,3.537-0.82,4.909-1.395c1.562-0.659,3.003-1.549,4.321-2.669
	c1.319-1.12,2.345-2.418,3.073-3.894C74.393,59.874,75,56.55,75,52.383c0-4.757-1.363-8.732-4.089-11.928
	c0.538-1.614,0.807-3.307,0.807-5.078c0-2.344-0.503-4.522-1.51-6.536c-2.065,0-3.911,0.364-5.534,1.094s-3.546,1.962-5.768,3.698
	c-2.727-0.643-5.539-0.964-8.438-0.964c-3.159,0-6.249,0.348-9.271,1.042c-2.273-1.788-4.223-3.047-5.846-3.776
	s-3.468-1.094-5.534-1.094c-1.024,1.997-1.536,4.176-1.536,6.536c0,1.789,0.269,3.499,0.807,5.131C26.362,43.702,25,47.66,25,52.383
	L25,52.383z M31.719,57.669c0-2.465,0.707-4.522,2.122-6.172c1.415-1.65,3.277-2.474,5.586-2.474c0.92,0,2.873,0.217,5.859,0.65
	c1.528,0.227,3.099,0.339,4.714,0.339c1.613,0,3.193-0.112,4.738-0.339c3.039-0.434,4.992-0.65,5.859-0.65
	c2.31,0,4.166,0.824,5.573,2.474c1.406,1.649,2.108,3.707,2.108,6.172c0,1.754-0.32,3.299-0.963,4.636
	c-0.644,1.285-1.445,2.305-2.409,3.061s-2.191,1.357-3.685,1.811c-2.467,0.746-5.365,1.119-8.699,1.119h-5.051
	c-1.649,0-3.143-0.078-4.479-0.234c-1.423-0.139-2.855-0.441-4.297-0.91c-1.44-0.469-2.63-1.06-3.567-1.771
	c-1.024-0.799-1.849-1.861-2.474-3.189S31.719,59.354,31.719,57.669L31.719,57.669z M36.536,57.669c0,0.815,0.13,1.642,0.391,2.476
	c0.261,0.901,0.708,1.68,1.341,2.33c0.634,0.65,1.342,0.977,2.123,0.977c0.833,0,1.562-0.338,2.188-1.016
	c1.094-1.268,1.641-2.855,1.641-4.767c0-0.798-0.113-1.614-0.339-2.446c-0.261-0.904-0.707-1.681-1.341-2.332
	c-0.634-0.65-1.35-0.977-2.148-0.977c-0.834,0-1.562,0.348-2.188,1.042C37.092,54.152,36.536,55.725,36.536,57.669z M55.781,57.669
	c0,0.815,0.13,1.642,0.39,2.476c0.261,0.901,0.704,1.68,1.329,2.33s1.328,0.977,2.107,0.977c0.853,0,1.59-0.338,2.215-1.016
	c1.094-1.268,1.641-2.855,1.641-4.767c0-0.746-0.121-1.562-0.363-2.446c-0.262-0.904-0.709-1.681-1.342-2.332
	c-0.634-0.65-1.351-0.977-2.148-0.977c-0.834,0-1.545,0.348-2.135,1.042C56.346,54.152,55.781,55.725,55.781,57.669L55.781,57.669z"
	/>
</svg>
