<?xml version="1.0" encoding="utf-8"?>
<!-- Generator: Adobe Illustrator 16.0.0, SVG Export Plug-In . SVG Version: 6.00 Build 0)  -->
<!DOCTYPE svg PUBLIC "-//W3C//DTD SVG 1.1//EN" "http://www.w3.org/Graphics/SVG/1.1/DTD/svg11.dtd">
<svg version="1.1" id="Layer_1" xmlns="http://www.w3.org/2000/svg" xmlns:xlink="http://www.w3.org/1999/xlink" x="0px" y="0px"
	 width="231.055px" height="83.19px" viewBox="0 0 231.055 83.19" enable-background="new 0 0 231.055 83.19" xml:space="preserve">
<g>
	<path fill="#FFFFFF" d="M35.005,46.76c-0.795,0.861-1.688,1.7-2.683,2.518c-0.994,0.816-1.982,1.579-2.964,2.285
		c-0.983,0.707-1.91,1.336-2.782,1.889c-0.873,0.552-1.573,0.992-2.103,1.324c-0.42,0.266-0.944,0.618-1.573,1.061
		c-0.629,0.441-1.336,0.905-2.119,1.392c-0.784,0.485-1.612,0.978-2.484,1.475c-0.873,0.497-1.738,0.922-2.6,1.274
		c-0.861,0.354-1.706,0.606-2.534,0.762s-1.584,0.154-2.269,0c-0.861-0.198-1.806-0.546-2.832-1.043
		c-1.026-0.496-1.959-1.031-2.798-1.605c-0.928-0.64-1.729-1.227-2.401-1.755c-0.674-0.529-1.22-1.076-1.64-1.64
		c-0.419-0.562-0.729-1.176-0.928-1.838C0.099,52.192,0,51.409,0,50.503c0-1.897,0.188-3.67,0.563-5.314s0.927-3.212,1.655-4.703
		c0.729-1.489,1.629-2.907,2.699-4.255c1.07-1.347,2.303-2.671,3.692-3.975c0.663-0.617,1.435-1.279,2.318-1.986
		c0.883-0.707,1.815-1.362,2.798-1.972c0.981-0.606,1.98-1.108,2.997-1.507c1.015-0.396,1.986-0.597,2.915-0.597
		c1.08,0,2.058,0.205,2.931,0.613c0.872,0.408,1.611,0.96,2.219,1.655c0.608,0.696,1.071,1.496,1.392,2.401
		c0.319,0.904,0.479,1.854,0.479,2.848c0,0.973-0.132,1.827-0.396,2.566c-0.266,0.74-0.624,1.425-1.076,2.054
		c-0.453,0.629-0.973,1.23-1.558,1.806c-0.585,0.574-1.197,1.191-1.838,1.854c-0.31-0.044-0.536-0.17-0.679-0.382
		c-0.145-0.209-0.293-0.425-0.447-0.646L17.32,36.23c-0.906,0.464-1.772,1.1-2.6,1.903c-0.828,0.807-1.562,1.689-2.203,2.649
		c-0.642,0.96-1.154,1.97-1.54,3.029c-0.388,1.061-0.58,2.075-0.58,3.047c0,0.509,0.026,1.038,0.083,1.59
		c0.055,0.552,0.148,1.093,0.282,1.622c0.132,0.53,0.309,1.032,0.529,1.508c0.221,0.476,0.497,0.889,0.828,1.241
		c1.192-0.354,2.417-0.768,3.676-1.241c1.26-0.476,2.671-1.121,4.239-1.938c1.567-0.815,3.362-1.866,5.382-3.146
		c2.021-1.28,4.376-2.915,7.07-4.901c0.309-0.109,0.629-0.177,0.96-0.198c0.331-0.021,0.646-0.012,0.944,0.032
		c0.298,0.046,0.558,0.111,0.777,0.199c0.221,0.089,0.375,0.199,0.464,0.332c0.221,0.31,0.375,0.662,0.464,1.061
		c0.088,0.396,0.109,0.812,0.065,1.241c-0.044,0.432-0.161,0.861-0.348,1.292C35.628,45.983,35.358,46.385,35.005,46.76z"/>
	<path fill="#FFFFFF" d="M31.891,42.555c0.132-0.375,0.358-0.757,0.679-1.143c0.32-0.387,0.59-0.745,0.812-1.077
		c0.221-0.354,0.382-0.807,0.48-1.357c0.1-0.552,0.171-1.159,0.215-1.82c0.044-0.662,0.077-1.342,0.1-2.037
		c0.021-0.695,0.066-1.357,0.133-1.987c0.065-0.629,0.159-1.197,0.28-1.706c0.121-0.508,0.315-0.895,0.58-1.158
		c0.397-0.134,0.763-0.199,1.094-0.199c0.484,0,0.898,0.122,1.241,0.364c0.343,0.242,0.69,0.513,1.043,0.812
		c0.354,0.298,0.729,0.567,1.126,0.812c0.397,0.242,0.896,0.363,1.491,0.363c2.075,0,4.09-0.227,6.043-0.679
		c1.954-0.452,3.771-1.209,5.448-2.27c0.928-0.574,1.876-1.265,2.848-2.07c0.972-0.806,1.876-1.562,2.717-2.27
		c0.176-0.132,0.381-0.226,0.612-0.28c0.231-0.056,0.437-0.116,0.612-0.183c0.375,0.243,0.75,0.606,1.126,1.094
		c0.375,0.485,0.707,1.016,0.994,1.589c0.287,0.574,0.519,1.139,0.694,1.688c0.178,0.552,0.266,1.017,0.266,1.392
		c0,0.396-0.276,0.674-0.828,0.827c-0.53,0.178-1.093,0.535-1.689,1.076c-0.596,0.541-1.208,1.198-1.838,1.971
		c-0.629,0.772-1.258,1.611-1.888,2.518c-0.629,0.904-1.231,1.805-1.805,2.698c-0.575,0.895-1.109,1.75-1.606,2.565
		c-0.497,0.816-0.922,1.501-1.274,2.054c-0.84,1.324-1.558,2.688-2.152,4.09c-0.596,1.401-0.896,2.832-0.896,4.289
		c0,1.061,0.089,1.794,0.266,2.203c0.176,0.408,0.375,0.612,0.596,0.612c0.507,0,1.153-0.215,1.938-0.646
		c0.783-0.432,1.634-0.994,2.55-1.688s1.865-1.479,2.848-2.353c0.982-0.872,1.932-1.737,2.848-2.601
		c0.916-0.86,1.761-1.683,2.533-2.467c0.772-0.783,1.402-1.439,1.889-1.971c0.75-0.795,1.347-1.474,1.789-2.036
		c0.44-0.562,0.705-0.89,0.794-0.978c0.265-0.266,0.591-0.354,0.977-0.266c0.386,0.088,0.767,0.26,1.143,0.515
		c0.375,0.254,0.695,0.541,0.96,0.86c0.266,0.319,0.397,0.591,0.397,0.812c0,0.396-0.083,0.822-0.249,1.274
		c-0.166,0.453-0.386,0.934-0.662,1.439c-0.275,0.509-0.591,1.032-0.944,1.573s-0.718,1.075-1.093,1.605
		c-0.839,1.191-1.678,2.457-2.517,3.792c-0.839,1.336-1.783,2.677-2.832,4.023c-1.049,1.348-2.241,2.661-3.577,3.94
		c-1.336,1.28-2.92,2.461-4.752,3.543c-1.038-0.265-2.108-0.606-3.212-1.026s-2.191-0.89-3.262-1.407
		c-1.071-0.52-2.109-1.081-3.113-1.688c-1.005-0.606-1.926-1.229-2.765-1.871c-1.457-1.104-2.187-2.604-2.187-4.504
		c0-1.259,0.221-2.61,0.663-4.057c0.441-1.446,0.971-2.854,1.59-4.223c0.618-1.369,1.258-2.627,1.92-3.774
		c0.663-1.147,1.203-2.054,1.623-2.717c-0.42,0.266-0.86,0.458-1.325,0.58c-0.464,0.122-0.927,0.183-1.391,0.183
		c-0.574,0-1.115-0.088-1.623-0.266c-0.508-0.177-0.917-0.432-1.226-0.763c-0.133,0.795-0.37,1.656-0.712,2.583
		c-0.344,0.928-0.757,1.783-1.242,2.566c-0.486,0.783-1.027,1.437-1.623,1.954c-0.597,0.519-1.204,0.777-1.821,0.777
		c-0.331,0-0.574-0.109-0.729-0.331L31.891,42.555z"/>
	<path fill="#FFFFFF" d="M88.355,49.643c0.529-0.396,1.242-0.978,2.136-1.739c0.896-0.762,1.843-1.59,2.848-2.483
		c1.004-0.895,2.01-1.805,3.015-2.731c1.004-0.927,1.882-1.755,2.633-2.483l3.444,3.543c-0.707,1.104-1.573,2.219-2.601,3.345
		c-1.026,1.126-2.12,2.226-3.279,3.296c-1.158,1.07-2.34,2.098-3.543,3.079c-1.203,0.983-2.335,1.866-3.395,2.649
		c-1.06,0.783-1.999,1.458-2.815,2.021c-0.816,0.562-1.413,0.966-1.788,1.208c-0.354,0.574-0.801,1.357-1.341,2.352
		c-0.542,0.993-1.17,2.108-1.888,3.346c-0.718,1.235-1.519,2.539-2.401,3.908c-0.883,1.368-1.843,2.728-2.881,4.073
		s-2.142,2.634-3.312,3.857c-1.17,1.227-2.407,2.308-3.709,3.246c-1.304,0.938-2.661,1.684-4.073,2.234
		C63.993,82.915,62.524,83.19,61,83.19c-1.258,0-2.472-0.132-3.643-0.396c-1.17-0.266-2.203-0.663-3.098-1.191
		c-0.894-0.529-1.61-1.188-2.152-1.972c-0.541-0.783-0.812-1.706-0.812-2.765c0-1.104,0.293-2.202,0.877-3.296
		c0.585-1.093,1.375-2.175,2.368-3.245c0.993-1.071,2.136-2.109,3.427-3.113c1.292-1.005,2.646-1.97,4.058-2.896
		c1.413-0.927,2.837-1.812,4.271-2.648c1.436-0.839,2.792-1.617,4.073-2.335c1.28-0.718,2.435-1.363,3.461-1.938
		c1.027-0.574,1.827-1.071,2.401-1.49c-1.369,0.553-2.562,0.949-3.577,1.192c-1.016,0.242-1.921,0.363-2.715,0.363
		c-0.707,0-1.452-0.132-2.235-0.396c-0.784-0.266-1.513-0.641-2.186-1.126c-0.673-0.484-1.23-1.082-1.672-1.788
		c-0.441-0.707-0.662-1.512-0.662-2.417c0-0.816,0.083-1.761,0.248-2.832c0.165-1.07,0.431-2.196,0.795-3.378
		c0.363-1.182,0.816-2.379,1.357-3.593c0.541-1.215,1.182-2.373,1.921-3.479c0.739-1.104,1.59-2.108,2.551-3.015
		c0.96-0.904,2.024-1.656,3.195-2.252l5.563,5.133c-0.905,0.86-1.717,1.889-2.435,3.08c-0.717,1.191-1.324,2.4-1.82,3.626
		c-0.497,1.227-0.877,2.391-1.144,3.494c-0.265,1.104-0.396,2.009-0.396,2.715c0,0.884,0.188,1.325,0.562,1.325
		c0.618,0,1.319-0.31,2.104-0.928c0.785-0.617,1.601-1.424,2.451-2.417c0.85-0.994,1.705-2.12,2.565-3.378
		c0.861-1.258,1.685-2.521,2.467-3.792c0.784-1.27,1.508-2.483,2.169-3.644c0.662-1.158,1.203-2.146,1.623-2.964
		c0.354-0.662,0.861-1.152,1.523-1.475c0.663-0.319,1.347-0.479,2.053-0.479c0.596,0,1.099,0.088,1.507,0.266
		c0.408,0.177,0.745,0.409,1.011,0.695c0.265,0.287,0.451,0.597,0.562,0.928c0.11,0.331,0.166,0.65,0.166,0.96
		c0,0.243-0.116,0.694-0.348,1.356c-0.232,0.663-0.53,1.44-0.895,2.335c-0.364,0.895-0.768,1.845-1.209,2.849
		c-0.441,1.005-0.86,1.959-1.258,2.864c-0.396,0.906-0.757,1.711-1.077,2.417C88.681,48.859,88.465,49.356,88.355,49.643z
		 M60.736,77.461c0,0.154,0.132,0.231,0.396,0.231c0.199,0,0.453-0.05,0.763-0.148c0.31-0.1,0.646-0.23,1.01-0.396
		c0.364-0.166,0.734-0.363,1.109-0.597c0.376-0.231,0.729-0.479,1.06-0.744c1.126-0.928,2.174-1.833,3.146-2.717
		c0.971-0.883,1.888-1.805,2.748-2.765c0.861-0.96,1.689-1.982,2.484-3.063s1.578-2.284,2.352-3.609
		c-0.884,0.641-1.871,1.386-2.965,2.234c-1.093,0.851-2.196,1.733-3.312,2.649c-1.116,0.916-2.197,1.838-3.246,2.766
		c-1.049,0.929-1.987,1.793-2.815,2.601c-0.827,0.807-1.489,1.522-1.986,2.151C60.984,76.683,60.736,77.151,60.736,77.461z"/>
	<path fill="#FFFFFF" d="M91.335,47.623c0.773-0.816,1.479-1.535,2.119-2.153c0.642-0.617,1.242-1.187,1.805-1.705
		c0.563-0.52,1.104-1.011,1.623-1.475c0.52-0.464,1.055-0.955,1.606-1.475c0.551-0.52,1.137-1.087,1.755-1.706
		c0.618-0.618,1.303-1.335,2.053-2.152c1.192-1.28,2.308-2.616,3.346-4.007c1.037-1.392,1.932-2.893,2.682-4.505
		c0.354-0.75,0.568-1.527,0.646-2.334c0.075-0.806,0.143-1.61,0.198-2.417c0.056-0.806,0.144-1.602,0.265-2.385
		s0.401-1.527,0.846-2.234c0.043-0.021,0.121-0.033,0.229-0.033c0.354,0,0.828,0.166,1.427,0.497
		c0.596,0.331,1.239,0.762,1.936,1.292c0.697,0.529,1.402,1.126,2.121,1.788c0.717,0.663,1.373,1.313,1.971,1.954
		c0.597,0.641,1.093,1.236,1.49,1.788c0.396,0.553,0.629,0.993,0.695,1.325c0.021,0.109,0.037,0.215,0.049,0.313
		c0.012,0.1,0.018,0.204,0.018,0.313c0,0.553-0.062,1.147-0.184,1.789c-0.121,0.642-0.182,1.258-0.182,1.854
		c0,0.266,0.153,0.851,0.463,1.755c0.311,0.906,0.641,1.993,0.994,3.263c0.354,1.271,0.649,2.648,0.895,4.141
		c0.242,1.489,0.297,2.952,0.166,4.388l-0.432,1.061l1.457-1.921c0.42-0.354,0.801-0.674,1.143-0.96
		c0.342-0.287,0.695-0.597,1.062-0.928c0.362-0.331,0.768-0.706,1.209-1.126c0.44-0.419,0.981-0.927,1.622-1.522
		c0,0.065,0.148,0.275,0.447,0.629c0.297,0.354,0.629,0.733,0.992,1.144c0.365,0.409,0.689,0.784,0.977,1.126
		c0.287,0.344,0.421,0.514,0.398,0.514c-0.619,0.949-1.354,1.999-2.203,3.146s-1.811,2.308-2.881,3.478
		c-1.07,1.17-2.24,2.309-3.51,3.41c-1.271,1.104-2.633,2.081-4.09,2.932c-1.457,0.852-2.998,1.535-4.621,2.055
		c-1.621,0.52-3.308,0.777-5.049,0.777c-0.974,0-2.017-0.248-3.131-0.745c-1.114-0.496-2.201-1.144-3.262-1.938
		c-1.06-0.795-2.037-1.693-2.931-2.698c-0.895-1.004-1.618-2.024-2.169-3.062c-0.53,0.441-1.104,0.769-1.723,0.978
		c-0.617,0.21-1.07,0.313-1.357,0.313s-0.679-0.027-1.176-0.083s-0.982-0.166-1.457-0.331c-0.476-0.166-0.89-0.396-1.242-0.696
		c-0.354-0.298-0.53-0.679-0.53-1.143c0-0.31,0.111-0.641,0.331-0.993C90.463,48.561,90.828,48.13,91.335,47.623z M113.359,35.137
		c-0.574,1.303-1.26,2.517-2.055,3.643c-0.796,1.127-1.65,2.197-2.566,3.213s-1.876,1.978-2.881,2.881
		c-1.005,0.905-1.993,1.776-2.964,2.616c0.198,0.441,0.452,0.827,0.762,1.158c0.309,0.331,0.646,0.618,1.01,0.86
		c0.364,0.243,0.739,0.426,1.126,0.547c0.386,0.121,0.756,0.182,1.109,0.182c1.126,0,2.169-0.227,3.13-0.679
		c0.959-0.452,1.793-1.049,2.5-1.788c0.705-0.74,1.258-1.578,1.656-2.518c0.396-0.938,0.596-1.894,0.596-2.864
		c0-0.641-0.039-1.303-0.117-1.987c-0.076-0.685-0.176-1.347-0.297-1.986c-0.121-0.641-0.271-1.242-0.447-1.806
		C113.744,36.048,113.556,35.557,113.359,35.137z"/>
	<path fill="#FFFFFF" d="M159.092,29.275c-0.686,0.354-1.61,0.689-2.78,1.011c-1.171,0.319-2.38,0.617-3.627,0.895
		c-1.247,0.276-2.431,0.513-3.543,0.712c-1.115,0.198-1.972,0.354-2.566,0.464c-0.751,0.132-1.375,0.23-1.871,0.298
		c-0.497,0.065-0.911,0.127-1.242,0.183c-0.331,0.057-0.606,0.145-0.828,0.266c-0.221,0.122-0.437,0.298-0.646,0.529
		c-0.21,0.231-0.426,0.559-0.646,0.978c-0.22,0.419-0.495,0.96-0.826,1.623c-0.331,0.686-0.773,1.635-1.325,2.849
		c-0.552,1.214-1.093,2.527-1.623,3.94c-0.529,1.413-0.982,2.849-1.357,4.306c-0.376,1.457-0.562,2.771-0.562,3.94
		c0,0.508,0.044,0.982,0.132,1.424c0.088,0.441,0.243,0.828,0.464,1.159c0.685,0,1.512-0.198,2.483-0.597
		c0.971-0.397,2.021-0.934,3.146-1.605c1.126-0.673,2.285-1.451,3.479-2.334c1.191-0.883,2.34-1.811,3.443-2.782
		c1.104-0.971,2.13-1.953,3.079-2.946c0.949-0.993,1.744-1.933,2.386-2.814l4.372,2.684c-0.51,1.061-1.191,2.247-2.055,3.561
		c-0.861,1.313-1.826,2.638-2.896,3.974c-1.071,1.336-2.226,2.639-3.462,3.908c-1.236,1.271-2.483,2.396-3.741,3.378
		c-1.26,0.981-2.495,1.768-3.709,2.352c-1.215,0.585-2.342,0.865-3.378,0.846c-0.751-0.266-1.623-0.536-2.616-0.812
		c-0.994-0.275-2.026-0.59-3.098-0.943c-1.07-0.354-2.125-0.75-3.162-1.191c-1.038-0.44-1.966-0.96-2.781-1.558
		c-0.817-0.596-1.479-1.285-1.987-2.069s-0.762-1.672-0.762-2.666c0-2.782,0.42-5.686,1.259-8.71
		c0.839-3.023,2.13-5.938,3.874-8.743c-0.529,0.065-1.176,0.166-1.938,0.298c-0.763,0.134-1.572,0.271-2.435,0.414
		c-0.861,0.145-1.728,0.287-2.6,0.432s-1.689,0.266-2.451,0.363c-0.762,0.1-1.429,0.166-2.003,0.199
		c-0.574,0.033-0.973,0.005-1.192-0.083c-0.815-0.265-1.229-0.567-1.242-0.911c-0.011-0.342,0.237-0.694,0.745-1.06
		c0.508-0.366,1.204-0.729,2.087-1.094c0.884-0.363,1.821-0.706,2.814-1.025c0.993-0.32,1.966-0.602,2.914-0.846
		c0.95-0.242,1.732-0.43,2.352-0.562c1.325-0.265,2.353-0.484,3.08-0.662c0.729-0.176,1.313-0.396,1.755-0.662
		c0.442-0.266,0.828-0.612,1.159-1.044c0.331-0.431,0.762-1.031,1.292-1.805c0.31-0.44,0.685-1.032,1.126-1.771
		c0.441-0.738,0.927-1.534,1.457-2.385c0.529-0.85,1.099-1.706,1.705-2.566c0.607-0.86,1.22-1.633,1.838-2.317
		s1.236-1.247,1.855-1.688c0.617-0.44,1.214-0.663,1.788-0.663c1.302,0,2.478,0.222,3.525,0.663c1.049,0.441,2.082,1.049,3.098,1.82
		c-1.192,1.679-2.43,3.39-3.709,5.134c-1.28,1.743-2.386,3.564-3.312,5.464c0.618-0.044,1.357-0.121,2.219-0.231
		c0.861-0.11,1.788-0.237,2.782-0.381c0.993-0.145,2.021-0.299,3.08-0.465c1.061-0.166,2.086-0.324,3.079-0.479
		c0.994-0.153,1.933-0.298,2.813-0.431c0.885-0.133,1.646-0.232,2.285-0.299L159.092,29.275z"/>
	<path fill="#FFFFFF" d="M154.422,56.564c-1.037-2.009-1.728-3.901-2.068-5.681c-0.342-1.776-0.402-3.443-0.184-5
		c0.222-1.556,0.687-3.008,1.393-4.354s1.59-2.594,2.648-3.741c1.61-1.723,3.238-3.085,4.886-4.091
		c1.646-1.004,3.315-1.59,5.019-1.755c1.698-0.166,3.454,0.139,5.266,0.911c1.811,0.772,3.688,2.063,5.63,3.875
		c0.241-0.266,0.547-0.497,0.909-0.694c0.365-0.198,0.75-0.314,1.16-0.349c0.407-0.033,0.832,0.039,1.274,0.215
		c0.44,0.178,0.858,0.497,1.258,0.96c0.707,0.84,1.247,1.519,1.623,2.037c0.375,0.52,0.58,1.025,0.612,1.522
		c0.031,0.497-0.11,1.049-0.432,1.656c-0.318,0.606-0.812,1.419-1.475,2.434c-1.214,1.812-2.213,3.539-2.997,5.184
		c-0.782,1.646-1.362,3.373-1.737,5.184c-0.178,0.816,0.049,1.191,0.68,1.126c0.63-0.065,1.507-0.432,2.633-1.093
		c1.126-0.663,2.418-1.552,3.875-2.666c1.457-1.115,2.936-2.308,4.438-3.577c1.502-1.271,2.942-2.544,4.322-3.825
		c1.379-1.279,2.555-2.428,3.526-3.443c0.661,0.686,1.137,1.362,1.425,2.037c0.286,0.674,0.439,1.318,0.463,1.938
		c0.021,0.618-0.05,1.182-0.215,1.688c-0.166,0.508-0.359,0.927-0.58,1.258c-1.768,2.648-3.836,5.013-6.209,7.088
		c-2.374,2.075-4.963,3.842-7.768,5.299c-1.17,0.618-2.366,1.087-3.594,1.407c-1.226,0.319-2.422,0.479-3.593,0.479
		s-2.291-0.154-3.36-0.464c-1.07-0.31-2.049-0.784-2.933-1.424c-0.528-0.396-0.899-0.807-1.108-1.226
		c-0.211-0.419-0.313-0.851-0.313-1.292c0-0.44,0.065-0.883,0.199-1.325c0.132-0.44,0.274-0.883,0.43-1.324
		c-1.567,1.038-3.194,1.755-4.885,2.152c-1.688,0.396-3.259,0.58-4.702,0.546c-1.445-0.032-2.672-0.215-3.676-0.546
		C155.256,57.359,154.643,56.983,154.422,56.564z M170.054,37.985c-0.397,0.089-0.88,0.349-1.44,0.778
		c-0.562,0.43-1.154,0.972-1.771,1.622c-0.617,0.651-1.229,1.375-1.838,2.17c-0.606,0.795-1.164,1.605-1.672,2.436
		c-0.508,0.827-0.943,1.639-1.31,2.434c-0.364,0.794-0.597,1.508-0.694,2.137c-0.099,0.629-0.045,1.147,0.166,1.558
		c0.209,0.408,0.623,0.635,1.241,0.679c1.368,0.111,2.665-0.176,3.892-0.86s2.355-1.59,3.396-2.716s1.979-2.385,2.832-3.775
		c0.851-1.391,1.571-2.727,2.169-4.007c0.109-0.243,0.021-0.535-0.266-0.878c-0.286-0.343-0.68-0.65-1.176-0.928
		c-0.498-0.275-1.064-0.484-1.707-0.629C171.235,37.859,170.627,37.853,170.054,37.985z"/>
	<path fill="#FFFFFF" d="M208.372,61.001c-0.574,0-1.297-0.166-2.17-0.497c-0.871-0.331-1.805-0.762-2.799-1.292
		c-0.992-0.529-1.986-1.114-2.98-1.755c-0.991-0.641-1.887-1.28-2.682-1.921s-1.445-1.236-1.953-1.788
		c-0.509-0.553-0.763-0.994-0.763-1.325c0-2.428,0.216-4.835,0.646-7.22c0.433-2.385,1.018-4.741,1.756-7.07
		c0.74-2.328,1.602-4.631,2.582-6.904c0.982-2.273,2.025-4.51,3.132-6.707c1.104-2.195,2.233-4.354,3.396-6.475
		c1.158-2.12,2.278-4.185,3.36-6.192c0.597-1.104,1.362-2.34,2.302-3.709c0.938-1.369,1.998-2.66,3.18-3.875
		c1.183-1.214,2.451-2.229,3.81-3.047C220.542,0.409,221.926,0,223.338,0c0.574,0,1.17,0.21,1.789,0.629
		c0.617,0.42,1.209,0.944,1.771,1.573s1.098,1.324,1.605,2.086c0.509,0.762,0.949,1.489,1.324,2.187
		c0.375,0.696,0.674,1.297,0.896,1.805c0.221,0.509,0.331,0.84,0.331,0.993c-0.047,2.317-0.491,4.72-1.344,7.203
		c-0.85,2.483-1.969,4.957-3.359,7.418c-1.393,2.462-2.991,4.862-4.803,7.203s-3.682,4.531-5.612,6.573
		c-1.933,2.042-3.858,3.887-5.778,5.531c-1.921,1.646-3.709,2.997-5.365,4.057c0,0.178,0.045,0.553,0.133,1.126
		c0.089,0.575,0.232,1.172,0.432,1.789c0.2,0.618,0.464,1.177,0.795,1.673c0.331,0.495,0.729,0.744,1.192,0.744
		c0.616,0,1.312-0.188,2.086-0.562c0.772-0.375,1.595-0.872,2.468-1.489c0.872-0.618,1.771-1.335,2.699-2.153
		c0.927-0.815,1.849-1.655,2.765-2.517s1.827-1.723,2.732-2.583c0.903-0.861,1.755-1.656,2.55-2.386
		c0.243-0.242,0.497-0.396,0.762-0.463c0.266-0.065,0.497-0.101,0.695-0.101c0.439,0,0.783,0.178,1.025,0.53
		c0.242,0.354,0.365,0.772,0.365,1.259c0,0.574-0.173,1.281-0.515,2.119c-0.345,0.839-0.808,1.755-1.392,2.749
		c-0.586,0.993-1.274,2.03-2.069,3.112s-1.646,2.143-2.552,3.18c-0.903,1.038-1.838,2.021-2.799,2.947
		c-0.959,0.928-1.901,1.744-2.83,2.451c-0.928,0.707-1.815,1.271-2.666,1.688C209.823,60.792,209.055,61.001,208.372,61.001z
		 M207.808,37.257c0.815-0.508,1.666-1.153,2.55-1.938c0.883-0.783,1.749-1.646,2.6-2.583c0.852-0.938,1.686-1.932,2.5-2.979
		c0.817-1.049,1.584-2.104,2.303-3.163s1.363-2.091,1.938-3.096c0.574-1.004,1.049-1.927,1.424-2.767
		c0.485-1.081,1.018-2.207,1.59-3.378c0.574-1.17,1.115-2.334,1.623-3.494c0.508-1.158,0.943-2.308,1.31-3.443
		c0.362-1.138,0.58-2.213,0.646-3.229c-0.222,0.089-0.44,0.154-0.662,0.198c-0.221,0.046-0.387,0.145-0.496,0.299
		c-1.522,1.833-2.998,3.774-4.422,5.829c-1.424,2.053-2.844,4.271-4.256,6.655c-1.412,2.386-2.854,4.962-4.322,7.732
		s-3.008,5.769-4.617,8.992C207.532,37.135,207.631,37.257,207.808,37.257z"/>
</g>
</svg>
