<?xml version="1.0" encoding="utf-8"?>
<!-- Generator: Adobe Illustrator 16.0.0, SVG Export Plug-In . SVG Version: 6.00 Build 0)  -->
<!DOCTYPE svg PUBLIC "-//W3C//DTD SVG 1.1//EN" "http://www.w3.org/Graphics/SVG/1.1/DTD/svg11.dtd">
<svg version="1.1" id="Layer_1" xmlns="http://www.w3.org/2000/svg" xmlns:xlink="http://www.w3.org/1999/xlink" x="0px" y="0px"
	 width="100px" height="100px" viewBox="0 0 100 100" enable-background="new 0 0 100 100" xml:space="preserve">
<g>
	<circle fill="#666666" cx="76.939" cy="21.154" r="5.769"/>
	<circle fill="#666666" cx="61.555" cy="9.615" r="5.769"/>
	<circle fill="#666666" cx="46.17" cy="5.769" r="5.769"/>
	<circle fill="#666666" cx="30.786" cy="13.462" r="5.769"/>
	<path fill="#666666" d="M71.17,21.154v25c0,1.062-0.861,1.923-1.924,1.923c-1.061,0-1.924-0.862-1.924-1.923V9.615H55.785v32.692
		c0,1.062-0.861,1.923-1.922,1.923c-1.062,0-1.924-0.862-1.924-1.923V5.769H40.401v36.539c0,1.062-0.862,1.923-1.923,1.923
		s-1.923-0.862-1.923-1.923V13.461H25.017v48.078l-7.789-10.658c-2.308-3.558-6.812-4.75-10.111-2.711
		C3.828,50.254,3.013,54.8,5.29,58.346c0,0,12.562,19.012,17.916,27.15C28.56,93.634,37.232,100,53.451,100
		c26.854,0,29.258-20.738,29.258-26.923s0-51.923,0-51.923H71.17z"/>
</g>
<g>
	<path fill="#CCCCCC" d="M52.585,55.504c-8.835,0-15.998,7.163-15.998,15.998S43.75,87.5,52.585,87.5
		c8.837,0,15.998-7.163,15.998-15.998S61.422,55.504,52.585,55.504z M56.947,77.68c-0.787,0.883-1.924,1.401-3.409,1.559v2.264
		h-1.896V79.25c-2.479-0.254-4.012-1.695-4.603-4.318l2.929-0.765c0.271,1.649,1.17,2.474,2.695,2.474
		c0.713,0,1.24-0.176,1.576-0.529c0.336-0.353,0.504-0.778,0.504-1.277c0-0.518-0.168-0.91-0.504-1.176
		c-0.336-0.268-1.084-0.605-2.242-1.016c-1.041-0.361-1.855-0.718-2.441-1.072c-0.586-0.353-1.062-0.846-1.428-1.48
		c-0.365-0.637-0.548-1.379-0.548-2.223c0-1.107,0.327-2.104,0.979-2.991c0.651-0.885,1.68-1.426,3.082-1.623v-1.748h1.895v1.748
		c2.117,0.254,3.488,1.451,4.109,3.593l-2.607,1.07c-0.51-1.468-1.295-2.202-2.361-2.202c-0.535,0-0.965,0.164-1.287,0.492
		c-0.324,0.328-0.486,0.726-0.486,1.192c0,0.477,0.156,0.842,0.47,1.098c0.312,0.254,0.979,0.568,2.004,0.945
		c1.125,0.41,2.009,0.799,2.646,1.164c0.642,0.365,1.149,0.871,1.533,1.514c0.381,0.645,0.571,1.396,0.571,2.258
		C58.129,75.695,57.734,76.798,56.947,77.68z"/>
</g>
</svg>
