<?xml version="1.0" encoding="utf-8"?>
<!-- Generator: Adobe Illustrator 16.0.0, SVG Export Plug-In . SVG Version: 6.00 Build 0)  -->
<!DOCTYPE svg PUBLIC "-//W3C//DTD SVG 1.1//EN" "http://www.w3.org/Graphics/SVG/1.1/DTD/svg11.dtd">
<svg version="1.1" id="Layer_1" xmlns="http://www.w3.org/2000/svg" xmlns:xlink="http://www.w3.org/1999/xlink" x="0px" y="0px"
	 width="506.82px" height="506.82px" viewBox="1.999 -6.347 506.82 506.82" enable-background="new 1.999 -6.347 506.82 506.82"
	 xml:space="preserve">
<g>
	<path fill="#000003" d="M103.462,207.061c15.821,0,26.365,2.92,31.637,8.762c5.267,5.841,6.522,15.867,3.766,30.074
		c-2.879,14.795-8.423,25.354-16.641,31.682c-8.218,6.328-20.724,9.488-37.513,9.488h-25.33l15.549-80.006H103.462z M2,368.057
		h41.643l9.877-50.822h35.669c15.739,0,28.686-1.649,38.85-4.961c10.165-3.305,19.402-8.848,27.717-16.629
		c6.978-6.416,12.624-13.489,16.948-21.228c4.319-7.731,7.388-16.267,9.202-25.601c4.406-22.66,1.081-40.311-9.965-52.955
		c-11.046-12.646-28.619-18.967-52.709-18.967H39.154L2,368.057z M212.49,126.07h41.314l-9.878,50.824h36.807
		c23.156,0,39.133,4.041,47.925,12.116c8.791,8.08,11.425,21.171,7.91,39.267l-17.286,88.957h-41.971l16.437-84.582
		c1.87-9.622,1.185-16.186-2.063-19.685c-3.248-3.5-10.158-5.251-20.729-5.251h-33.02L216.65,317.232h-41.315L212.49,126.07z
		 M428.49,207.061c15.819,0,26.365,2.92,31.637,8.762c5.27,5.841,6.523,15.867,3.766,30.074
		c-2.879,14.795-8.421,25.354-16.641,31.682c-8.218,6.328-20.724,9.488-37.513,9.488H384.41l15.549-80.006H428.49z M327.029,368.057
		h41.643l9.876-50.822h35.669c15.739,0,28.688-1.649,38.853-4.961c10.164-3.305,19.399-8.848,27.717-16.629
		c6.979-6.416,12.624-13.489,16.948-21.228c4.316-7.731,7.388-16.267,9.199-25.601c4.406-22.66,1.082-40.311-9.965-52.955
		c-11.046-12.646-28.619-18.967-52.709-18.967h-80.076L327.029,368.057L327.029,368.057z"/>
</g>
</svg>
