<?xml version="1.0" encoding="utf-8"?>
<!-- Generator: Adobe Illustrator 16.0.0, SVG Export Plug-In . SVG Version: 6.00 Build 0)  -->
<!DOCTYPE svg PUBLIC "-//W3C//DTD SVG 1.1//EN" "http://www.w3.org/Graphics/SVG/1.1/DTD/svg11.dtd">
<svg version="1.1" id="Layer_1" xmlns="http://www.w3.org/2000/svg" xmlns:xlink="http://www.w3.org/1999/xlink" x="0px" y="0px"
	 width="120px" height="120px" viewBox="4 4 120 120" enable-background="new 4 4 120 120" xml:space="preserve">
<g>
	
		<linearGradient id="SVGID_1_" gradientUnits="userSpaceOnUse" x1="-11.625" y1="-8.376" x2="97.3897" y2="-102.1689" gradientTransform="matrix(0.6006 0 0 -0.6064 8.7261 2.3375)">
		<stop  offset="0" style="stop-color:#5A9FD4"/>
		<stop  offset="1" style="stop-color:#306998"/>
	</linearGradient>
	<path fill="url(#SVGID_1_)" d="M63.293,4.001c-4.894,0.022-9.568,0.44-13.68,1.168c-12.115,2.14-14.314,6.62-14.314,14.881v10.911
		h28.628v3.637H35.299H24.555c-8.32,0-15.605,5.001-17.884,14.515c-2.629,10.904-2.745,17.709,0,29.095
		c2.035,8.476,6.895,14.515,15.215,14.515h9.843V79.643c0-9.449,8.175-17.785,17.884-17.785h28.595
		c7.96,0,14.313-6.554,14.313-14.547V20.05c0-7.758-6.545-13.586-14.313-14.881C73.29,4.35,68.188,3.978,63.293,4.001z
		 M47.812,12.776c2.957,0,5.372,2.454,5.372,5.472c0,3.007-2.415,5.438-5.372,5.438c-2.968,0-5.372-2.432-5.372-5.438
		C42.439,15.23,44.844,12.776,47.812,12.776z"/>
	
		<linearGradient id="SVGID_2_" gradientUnits="userSpaceOnUse" x1="139.5371" y1="-158.936" x2="100.6074" y2="-103.8574" gradientTransform="matrix(0.6006 0 0 -0.6064 8.7261 2.3375)">
		<stop  offset="0" style="stop-color:#FFD43B"/>
		<stop  offset="1" style="stop-color:#FFE873"/>
	</linearGradient>
	<path fill="url(#SVGID_2_)" d="M96.092,34.598v12.713c0,9.855-8.355,18.15-17.884,18.15H49.613
		c-7.833,0-14.314,6.704-14.314,14.549v27.26c0,7.758,6.747,12.322,14.314,14.548c9.062,2.665,17.752,3.146,28.595,0
		c7.207-2.087,14.313-6.286,14.313-14.548v-10.91H63.927v-3.638h28.594h14.314c8.32,0,11.421-5.804,14.314-14.515
		c2.988-8.967,2.861-17.591,0-29.095c-2.057-8.283-5.983-14.515-14.314-14.515H96.092z M80.01,103.633
		c2.968,0,5.372,2.432,5.372,5.438c0,3.018-2.404,5.472-5.372,5.472c-2.957,0-5.372-2.454-5.372-5.472
		C74.638,106.064,77.053,103.633,80.01,103.633z"/>
</g>
</svg>
