<?xml version="1.0" encoding="utf-8"?>
<!-- Generator: Adobe Illustrator 16.0.0, SVG Export Plug-In . SVG Version: 6.00 Build 0)  -->
<!DOCTYPE svg PUBLIC "-//W3C//DTD SVG 1.1//EN" "http://www.w3.org/Graphics/SVG/1.1/DTD/svg11.dtd">
<svg version="1.1" id="Layer_1" xmlns="http://www.w3.org/2000/svg" xmlns:xlink="http://www.w3.org/1999/xlink" x="0px" y="0px"
	 width="170.12px" height="170.119px" viewBox="171.324 214.953 170.12 170.119"
	 enable-background="new 171.324 214.953 170.12 170.119" xml:space="preserve">
<g>
	<path fill="#A41E11" d="M334.775,339.536c-9.078,4.731-56.107,24.067-66.119,29.287c-10.012,5.221-15.574,5.17-23.482,1.389
		c-7.909-3.781-57.955-23.996-66.971-28.305c-4.506-2.154-6.875-3.972-6.875-5.689c0-1.713,0-17.193,0-17.193
		s65.153-14.186,75.672-17.957c10.519-3.773,14.168-3.91,23.119-0.631s62.473,12.936,71.32,16.176c0,0-0.006,15.355-0.006,16.951
		C341.435,335.262,339.394,337.127,334.775,339.536z"/>
	<path fill="#D82C20" d="M334.775,322.336c-9.078,4.729-56.107,24.067-66.119,29.287c-10.012,5.221-15.574,5.17-23.482,1.389
		c-7.91-3.779-57.955-23.998-66.971-28.305c-9.015-4.31-9.203-7.275-0.348-10.742c8.855-3.469,58.626-22.996,69.146-26.771
		c10.518-3.772,14.166-3.909,23.117-0.63c8.952,3.279,55.699,21.887,64.545,25.126C343.511,314.934,343.851,317.604,334.775,322.336
		z"/>
	<path fill="#A41E11" d="M334.775,311.497c-9.078,4.731-56.107,24.067-66.119,29.289c-10.012,5.219-15.574,5.168-23.482,1.387
		c-7.91-3.779-57.955-23.996-66.971-28.305c-4.506-2.154-6.875-3.97-6.875-5.687c0-1.714,0-17.198,0-17.198
		s65.153-14.184,75.672-17.957s14.168-3.91,23.119-0.631s62.473,12.934,71.32,16.175c0,0-0.006,15.356-0.006,16.953
		C341.435,307.223,339.394,309.088,334.775,311.497z"/>
	<path fill="#D82C20" d="M334.775,294.297c-9.078,4.731-56.107,24.068-66.119,29.289c-10.012,5.219-15.574,5.168-23.482,1.387
		c-7.91-3.779-57.955-23.996-66.971-28.305c-9.015-4.309-9.203-7.274-0.348-10.744c8.855-3.467,58.626-22.994,69.146-26.768
		c10.518-3.773,14.166-3.91,23.117-0.631c8.952,3.279,55.699,21.885,64.545,25.126C343.511,286.894,343.851,289.565,334.775,294.297
		z"/>
	<path fill="#A41E11" d="M334.775,282.418c-9.078,4.732-56.107,24.07-66.119,29.291c-10.012,5.219-15.574,5.168-23.482,1.387
		c-7.91-3.779-57.955-23.997-66.971-28.305c-4.506-2.154-6.875-3.971-6.875-5.687c0-1.714,0-17.196,0-17.196
		s65.153-14.184,75.672-17.957s14.168-3.91,23.119-0.631s62.473,12.934,71.32,16.176c0,0-0.006,15.356-0.006,16.951
		C341.435,278.146,339.394,280.01,334.775,282.418z"/>
	<path fill="#D82C20" d="M334.775,265.219c-9.078,4.732-56.107,24.07-66.119,29.289c-10.012,5.22-15.574,5.168-23.482,1.389
		c-7.909-3.779-57.955-23.997-66.971-28.305c-9.015-4.309-9.203-7.275-0.348-10.743s58.626-22.994,69.146-26.769
		c10.518-3.773,14.166-3.91,23.117-0.629c8.952,3.278,55.699,21.885,64.545,25.125C343.511,257.817,343.851,260.489,334.775,265.219
		z"/>
	<polygon fill="#FFFFFF" points="259.055,240.78 270.272,237.111 267.236,244.379 278.667,248.657 263.933,250.186 260.63,258.129 
		255.296,249.269 238.277,247.741 250.978,243.157 247.167,236.127 	"/>
	<polygon fill="#FFFFFF" points="259.753,287.181 232.236,275.771 271.656,269.719 	"/>
	<ellipse fill="#FFFFFF" cx="221.612" cy="261.242" rx="21.069" ry="8.167"/>
</g>
<polygon fill="#7A0C00" points="296.093,250.827 319.421,260.053 296.107,269.256 "/>
<polygon fill="#AD2115" points="296.093,250.827 296.107,269.256 293.582,270.252 270.281,261.036 "/>
</svg>
