<?xml version="1.0" encoding="utf-8"?>
<!-- Generator: Adobe Illustrator 16.0.0, SVG Export Plug-In . SVG Version: 6.00 Build 0)  -->
<!DOCTYPE svg PUBLIC "-//W3C//DTD SVG 1.1//EN" "http://www.w3.org/Graphics/SVG/1.1/DTD/svg11.dtd">
<svg version="1.1" id="Layer_1" xmlns="http://www.w3.org/2000/svg" xmlns:xlink="http://www.w3.org/1999/xlink" x="0px" y="0px"
	 width="100px" height="100px" viewBox="0 0 100 100" enable-background="new 0 0 100 100" xml:space="preserve">
<g>
	<path fill="#010101" d="M96.009,30.536C90.736,18.244,81.777,9.305,69.383,4.019c-6.195-2.642-12.63-3.992-19.41-3.992
		c-6.779,0-13.221,1.337-19.409,3.992C18.272,9.291,9.218,18.225,3.937,30.536C1.29,36.704,0,43.166,0,49.945
		c0,6.781,1.29,13.296,3.937,19.465c5.282,12.312,14.335,21.299,26.627,26.572c6.188,2.655,12.63,3.99,19.409,3.99
		c6.78,0,13.215-1.35,19.41-3.99c12.395-5.287,21.354-14.282,26.626-26.572C98.663,63.221,100,56.726,100,49.945
		C100,43.166,98.663,36.725,96.009,30.536z M33.351,9.322c-4.319,5.467-7.489,12.411-9.513,20.831H10.771
		C15.582,20.804,23.675,13.313,33.351,9.322z M6.069,49.945c0-4.756,0.765-9.349,2.242-13.777h14.325
		c-0.71,4.647-1.039,9.24-1.039,13.777c0,4.484,0.329,9.022,1.039,13.669H8.201C6.779,59.186,6.069,54.593,6.069,49.945z
		 M10.771,69.628h13.067c2.024,8.583,5.194,15.637,9.513,21.05C23.51,86.577,15.417,79.087,10.771,69.628z M46.911,93.412
		c-3.554-1.038-6.889-3.663-9.896-7.927c-3.007-4.266-5.304-9.568-6.889-15.856h16.785V93.412z M46.911,63.614H28.759
		c-0.711-4.866-1.094-9.405-1.094-13.669c0-4.592,0.382-9.185,1.204-13.777h18.042V63.614L46.911,63.614z M46.911,30.153H30.126
		c1.695-6.233,4.004-11.473,6.999-15.692c3.02-4.256,6.232-6.889,9.787-7.873L46.911,30.153L46.911,30.153z M89.229,30.153H76.162
		c-2.022-8.42-5.194-15.364-9.514-20.831C76.327,13.313,84.418,20.804,89.229,30.153z M53.089,6.588
		c3.554,0.984,6.766,3.617,9.786,7.873c2.995,4.219,5.304,9.459,6.999,15.692H53.089V6.588z M53.089,36.167h18.042
		c0.821,4.592,1.204,9.186,1.204,13.777c0,4.265-0.383,8.803-1.094,13.669H53.089V36.167z M53.089,93.412V69.628h16.785
		c-1.64,6.288-3.967,11.569-6.944,15.856C59.947,89.782,56.698,92.428,53.089,93.412z M66.649,90.679
		c4.319-5.414,7.491-12.467,9.513-21.05h13.067C84.583,79.087,76.49,86.577,66.649,90.679z M91.799,63.614H77.365
		c0.711-4.647,1.039-9.186,1.039-13.669c0-4.537-0.328-9.13-1.039-13.777h14.325c1.477,4.429,2.242,9.021,2.242,13.777
		C93.931,54.593,93.221,59.186,91.799,63.614z"/>
</g>
</svg>
