<?xml version="1.0" encoding="utf-8"?>
<!-- Generator: Adobe Illustrator 16.0.0, SVG Export Plug-In . SVG Version: 6.00 Build 0)  -->
<!DOCTYPE svg PUBLIC "-//W3C//DTD SVG 1.1//EN" "http://www.w3.org/Graphics/SVG/1.1/DTD/svg11.dtd">
<svg version="1.1" id="Layer_1" xmlns="http://www.w3.org/2000/svg" xmlns:xlink="http://www.w3.org/1999/xlink" x="0px" y="0px"
	 width="484.74px" height="484.74px" viewBox="0 0 484.74 484.74" enable-background="new 0 0 484.74 484.74" xml:space="preserve">
<g>
	<g>
		<path fill="#010101" d="M131.013,438.373h85.624v-87.558h51.468v87.558h85.623V46.367H131.013V438.373z M257.994,92.565h51.466
			v51.467h-51.466V92.565z M257.994,175.28h51.466v51.467h-51.466V175.28z M257.994,257.993h51.466v51.467h-51.466V257.993z
			 M175.28,92.565h51.466v51.467H175.28V92.565z M175.28,175.28h51.466v51.467H175.28V175.28z M175.28,257.993h51.466v51.467H175.28
			V257.993z"/>
		<path fill="#010101" d="M373.72,81.483v277.178h33.065v79.712h77.954V81.483H373.72z M444.438,321.01h-46.857v-46.856h46.855
			v46.856H444.438z M444.438,245.704h-46.857v-46.855h46.855v46.855H444.438z M444.438,170.399h-46.857v-46.855h46.855v46.855
			H444.438z"/>
		<path fill="#010101" d="M0.001,438.373h77.954v-79.712h33.065V81.483H0.001V438.373z M40.303,123.544h46.856v46.855H40.303
			V123.544z M40.303,198.849h46.856v46.855H40.303V198.849z M40.303,274.151h46.856v46.855H40.303V274.151z"/>
	</g>
</g>
</svg>
