<?xml version="1.0" encoding="utf-8"?>
<!-- Generator: Adobe Illustrator 16.0.0, SVG Export Plug-In . SVG Version: 6.00 Build 0)  -->
<!DOCTYPE svg PUBLIC "-//W3C//DTD SVG 1.1//EN" "http://www.w3.org/Graphics/SVG/1.1/DTD/svg11.dtd">
<svg version="1.1" id="Layer_1" xmlns="http://www.w3.org/2000/svg" xmlns:xlink="http://www.w3.org/1999/xlink" x="0px" y="0px"
	 width="100px" height="100px" viewBox="0 0 100 100" enable-background="new 0 0 100 100" xml:space="preserve">
<g>
	<path fill="#FFFFFF" d="M96.04,41.294c-2.641-6.176-6.194-11.495-10.658-15.96c-4.464-4.464-9.784-8.017-15.961-10.658
		c-6.176-2.641-12.648-3.962-19.42-3.962s-13.245,1.321-19.42,3.962c-6.176,2.643-11.496,6.194-15.959,10.658
		c-4.465,4.465-8.018,9.785-10.659,15.96C1.321,47.47,0,53.943,0,60.714c0,9.747,2.623,18.732,7.868,26.954
		c0.707,1.079,1.711,1.618,3.013,1.618h78.237c1.302,0,2.307-0.54,3.013-1.618C97.377,79.409,100,70.424,100,60.714
		C100,53.943,98.68,47.47,96.04,41.294z M44.95,19.949c1.396-1.395,3.079-2.093,5.05-2.093c1.972,0,3.655,0.698,5.05,2.093
		c1.395,1.395,2.093,3.079,2.093,5.05s-0.698,3.655-2.093,5.05c-1.396,1.395-3.078,2.093-5.05,2.093
		c-1.972,0-3.655-0.698-5.05-2.093s-2.093-3.078-2.093-5.05S43.554,21.344,44.95,19.949z M19.336,65.764
		c-1.396,1.395-3.079,2.094-5.051,2.094c-1.971,0-3.655-0.7-5.05-2.094c-1.396-1.394-2.093-3.078-2.093-5.05
		c0-1.972,0.697-3.654,2.093-5.05c1.395-1.396,3.079-2.093,5.05-2.093c1.972,0,3.656,0.697,5.051,2.093s2.093,3.078,2.093,5.05
		C21.429,62.686,20.731,64.369,19.336,65.764z M30.051,40.764c-1.396,1.395-3.079,2.093-5.051,2.093
		c-1.972,0-3.655-0.699-5.051-2.093c-1.395-1.395-2.092-3.078-2.092-5.05c0-1.972,0.697-3.655,2.092-5.05
		c1.396-1.396,3.079-2.093,5.051-2.093c1.972,0,3.656,0.698,5.051,2.093c1.395,1.396,2.093,3.078,2.093,5.05
		C32.144,37.686,31.445,39.369,30.051,40.764z M61.663,41.239l-5.637,21.316c1.861,1.264,3.201,2.957,4.02,5.078
		c0.817,2.121,0.93,4.297,0.334,6.529c-0.744,2.865-2.4,5.042-4.967,6.529s-5.282,1.861-8.148,1.116
		c-2.864-0.744-5.041-2.399-6.528-4.967c-1.488-2.567-1.86-5.282-1.116-8.148c0.595-2.231,1.767-4.063,3.516-5.495
		c1.748-1.434,3.738-2.242,5.971-2.428l5.636-21.317c0.26-0.967,0.818-1.703,1.673-2.205c0.856-0.501,1.749-0.622,2.679-0.362
		c0.931,0.261,1.646,0.809,2.148,1.646C61.747,39.37,61.886,40.271,61.663,41.239z M69.95,40.764
		c-1.395-1.395-2.093-3.078-2.093-5.05c0-1.972,0.698-3.655,2.093-5.05c1.396-1.395,3.079-2.093,5.051-2.093
		c1.972,0,3.654,0.698,5.05,2.093c1.395,1.395,2.093,3.078,2.093,5.05c0,1.971-0.698,3.655-2.093,5.05
		c-1.396,1.395-3.078,2.093-5.05,2.093C73.028,42.857,71.346,42.159,69.95,40.764z M90.764,65.764
		c-1.395,1.395-3.078,2.094-5.05,2.094c-1.972,0-3.655-0.7-5.05-2.094c-1.396-1.394-2.093-3.078-2.093-5.05
		c0-1.972,0.697-3.654,2.093-5.05c1.395-1.396,3.078-2.093,5.05-2.093c1.972,0,3.655,0.697,5.05,2.093
		c1.396,1.396,2.093,3.078,2.093,5.05C92.857,62.686,92.16,64.369,90.764,65.764z"/>
</g>
</svg>
