<?xml version="1.0" encoding="utf-8"?>
<!-- Generator: Adobe Illustrator 16.0.0, SVG Export Plug-In . SVG Version: 6.00 Build 0)  -->
<!DOCTYPE svg PUBLIC "-//W3C//DTD SVG 1.1//EN" "http://www.w3.org/Graphics/SVG/1.1/DTD/svg11.dtd">
<svg version="1.1" id="Layer_1" xmlns="http://www.w3.org/2000/svg" xmlns:xlink="http://www.w3.org/1999/xlink" x="0px" y="0px"
	 width="512.518px" height="356px" viewBox="46.506 0 512.518 356" enable-background="new 46.506 0 512.518 356"
	 xml:space="preserve">
<g id="Vector_Smart_Object_xA0_Image_1_" opacity="0.749">
	<g>
		<polygon fill="#EEEEEE" points="303.245,0 171.245,83.765 171.245,272.234 303.245,356 435.245,272.234 435.245,83.765 		"/>
		<polygon fill="#DDDDDD" points="204.245,104.706 303.245,41.882 303.245,0 171.245,83.765 		"/>
		<polygon fill="#EEEEEE" points="303.245,41.882 204.245,104.706 303.245,167.529 		"/>
		<polygon fill="#EEEEEE" points="303.245,0 303.245,41.882 402.245,104.706 435.245,83.765 		"/>
		<polygon fill="#FFFFFF" points="303.245,167.529 303.245,41.882 402.245,104.706 402.245,240.824 		"/>
		<polygon fill="#DDDDDD" points="204.245,104.706 204.245,240.824 303.245,303.646 303.245,167.529 		"/>
		<polygon fill="#CCCCCC" points="303.245,167.529 303.245,303.646 402.245,240.824 		"/>
		<polygon fill="#DDDDDD" points="303.245,303.646 303.245,356 435.245,272.234 435.245,83.765 402.245,104.706 402.245,240.824 		
			"/>
		<polygon fill="#BBBBBB" points="303.245,167.529 402.245,104.706 402.245,240.824 		"/>
		<polygon fill="#DDDDDD" points="204.245,104.706 303.245,41.882 303.245,0 171.245,83.765 		"/>
		<polygon fill="#EEEEEE" points="303.245,41.882 204.245,104.706 303.245,167.529 		"/>
		<polygon fill="#EEEEEE" points="303.245,0 303.245,41.882 402.245,104.706 435.245,83.765 		"/>
		<polygon fill="#DDDDDD" points="204.245,104.706 204.245,240.824 303.245,303.646 303.245,167.529 		"/>
		<polygon fill="#CCCCCC" points="303.245,167.529 303.245,303.646 402.245,240.824 		"/>
		<polygon fill="#DDDDDD" points="303.245,303.646 303.245,356 435.245,272.234 435.245,83.765 402.245,104.706 402.245,240.824 		
			"/>
		<polygon fill="#BBBBBB" points="303.245,167.529 402.245,104.706 402.245,240.824 		"/>
	</g>
</g>
<g id="crystal">
	<g>
		<path fill="#666666" d="M124.152,195.822c-1.763,1.908-3.746,3.77-5.95,5.58c-2.204,1.812-4.396,3.5-6.574,5.063
			c-2.18,1.567-4.237,2.964-6.171,4.187c-1.935,1.225-3.489,2.203-4.665,2.938c-0.931,0.587-2.093,1.371-3.489,2.35
			c-1.396,0.98-2.963,2.011-4.701,3.084c-1.739,1.078-3.576,2.166-5.509,3.27c-1.936,1.104-3.857,2.045-5.767,2.827
			c-1.91,0.78-3.783,1.346-5.62,1.688c-1.836,0.342-3.515,0.342-5.032,0c-1.91-0.439-4.003-1.211-6.281-2.312
			c-2.277-1.104-4.347-2.287-6.207-3.562c-2.057-1.42-3.833-2.718-5.326-3.893c-1.495-1.175-2.706-2.386-3.636-3.635
			c-0.93-1.248-1.616-2.606-2.057-4.075c-0.44-1.468-0.661-3.206-0.661-5.213c0-4.209,0.417-8.138,1.249-11.784
			c0.833-3.646,2.057-7.122,3.673-10.426c1.616-3.305,3.611-6.448,5.987-9.435c2.375-2.985,5.105-5.922,8.191-8.811
			c1.469-1.37,3.183-2.838,5.142-4.405c1.958-1.566,4.027-3.022,6.207-4.369c2.179-1.346,4.395-2.46,6.648-3.341
			c2.252-0.881,4.408-1.322,6.465-1.322c2.398,0,4.566,0.453,6.501,1.358c1.934,0.906,3.574,2.129,4.922,3.671
			c1.346,1.542,2.375,3.317,3.085,5.323c0.709,2.008,1.065,4.112,1.065,6.314c0,2.154-0.294,4.051-0.882,5.69
			c-0.587,1.641-1.384,3.157-2.387,4.552c-1.004,1.395-2.156,2.729-3.453,4.001c-1.298,1.273-2.657,2.644-4.077,4.112
			c-0.686-0.098-1.188-0.378-1.506-0.844c-0.319-0.465-0.649-0.942-0.992-1.432l-7.419-10.5c-2.008,1.028-3.93,2.436-5.766,4.222
			c-1.836,1.788-3.465,3.746-4.885,5.875c-1.421,2.131-2.56,4.367-3.416,6.72c-0.857,2.351-1.285,4.603-1.285,6.755
			c0,1.126,0.061,2.301,0.184,3.521c0.122,1.227,0.331,2.426,0.625,3.601c0.293,1.175,0.685,2.289,1.175,3.341
			c0.489,1.055,1.102,1.973,1.836,2.753c2.645-0.78,5.362-1.698,8.154-2.753c2.792-1.052,5.925-2.482,9.403-4.295
			c3.477-1.812,7.456-4.136,11.937-6.977c4.481-2.838,9.708-6.461,15.684-10.864c0.685-0.245,1.396-0.394,2.13-0.44
			c0.734-0.049,1.432-0.023,2.093,0.073s1.236,0.246,1.727,0.438c0.489,0.195,0.832,0.439,1.028,0.733
			c0.489,0.687,0.832,1.468,1.028,2.349c0.195,0.883,0.245,1.802,0.147,2.754c-0.099,0.955-0.356,1.908-0.771,2.863
			C125.535,194.096,124.935,194.99,124.152,195.822z"/>
		<path fill="#666666" d="M117.246,186.497c0.294-0.832,0.796-1.677,1.506-2.533c0.709-0.856,1.31-1.651,1.8-2.386
			c0.489-0.783,0.845-1.787,1.065-3.012c0.221-1.225,0.379-2.568,0.478-4.04c0.098-1.468,0.171-2.974,0.221-4.515
			c0.048-1.542,0.146-3.011,0.293-4.406s0.355-2.654,0.625-3.781c0.269-1.125,0.698-1.982,1.286-2.569
			c0.881-0.294,1.689-0.441,2.424-0.441c1.077,0,1.995,0.27,2.755,0.808c0.759,0.54,1.53,1.138,2.314,1.799
			c0.783,0.661,1.616,1.261,2.498,1.799c0.882,0.54,1.983,0.808,3.306,0.808c4.603,0,9.072-0.501,13.406-1.505
			c4.334-1.003,8.362-2.68,12.084-5.029c2.057-1.272,4.162-2.802,6.317-4.589c2.155-1.787,4.162-3.462,6.024-5.03
			c0.391-0.293,0.845-0.501,1.359-0.624c0.514-0.122,0.966-0.257,1.359-0.404c0.832,0.54,1.665,1.347,2.498,2.423
			c0.832,1.078,1.567,2.252,2.204,3.524c0.636,1.273,1.15,2.521,1.542,3.745c0.391,1.224,0.587,2.252,0.587,3.083
			c0,0.881-0.613,1.494-1.836,1.836c-1.175,0.392-2.424,1.187-3.746,2.386c-1.322,1.2-2.682,2.656-4.077,4.368
			c-1.396,1.714-2.792,3.574-4.187,5.581c-1.396,2.007-2.731,4.001-4.003,5.981c-1.274,1.982-2.461,3.883-3.563,5.69
			c-1.102,1.812-2.045,3.329-2.828,4.552c-1.862,2.938-3.453,5.961-4.775,9.067c-1.322,3.108-1.983,6.278-1.983,9.508
			c0,2.351,0.195,3.979,0.588,4.884c0.391,0.905,0.832,1.357,1.322,1.357c1.126,0,2.558-0.479,4.297-1.432
			c1.738-0.955,3.624-2.203,5.656-3.744c2.032-1.543,4.138-3.279,6.317-5.213c2.179-1.936,4.285-3.854,6.317-5.764
			c2.032-1.91,3.905-3.731,5.62-5.473c1.714-1.734,3.109-3.191,4.187-4.369c1.665-1.762,2.987-3.268,3.967-4.516
			c0.979-1.248,1.567-1.973,1.763-2.166c0.588-0.588,1.31-0.783,2.167-0.588c0.856,0.195,1.701,0.574,2.534,1.139
			s1.543,1.2,2.13,1.909c0.588,0.71,0.882,1.31,0.882,1.799c0,0.881-0.184,1.823-0.551,2.827s-0.857,2.066-1.469,3.191
			c-0.613,1.127-1.311,2.289-2.093,3.488c-0.784,1.2-1.592,2.387-2.424,3.562c-1.862,2.643-3.722,5.444-5.583,8.406
			c-1.861,2.961-3.955,5.937-6.281,8.92c-2.326,2.985-4.971,5.898-7.934,8.737c-2.963,2.838-6.477,5.456-10.541,7.854
			c-2.303-0.588-4.677-1.348-7.125-2.275c-2.45-0.932-4.861-1.971-7.236-3.12c-2.376-1.147-4.677-2.397-6.905-3.743
			c-2.229-1.348-4.273-2.729-6.134-4.146c-3.232-2.447-4.848-5.773-4.848-9.986c0-2.79,0.489-5.787,1.469-8.992
			c0.979-3.207,2.154-6.326,3.526-9.361c1.371-3.034,2.792-5.824,4.261-8.369c1.469-2.545,2.668-4.553,3.6-6.021
			c-0.931,0.587-1.91,1.016-2.938,1.285c-1.028,0.271-2.057,0.404-3.085,0.404c-1.274,0-2.473-0.195-3.599-0.587
			c-1.127-0.391-2.033-0.955-2.718-1.688c-0.294,1.764-0.821,3.672-1.579,5.729c-0.76,2.056-1.678,3.953-2.755,5.688
			c-1.078,1.738-2.277,3.184-3.6,4.332c-1.322,1.15-2.67,1.727-4.04,1.727c-0.735,0-1.274-0.243-1.616-0.733L117.246,186.497z"/>
		<path fill="#666666" d="M242.492,202.209c1.175-0.881,2.755-2.166,4.738-3.854c1.983-1.689,4.088-3.524,6.317-5.508
			c2.228-1.981,4.456-4,6.686-6.059c2.229-2.059,4.176-3.895,5.841-5.507l7.64,7.854c-1.566,2.447-3.488,4.918-5.768,7.416
			c-2.276,2.495-4.701,4.932-7.271,7.305c-2.57,2.375-5.191,4.65-7.86,6.828c-2.669,2.181-5.179,4.14-7.529,5.875
			c-2.351,1.737-4.433,3.229-6.244,4.479c-1.812,1.248-3.134,2.144-3.967,2.683c-0.784,1.271-1.775,3.01-2.975,5.213
			c-1.201,2.201-2.596,4.674-4.187,7.414c-1.592,2.74-3.368,5.629-5.326,8.664c-1.959,3.033-4.09,6.045-6.391,9.03
			c-2.302,2.983-4.75,5.837-7.346,8.556c-2.596,2.715-5.338,5.112-8.228,7.193c-2.89,2.08-5.902,3.73-9.035,4.956
			c-3.134,1.224-6.391,1.835-9.77,1.835c-2.792,0-5.484-0.293-8.081-0.881c-2.595-0.588-4.885-1.471-6.869-2.645
			c-1.984-1.177-3.574-2.633-4.775-4.369c-1.199-1.736-1.799-3.779-1.799-6.131c0-2.447,0.649-4.884,1.946-7.307
			c1.298-2.423,3.049-4.82,5.252-7.193c2.204-2.375,4.738-4.677,7.603-6.9c2.865-2.229,5.865-4.369,8.999-6.426
			c3.135-2.058,6.293-4.016,9.477-5.875c3.183-1.858,6.194-3.584,9.035-5.176c2.84-1.591,5.399-3.021,7.677-4.296
			c2.277-1.271,4.051-2.372,5.326-3.304c-3.037,1.225-5.682,2.104-7.934,2.645c-2.253,0.539-4.261,0.809-6.024,0.809
			c-1.568,0-3.221-0.294-4.958-0.883c-1.739-0.588-3.355-1.418-4.848-2.495c-1.493-1.076-2.729-2.397-3.709-3.966
			c-0.979-1.565-1.469-3.354-1.469-5.359c0-1.811,0.184-3.902,0.551-6.275c0.367-2.375,0.955-4.871,1.763-7.49
			c0.808-2.616,1.812-5.271,3.012-7.965c1.199-2.69,2.619-5.263,4.261-7.708c1.64-2.447,3.526-4.674,5.656-6.682
			c2.13-2.006,4.492-3.671,7.089-4.993l12.341,11.38c-2.008,1.909-3.808,4.185-5.399,6.828c-1.592,2.645-2.938,5.323-4.041,8.04
			c-1.102,2.718-1.946,5.3-2.534,7.746c-0.588,2.448-0.881,4.455-0.881,6.021c0,1.957,0.416,2.938,1.249,2.938
			c1.371,0,2.926-0.686,4.665-2.057c1.738-1.369,3.55-3.156,5.436-5.359c1.885-2.203,3.783-4.697,5.693-7.488
			c1.91-2.789,3.733-5.593,5.473-8.406c1.738-2.813,3.342-5.508,4.812-8.077c1.47-2.57,2.668-4.76,3.599-6.571
			c0.783-1.468,1.91-2.557,3.379-3.267c1.469-0.709,2.986-1.065,4.554-1.065c1.322,0,2.436,0.196,3.343,0.587
			c0.905,0.393,1.653,0.906,2.24,1.542c0.588,0.637,1.003,1.322,1.249,2.056c0.244,0.734,0.367,1.444,0.367,2.129
			c0,0.539-0.257,1.542-0.771,3.01c-0.514,1.468-1.175,3.193-1.983,5.176s-1.702,4.087-2.681,6.314
			c-0.98,2.228-1.91,4.344-2.792,6.351c-0.881,2.007-1.678,3.793-2.387,5.36C243.214,200.473,242.736,201.574,242.492,202.209z
			 M181.227,263.884c0,0.343,0.294,0.515,0.881,0.515c0.441,0,1.004-0.107,1.69-0.33c0.686-0.221,1.432-0.514,2.24-0.881
			c0.808-0.365,1.629-0.809,2.461-1.319c0.833-0.517,1.616-1.063,2.351-1.652c2.498-2.056,4.823-4.062,6.979-6.021
			c2.155-1.959,4.188-4.002,6.097-6.131c1.91-2.129,3.747-4.396,5.509-6.791c1.763-2.398,3.501-5.065,5.216-8.004
			c-1.959,1.42-4.15,3.069-6.575,4.955c-2.424,1.885-4.874,3.844-7.346,5.875c-2.474,2.029-4.874,4.073-7.199,6.131
			c-2.325,2.057-4.407,3.978-6.244,5.765c-1.836,1.784-3.306,3.378-4.408,4.771C181.778,262.159,181.227,263.198,181.227,263.884z"
			/>
		<path fill="#666666" d="M249.102,197.73c1.715-1.812,3.282-3.401,4.701-4.771c1.421-1.37,2.755-2.631,4.003-3.781
			c1.248-1.146,2.448-2.24,3.6-3.268c1.15-1.028,2.338-2.117,3.562-3.268c1.224-1.148,2.521-2.41,3.894-3.781
			c1.371-1.369,2.89-2.96,4.556-4.771c2.646-2.838,5.117-5.8,7.419-8.884c2.303-3.083,4.285-6.412,5.95-9.985
			c0.782-1.664,1.26-3.389,1.433-5.176c0.172-1.786,0.317-3.572,0.44-5.36c0.122-1.786,0.317-3.548,0.587-5.286
			c0.27-1.737,0.895-3.389,1.874-4.956c0.099-0.048,0.271-0.073,0.515-0.073c0.782,0,1.836,0.367,3.158,1.101
			c1.323,0.734,2.755,1.689,4.297,2.863c1.542,1.175,3.109,2.497,4.701,3.965c1.59,1.469,3.049,2.913,4.372,4.332
			c1.322,1.42,2.424,2.742,3.305,3.965c0.883,1.224,1.396,2.203,1.543,2.937c0.05,0.246,0.086,0.477,0.111,0.697
			c0.021,0.22,0.035,0.453,0.035,0.698c0,1.224-0.135,2.545-0.402,3.965c-0.27,1.42-0.404,2.79-0.404,4.111
			c0,0.587,0.344,1.885,1.027,3.892c0.688,2.008,1.42,4.418,2.205,7.232c0.781,2.815,1.443,5.874,1.982,9.179
			c0.535,3.303,0.658,6.547,0.363,9.729l-0.955,2.35l3.232-4.258c0.93-0.782,1.775-1.493,2.535-2.129
			c0.758-0.638,1.543-1.322,2.35-2.058c0.812-0.732,1.701-1.564,2.686-2.496c0.979-0.928,2.178-2.055,3.6-3.377
			c0,0.146,0.33,0.613,0.992,1.396c0.66,0.784,1.395,1.628,2.203,2.533c0.808,0.903,1.525,1.735,2.168,2.496
			c0.635,0.76,0.93,1.138,0.881,1.138c-1.371,2.104-3,4.434-4.885,6.977c-1.891,2.547-4.02,5.115-6.395,7.709
			c-2.377,2.596-4.973,5.115-7.787,7.562c-2.812,2.448-5.84,4.614-9.068,6.498c-3.232,1.885-6.649,3.401-10.251,4.554
			c-3.6,1.15-7.334,1.726-11.201,1.726c-2.155,0-4.471-0.55-6.941-1.65c-2.475-1.103-4.886-2.532-7.236-4.296
			c-2.352-1.764-4.519-3.755-6.5-5.982c-1.983-2.228-3.588-4.49-4.812-6.791c-1.175,0.979-2.447,1.699-3.82,2.166
			c-1.371,0.465-2.375,0.695-3.012,0.695c-0.636,0-1.506-0.062-2.608-0.186c-1.102-0.12-2.179-0.365-3.232-0.732
			s-1.971-0.881-2.755-1.542c-0.783-0.661-1.175-1.505-1.175-2.532c0-0.686,0.246-1.42,0.734-2.203
			C247.167,199.812,247.976,198.857,249.102,197.73z M297.952,170.051c-1.274,2.889-2.792,5.58-4.556,8.076
			c-1.764,2.497-3.66,4.871-5.692,7.122c-2.033,2.252-4.163,4.381-6.392,6.388c-2.229,2.008-4.42,3.941-6.573,5.801
			c0.44,0.979,1.003,1.834,1.688,2.569c0.687,0.734,1.435,1.371,2.241,1.909c0.809,0.539,1.641,0.943,2.498,1.211
			c0.855,0.27,1.677,0.404,2.46,0.404c2.498,0,4.812-0.502,6.94-1.506c2.132-1.002,3.979-2.323,5.547-3.965
			c1.566-1.641,2.791-3.498,3.674-5.58c0.881-2.08,1.32-4.195,1.32-6.353c0-1.419-0.086-2.887-0.256-4.403
			c-0.172-1.519-0.394-2.984-0.662-4.407c-0.27-1.419-0.601-2.753-0.99-4.001C298.809,172.07,298.393,170.981,297.952,170.051z"/>
		<path fill="#666666" d="M399.397,157.055c-1.52,0.784-3.574,1.531-6.172,2.24c-2.596,0.71-5.275,1.371-8.043,1.982
			c-2.768,0.612-5.389,1.138-7.859,1.579c-2.475,0.44-4.371,0.783-5.693,1.028c-1.664,0.293-3.047,0.514-4.146,0.661
			c-1.104,0.147-2.021,0.282-2.758,0.404c-0.73,0.123-1.348,0.319-1.836,0.587c-0.486,0.27-0.969,0.661-1.434,1.175
			s-0.943,1.237-1.432,2.166c-0.49,0.93-1.104,2.129-1.837,3.598c-0.735,1.518-1.716,3.623-2.938,6.314
			c-1.225,2.691-2.424,5.605-3.6,8.736c-1.178,3.134-2.182,6.312-3.014,9.545c-0.834,3.229-1.248,6.145-1.248,8.738
			c0,1.125,0.1,2.178,0.293,3.154c0.195,0.979,0.539,1.835,1.029,2.57c1.519,0,3.354-0.44,5.51-1.322
			c2.154-0.881,4.48-2.064,6.979-3.562c2.496-1.49,5.066-3.219,7.713-5.176c2.645-1.957,5.188-4.014,7.639-6.168
			s4.729-4.332,6.832-6.535c2.105-2.203,3.869-4.28,5.289-6.238l9.697,5.945c-1.127,2.352-2.646,4.98-4.555,7.895
			c-1.91,2.913-4.055,5.852-6.43,8.812c-2.377,2.963-4.934,5.851-7.676,8.664c-2.744,2.813-5.51,5.312-8.301,7.487
			c-2.793,2.181-5.535,3.917-8.23,5.213c-2.689,1.3-5.188,1.923-7.488,1.872c-1.666-0.587-3.604-1.188-5.807-1.799
			c-2.205-0.612-4.494-1.311-6.869-2.092c-2.377-0.783-4.715-1.664-7.016-2.646c-2.303-0.979-4.359-2.129-6.17-3.451
			c-1.811-1.318-3.281-2.851-4.408-4.588c-1.125-1.736-1.688-3.707-1.688-5.91c0-6.168,0.932-12.604,2.791-19.311
			c1.857-6.707,4.727-13.167,8.596-19.383c-1.176,0.146-2.607,0.367-4.299,0.661c-1.689,0.293-3.488,0.6-5.398,0.918
			c-1.91,0.319-3.832,0.637-5.766,0.954c-1.938,0.319-3.748,0.587-5.439,0.808c-1.688,0.221-3.17,0.367-4.439,0.441
			c-1.273,0.073-2.154,0.012-2.646-0.184c-1.811-0.587-2.728-1.26-2.754-2.019c-0.023-0.758,0.527-1.542,1.653-2.35
			c1.126-0.808,2.669-1.615,4.626-2.423c1.959-0.808,4.041-1.566,6.244-2.276c2.205-0.709,4.357-1.333,6.465-1.872
			c2.104-0.538,3.846-0.955,5.215-1.248c2.939-0.587,5.217-1.076,6.832-1.469c1.617-0.391,2.914-0.881,3.895-1.468
			c0.981-0.587,1.84-1.358,2.57-2.313c0.734-0.955,1.689-2.288,2.865-4.001c0.686-0.979,1.518-2.288,2.498-3.928
			c0.979-1.639,2.057-3.401,3.229-5.286c1.178-1.884,2.438-3.781,3.783-5.69c1.346-1.909,2.707-3.622,4.078-5.14
			c1.369-1.517,2.742-2.765,4.113-3.744s2.689-1.469,3.967-1.469c2.889,0,5.496,0.49,7.824,1.469
			c2.324,0.979,4.613,2.325,6.867,4.038c-2.646,3.72-5.391,7.514-8.229,11.38c-2.842,3.867-5.289,7.906-7.346,12.115
			c1.369-0.098,3.012-0.269,4.922-0.514c1.908-0.244,3.967-0.525,6.17-0.844c2.203-0.318,4.479-0.661,6.832-1.028
			c2.35-0.367,4.627-0.722,6.832-1.063c2.203-0.342,4.283-0.661,6.242-0.955c1.959-0.294,3.646-0.514,5.068-0.661L399.397,157.055z"
			/>
		<path fill="#666666" d="M389.04,217.555c-2.301-4.453-3.83-8.648-4.59-12.592c-0.76-3.939-0.896-7.636-0.404-11.087
			s1.521-6.668,3.084-9.655c1.568-2.984,3.527-5.751,5.877-8.297c3.574-3.818,7.189-6.84,10.836-9.067
			c3.647-2.227,7.357-3.524,11.129-3.892c3.771-0.367,7.664,0.306,11.684,2.019c4.016,1.714,8.178,4.578,12.484,8.59
			c0.539-0.587,1.211-1.101,2.021-1.542c0.809-0.441,1.664-0.698,2.572-0.771c0.9-0.074,1.848,0.086,2.824,0.477
			c0.98,0.393,1.908,1.102,2.791,2.129c1.566,1.861,2.77,3.366,3.604,4.516c0.832,1.15,1.285,2.276,1.355,3.377
			c0.072,1.102-0.242,2.325-0.951,3.672c-0.713,1.346-1.805,3.146-3.271,5.396c-2.693,4.014-4.91,7.845-6.646,11.49
			c-1.738,3.646-3.023,7.479-3.855,11.49c-0.393,1.812,0.109,2.645,1.506,2.496c1.396-0.146,3.342-0.955,5.84-2.424
			c2.496-1.469,5.361-3.438,8.596-5.91c3.23-2.472,6.514-5.113,9.844-7.931c3.33-2.813,6.523-5.642,9.586-8.479
			c3.061-2.838,5.668-5.385,7.824-7.637c1.469,1.52,2.521,3.023,3.156,4.518c0.639,1.494,0.979,2.926,1.029,4.295
			c0.047,1.371-0.11,2.619-0.479,3.744c-0.367,1.127-0.797,2.057-1.285,2.789c-3.918,5.875-8.51,11.111-13.773,15.713
			c-5.266,4.603-11.008,8.518-17.227,11.748c-2.6,1.369-5.252,2.41-7.975,3.119c-2.717,0.709-5.375,1.064-7.969,1.064
			c-2.598,0-5.082-0.344-7.457-1.027c-2.375-0.687-4.543-1.738-6.502-3.156c-1.174-0.881-1.994-1.787-2.459-2.717
			c-0.467-0.931-0.699-1.886-0.699-2.863c0-0.979,0.146-1.957,0.441-2.938c0.293-0.979,0.611-1.958,0.955-2.938
			c-3.479,2.303-7.09,3.893-10.836,4.771c-3.746,0.883-7.227,1.285-10.434,1.212c-3.207-0.071-5.926-0.478-8.15-1.212
			C390.887,219.316,389.53,218.484,389.04,217.555z M423.713,176.365c-0.883,0.196-1.947,0.771-3.195,1.726
			c-1.25,0.955-2.561,2.154-3.932,3.599c-1.371,1.443-2.729,3.047-4.076,4.811c-1.348,1.762-2.584,3.562-3.709,5.396
			c-1.129,1.836-2.094,3.636-2.9,5.396c-0.811,1.763-1.322,3.341-1.543,4.733c-0.223,1.396-0.1,2.549,0.365,3.451
			c0.465,0.906,1.385,1.407,2.756,1.506c3.035,0.246,5.912-0.392,8.633-1.907c2.717-1.519,5.227-3.524,7.527-6.021
			c2.303-2.494,4.396-5.285,6.281-8.369c1.885-3.082,3.488-6.043,4.812-8.886c0.242-0.538,0.049-1.188-0.59-1.944
			c-0.637-0.758-1.506-1.442-2.605-2.058c-1.104-0.612-2.363-1.076-3.783-1.395C426.333,176.084,424.985,176.071,423.713,176.365z"
			/>
		<path fill="#666666" d="M508.704,227.395c-1.275,0-2.877-0.367-4.812-1.103c-1.934-0.735-4.004-1.688-6.207-2.862
			c-2.199-1.176-4.402-2.473-6.607-3.893c-2.203-1.419-4.189-2.838-5.949-4.258c-1.764-1.42-3.207-2.741-4.334-3.965
			c-1.127-1.226-1.688-2.203-1.688-2.938c0-5.384,0.478-10.72,1.433-16.006c0.955-5.287,2.252-10.513,3.893-15.676
			c1.645-5.164,3.553-10.267,5.73-15.309c2.178-5.041,4.492-9.997,6.939-14.868c2.449-4.87,4.959-9.655,7.529-14.354
			c2.572-4.699,5.058-9.275,7.457-13.73c1.322-2.447,3.023-5.188,5.105-8.224c2.076-3.034,4.432-5.898,7.053-8.59
			c2.619-2.691,5.436-4.943,8.447-6.755c3.012-1.81,6.084-2.716,9.219-2.716c1.271,0,2.596,0.466,3.967,1.395
			c1.371,0.93,2.682,2.092,3.93,3.487c1.25,1.395,2.438,2.937,3.562,4.625c1.127,1.688,2.104,3.304,2.938,4.846
			c0.832,1.542,1.492,2.876,1.982,4.001c0.49,1.126,0.733,1.861,0.733,2.203c-0.099,5.14-1.091,10.462-2.976,15.969
			c-1.885,5.507-4.371,10.989-7.455,16.447c-3.086,5.458-6.637,10.781-10.651,15.969c-4.017,5.189-8.166,10.047-12.45,14.574
			c-4.285,4.527-8.561,8.616-12.818,12.261c-4.262,3.647-8.229,6.646-11.896,8.995c0,0.393,0.098,1.225,0.293,2.496
			c0.191,1.271,0.516,2.596,0.951,3.965c0.441,1.371,1.029,2.605,1.768,3.708c0.73,1.103,1.615,1.652,2.645,1.652
			c1.371,0,2.912-0.416,4.627-1.248c1.716-0.832,3.539-1.935,5.475-3.306c1.936-1.369,3.932-2.961,5.986-4.771
			c2.058-1.811,4.102-3.671,6.135-5.58c2.029-1.909,4.053-3.816,6.061-5.729c2.008-1.907,3.894-3.672,5.656-5.284
			c0.539-0.538,1.102-0.884,1.688-1.028s1.104-0.22,1.543-0.22c0.979,0,1.738,0.392,2.277,1.174c0.539,0.784,0.81,1.714,0.81,2.79
			c0,1.271-0.382,2.84-1.14,4.699c-0.76,1.859-1.789,3.892-3.086,6.094c-1.299,2.203-2.828,4.504-4.592,6.898
			c-1.763,2.399-3.648,4.75-5.656,7.052c-2.008,2.301-4.076,4.479-6.207,6.532c-2.131,2.057-4.223,3.867-6.28,5.436
			c-2.058,1.564-4.026,2.812-5.912,3.744C511.922,226.928,510.221,227.395,508.704,227.395z M507.454,174.75
			c1.812-1.125,3.697-2.557,5.656-4.295c1.959-1.737,3.881-3.646,5.768-5.727c1.885-2.08,3.734-4.283,5.547-6.608
			c1.812-2.324,3.516-4.663,5.105-7.012c1.59-2.35,3.021-4.637,4.297-6.865c1.271-2.227,2.324-4.27,3.158-6.131
			c1.074-2.397,2.252-4.894,3.523-7.489c1.273-2.594,2.475-5.176,3.602-7.746c1.127-2.57,2.094-5.114,2.9-7.636
			c0.811-2.521,1.285-4.907,1.434-7.159c-0.49,0.196-0.98,0.343-1.471,0.44c-0.488,0.099-0.855,0.319-1.102,0.661
			c-3.379,4.063-6.648,8.37-9.807,12.922c-3.16,4.552-6.311,9.472-9.439,14.758c-3.135,5.287-6.33,11.002-9.586,17.144
			c-3.258,6.144-6.674,12.788-10.248,19.934C506.842,174.481,507.061,174.75,507.454,174.75z"/>
	</g>
</g>
</svg>
