<?xml version="1.0" encoding="utf-8"?>
<!-- Generator: Adobe Illustrator 16.0.0, SVG Export Plug-In . SVG Version: 6.00 Build 0)  -->
<!DOCTYPE svg PUBLIC "-//W3C//DTD SVG 1.1//EN" "http://www.w3.org/Graphics/SVG/1.1/DTD/svg11.dtd">
<svg version="1.1" id="Layer_1" xmlns="http://www.w3.org/2000/svg" xmlns:xlink="http://www.w3.org/1999/xlink" x="0px" y="0px"
	 width="500px" height="500px" viewBox="0 0 500 500" enable-background="new 0 0 500 500" xml:space="preserve">
<rect fill="#333333" width="503.239" height="500"/>
<rect x="9" y="9" fill="none" width="500" height="500"/>
<text transform="matrix(1 0 0 1 9 20.71)" fill="#71C8F1" font-family="'CourierNewPS-BoldMT'" font-size="18.5">details:</text>
<text transform="matrix(1 0 0 1 9 42.9102)" fill="#71BF44" font-family="'CourierNewPS-BoldMT'" font-size="18.5">  </text>
<text transform="matrix(1 0 0 1 31.2031 42.9102)" fill="#71C8F1" font-family="'CourierNewPS-BoldMT'" font-size="18.5">company:</text>
<text transform="matrix(1 0 0 1 9 65.1104)" fill="#71BF44" font-family="'CourierNewPS-BoldMT'" font-size="18.5">    </text>
<text transform="matrix(1 0 0 1 53.4058 65.1104)" fill="#71C8F1" font-family="'CourierNewPS-BoldMT'" font-size="18.5">type:</text>
<text transform="matrix(1 0 0 1 118.9141 65.1104)" fill="#71BF44" font-family="'CourierNewPS-BoldMT'" font-size="18.5">string</text>
<text transform="matrix(1 0 0 1 9 87.3105)" fill="#71BF44" font-family="'CourierNewPS-BoldMT'" font-size="18.5">  </text>
<text transform="matrix(1 0 0 1 31.2031 87.3105)" fill="#71C8F1" font-family="'CourierNewPS-BoldMT'" font-size="18.5">created:</text>
<text transform="matrix(1 0 0 1 9 109.5107)" fill="#71BF44" font-family="'CourierNewPS-BoldMT'" font-size="18.5">    </text>
<text transform="matrix(1 0 0 1 53.4058 109.5107)" fill="#71C8F1" font-family="'CourierNewPS-BoldMT'" font-size="18.5">type:</text>
<text transform="matrix(1 0 0 1 118.9141 109.5107)" fill="#71BF44" font-family="'CourierNewPS-BoldMT'" font-size="18.5">created</text>
<text transform="matrix(1 0 0 1 9 131.71)" fill="#71BF44" font-family="'CourierNewPS-BoldMT'" font-size="18.5">  </text>
<text transform="matrix(1 0 0 1 31.2031 131.71)" fill="#71C8F1" font-family="'CourierNewPS-BoldMT'" font-size="18.5">deleted:</text>
<text transform="matrix(1 0 0 1 53.4058 153.9102)" fill="#71C8F1" font-family="'CourierNewPS-BoldMT'" font-size="18.5">default:</text>
<text transform="matrix(1 0 0 1 73 176.1104)" fill="#71C8F1" font-family="'CourierNewPS-BoldMT'" font-size="18.5">find:</text>
<text transform="matrix(1 0 0 1 141.1172 176.1104)" fill="#71BF44" font-family="'CourierNewPS-BoldMT'" font-size="18.5">null</text>
<text transform="matrix(1 0 0 1 9 198.3105)" fill="#71BF44" font-family="'CourierNewPS-BoldMT'" font-size="18.5">    </text>
<text transform="matrix(1 0 0 1 53.4058 198.3105)" fill="#71C8F1" font-family="'CourierNewPS-BoldMT'" font-size="18.5">type:</text>
<text transform="matrix(1 0 0 1 118.9141 198.3105)" fill="#71BF44" font-family="'CourierNewPS-BoldMT'" font-size="18.5">deleted</text>
<text transform="matrix(1 0 0 1 9 220.5107)" fill="#71BF44" font-family="'CourierNewPS-BoldMT'" font-size="18.5">  </text>
<text transform="matrix(1 0 0 1 31.2031 220.5107)" fill="#71C8F1" font-family="'CourierNewPS-BoldMT'" font-size="18.5">dob:</text>
<text transform="matrix(1 0 0 1 53.4058 242.71)" fill="#71C8F1" font-family="'CourierNewPS-BoldMT'" font-size="18.5">type:</text>
<text transform="matrix(1 0 0 1 118.9141 242.71)" fill="#71BF44" font-family="'CourierNewPS-BoldMT'" font-size="18.5">date</text>
<text transform="matrix(1 0 0 1 9 264.9102)" fill="#71BF44" font-family="'CourierNewPS-BoldMT'" font-size="18.5">  </text>
<text transform="matrix(1 0 0 1 31.2031 264.9102)" fill="#71C8F1" font-family="'CourierNewPS-BoldMT'" font-size="18.5">email:</text>
<text transform="matrix(1 0 0 1 53.4058 287.1104)" fill="#71C8F1" font-family="'CourierNewPS-BoldMT'" font-size="18.5">required:</text>
<text transform="matrix(1 0 0 1 163.3198 287.1104)" fill="#71BF44" font-family="'CourierNewPS-BoldMT'" font-size="18.5">true</text>
<text transform="matrix(1 0 0 1 9 309.3105)" fill="#71BF44" font-family="'CourierNewPS-BoldMT'" font-size="18.5">    </text>
<text transform="matrix(1 0 0 1 53.4058 309.3105)" fill="#71C8F1" font-family="'CourierNewPS-BoldMT'" font-size="18.5">type:</text>
<text transform="matrix(1 0 0 1 118.9141 309.3105)" fill="#71BF44" font-family="'CourierNewPS-BoldMT'" font-size="18.5">email</text>
<text transform="matrix(1 0 0 1 9 331.5107)" fill="#71BF44" font-family="'CourierNewPS-BoldMT'" font-size="18.5">    </text>
<text transform="matrix(1 0 0 1 53.4058 331.5107)" fill="#71C8F1" font-family="'CourierNewPS-BoldMT'" font-size="18.5">unique:</text>
<text transform="matrix(1 0 0 1 141.1172 331.5107)" fill="#71BF44" font-family="'CourierNewPS-BoldMT'" font-size="18.5">true</text>
<text transform="matrix(1 0 0 1 9 353.71)" fill="#71BF44" font-family="'CourierNewPS-BoldMT'" font-size="18.5">  </text>
<text transform="matrix(1 0 0 1 31.2031 353.71)" fill="#71C8F1" font-family="'CourierNewPS-BoldMT'" font-size="18.5">first_name:</text>
<text transform="matrix(1 0 0 1 9 375.9102)" fill="#71BF44" font-family="'CourierNewPS-BoldMT'" font-size="18.5">    </text>
<text transform="matrix(1 0 0 1 53.4058 375.9102)" fill="#71C8F1" font-family="'CourierNewPS-BoldMT'" font-size="18.5">type:</text>
<text transform="matrix(1 0 0 1 118.9141 375.9102)" fill="#71BF44" font-family="'CourierNewPS-BoldMT'" font-size="18.5">string</text>
<text transform="matrix(1 0 0 1 9 398.1104)" fill="#71BF44" font-family="'CourierNewPS-BoldMT'" font-size="18.5">  </text>
<text transform="matrix(1 0 0 1 31.2031 398.1104)" fill="#71C8F1" font-family="'CourierNewPS-BoldMT'" font-size="18.5">gender:</text>
<text transform="matrix(1 0 0 1 53.4058 420.3105)" fill="#71C8F1" font-family="'CourierNewPS-BoldMT'" font-size="18.5">options:</text>
<text transform="matrix(1 0 0 1 74.4058 442.5107)" fill="#71BF44" font-family="'CourierNewPS-BoldMT'" font-size="18.5">- female</text>
<text transform="matrix(1 0 0 1 74.4058 464.71)" fill="#71BF44" font-family="'CourierNewPS-BoldMT'" font-size="18.5">- male</text>
<text transform="matrix(1 0 0 1 9 486.9102)" fill="#71BF44" font-family="'CourierNewPS-BoldMT'" font-size="18.5">    </text>
<text transform="matrix(1 0 0 1 53.4058 486.9102)" fill="#71C8F1" font-family="'CourierNewPS-BoldMT'" font-size="18.5">type:</text>
<text transform="matrix(1 0 0 1 118.9141 486.9102)" fill="#71BF44" font-family="'CourierNewPS-BoldMT'" font-size="18.5">select</text>
</svg>
