<?xml version="1.0" encoding="utf-8"?>
<!-- Generator: Adobe Illustrator 16.0.0, SVG Export Plug-In . SVG Version: 6.00 Build 0)  -->
<!DOCTYPE svg PUBLIC "-//W3C//DTD SVG 1.1//EN" "http://www.w3.org/Graphics/SVG/1.1/DTD/svg11.dtd">
<svg version="1.1" id="Layer_1" xmlns="http://www.w3.org/2000/svg" xmlns:xlink="http://www.w3.org/1999/xlink" x="0px" y="0px"
	 width="100px" height="100px" viewBox="0 0 100 100" enable-background="new 0 0 100 100" xml:space="preserve">
<g>
	<path fill="#FFFFFF" d="M87.17,40.784c0.14-1.086,0.33-2.161,0.33-3.284c0-13.806-11.188-25-25-25
		c-8.167,0-15.351,3.974-19.91,10.034c-1.642-0.396-3.333-0.659-5.09-0.659c-12.085,0-21.875,9.79-21.875,21.875
		c0,0.342,0.085,0.647,0.098,0.989C6.659,47.406,0,55.694,0,65.625C0,77.71,9.79,87.5,21.875,87.5H75c13.812,0,25-11.188,25-25
		C100,53.137,94.794,45.068,87.17,40.784z M50,75L31.25,56.25h12.5V37.5h12.5v18.75h12.5L50,75z"/>
</g>
</svg>
