<?xml version="1.0" encoding="utf-8"?>
<!-- Generator: Adobe Illustrator 16.0.0, SVG Export Plug-In . SVG Version: 6.00 Build 0)  -->
<!DOCTYPE svg PUBLIC "-//W3C//DTD SVG 1.1//EN" "http://www.w3.org/Graphics/SVG/1.1/DTD/svg11.dtd">
<svg version="1.1" id="Layer_1" xmlns="http://www.w3.org/2000/svg" xmlns:xlink="http://www.w3.org/1999/xlink" x="0px" y="0px"
	 width="612px" height="612px" viewBox="0 0 612 612" enable-background="new 0 0 612 612" xml:space="preserve">
<g id="Settings">
	<g>
		<path fill="#010101" d="M610.078,272.022c-0.968-8.603-10.998-15.067-19.672-15.067c-28.043,0-52.927-16.466-63.362-41.93
			c-10.661-26.082-3.787-56.499,17.112-75.67c6.578-6.014,7.378-16.081,1.86-23.074c-14.353-18.226-30.665-34.689-48.477-48.957
			c-6.975-5.597-17.208-4.818-23.256,1.878c-18.239,20.2-51.002,27.708-76.318,17.144c-26.347-11.082-42.96-37.779-41.334-66.436
			c0.535-9.001-6.044-16.828-15.018-17.873c-22.857-2.644-45.915-2.726-68.841-0.182c-8.871,0.979-15.45,8.621-15.151,17.508
			c0.997,28.375-15.817,54.604-41.901,65.289c-25.014,10.217-57.546,2.773-75.749-17.247c-6.016-6.595-16.083-7.405-23.092-1.942
			c-18.339,14.389-35.019,30.866-49.503,48.941c-5.649,7.027-4.818,17.212,1.826,23.258c21.297,19.287,28.174,49.969,17.11,76.351
			c-10.563,25.153-36.682,41.363-66.582,41.363c-9.703-0.312-16.613,6.201-17.674,15.022c-2.692,22.989-2.724,46.414-0.132,69.59
			c0.961,8.639,11.296,15.047,20.065,15.047c26.646-0.681,52.229,15.816,62.961,41.933c10.698,26.081,3.821,56.48-17.11,75.667
			c-6.546,6.014-7.378,16.064-1.86,23.058c14.218,18.109,30.533,34.589,48.409,48.976c7.011,5.649,17.212,4.853,23.29-1.845
			c18.308-20.25,51.068-27.744,76.285-17.16c26.412,11.049,43.025,37.743,41.4,66.416c-0.531,9.006,6.08,16.846,15.017,17.875
			c11.693,1.364,23.457,2.045,35.251,2.045c11.196,0,22.396-0.615,33.592-1.86c8.874-0.979,15.447-8.621,15.149-17.524
			c-1.027-28.358,15.816-54.589,41.866-65.254c25.183-10.286,57.578-2.758,75.783,17.241c6.051,6.581,16.047,7.376,23.095,1.932
			c18.306-14.354,34.951-30.818,49.504-48.944c5.646-7.011,4.85-17.212-1.829-23.256c-21.297-19.286-28.208-49.973-17.144-76.336
			c10.401-24.818,35.55-41.482,62.599-41.482l3.785,0.099c8.773,0.712,16.846-6.046,17.909-15.002
			C612.637,318.602,612.669,295.198,610.078,272.022z M306.486,408.715c-56.286,0-102.068-45.783-102.068-102.068
			c0-56.282,45.783-102.067,102.068-102.067c56.282,0,102.065,45.785,102.065,102.067
			C408.552,362.932,362.769,408.715,306.486,408.715z"/>
	</g>
</g>
</svg>
