<?xml version="1.0" encoding="utf-8"?>
<!-- Generator: Adobe Illustrator 16.0.0, SVG Export Plug-In . SVG Version: 6.00 Build 0)  -->
<!DOCTYPE svg PUBLIC "-//W3C//DTD SVG 1.1//EN" "http://www.w3.org/Graphics/SVG/1.1/DTD/svg11.dtd">
<svg version="1.1" id="Layer_1" xmlns="http://www.w3.org/2000/svg" xmlns:xlink="http://www.w3.org/1999/xlink" x="0px" y="0px"
	 width="100px" height="100px" viewBox="0 0 100 100" enable-background="new 0 0 100 100" xml:space="preserve">
<g>
	<path d="M99.056,31.209l-20.55,19.813l-4.214-4.467l15.552-14.998c1.502-1.45,1.546-3.842,0.092-5.347L76.054,11.814
		c-0.701-0.725-1.65-1.14-2.66-1.155c-0.997-0.021-1.965,0.36-2.691,1.056L58.446,23.532l10.643,11.02
		c0.868,0.912,0.8,2.414-0.111,3.299c-0.641,0.613-1.576,0.804-2.37,0.545l-15.44-16.368l20.2-19.495
		c1.227-1.17,3.196-1.104,4.372,0.115l23.348,24.206C100.264,28.069,100.264,30.034,99.056,31.209z M29.295,89.956
		c-0.716,0.695-1.688,1.077-2.687,1.053c-1.005-0.019-1.962-0.432-2.66-1.148L10.063,75.458c-1.447-1.505-1.409-3.877,0.095-5.34
		l6.386,6.634c0.879,0.911,2.322,0.936,3.234,0.067c0.911-0.872,0.93-2.313,0.048-3.228l-6.376-6.646l1.7-1.642l6.384,6.637
		c0.874,0.905,2.318,0.936,3.235,0.064c0.909-0.883,0.93-2.319,0.048-3.236l-6.382-6.626l1.703-1.645l6.379,6.629
		c0.879,0.906,2.329,0.938,3.234,0.065c0.918-0.874,0.933-2.312,0.058-3.23l-6.386-6.63l1.698-1.641l6.387,6.624
		c0.876,0.917,2.32,0.941,3.234,0.063c0.338-0.329,0.558-0.738,0.647-1.161L23.569,48.669l-22.623,21.8
		c-1.21,1.176-1.21,3.147-0.04,4.36l23.348,24.218c1.174,1.218,3.147,1.285,4.359,0.102l22.281-21.48l-4.211-4.468L29.295,89.956z
		 M70.092,30.443c-2.943-3.043-2.857-7.917,0.197-10.853c3.037-2.942,7.908-2.854,10.846,0.192c2.944,3.049,2.84,7.924-0.197,10.853
		C77.908,33.578,73.036,33.49,70.092,30.443z M73.388,27.264c1.188,1.219,3.141,1.253,4.378,0.072
		c1.22-1.182,1.257-3.144,0.068-4.366c-1.183-1.224-3.142-1.266-4.366-0.083C72.242,24.071,72.205,26.032,73.388,27.264z
		 M85.791,66.583L65.695,85.518L20.91,37.998l20.102-18.935L85.791,66.583z M44.384,32.313c0.009-0.454-0.156-0.901-0.478-1.235
		l-2.188-2.315c-0.65-0.69-1.745-0.725-2.441-0.072l-1.185,1.114c-0.697,0.649-0.726,1.751-0.076,2.439l2.176,2.329
		c0.324,0.335,0.753,0.536,1.217,0.54c0.456,0.02,2.425-1.586,2.425-1.586C44.168,33.209,44.363,32.774,44.384,32.313z
		 M75.494,67.122c0.701-0.655,0.727-1.752,0.066-2.447L50.402,37.982c-0.316-0.34-0.744-0.536-1.211-0.545
		c-0.45-0.016-0.902,0.157-1.233,0.467l-1.188,1.122c-0.696,0.653-0.728,1.745-0.072,2.441l25.156,26.696
		c0.327,0.334,0.752,0.535,1.22,0.547c0.462,0.016,0.905-0.157,1.244-0.472L75.494,67.122z M18.876,35.833L38.971,16.89
		l-5.189-5.505L13.688,30.33L18.876,35.833z M4.731,20.814c-1.095-1.161-1.674-2.689-1.631-4.278c0.051-1.586,0.722-3.081,1.88-4.17
		L16.369,1.636c2.397-2.277,6.181-2.16,8.448,0.243l7.06,7.489L11.781,28.303L4.731,20.814z M8.317,16.693l3.689,3.922l12.18-11.478
		l-3.698-3.916L8.317,16.693z M95.983,93.631c0.345,1.09,0.031,2.279-0.795,3.061c-0.831,0.786-2.038,1.017-3.098,0.61L68.238,88.2
		l20.071-18.94L95.983,93.631z M89.609,85.454l-3.018-9.584L74.927,86.875l9.387,3.584L89.609,85.454z"/>
</g>
</svg>
