<?xml version="1.0" encoding="utf-8"?>
<!-- Generator: Adobe Illustrator 16.0.0, SVG Export Plug-In . SVG Version: 6.00 Build 0)  -->
<!DOCTYPE svg PUBLIC "-//W3C//DTD SVG 1.1//EN" "http://www.w3.org/Graphics/SVG/1.1/DTD/svg11.dtd">
<svg version="1.1" id="Capa_1" xmlns="http://www.w3.org/2000/svg" xmlns:xlink="http://www.w3.org/1999/xlink" x="0px" y="0px"
	 width="612px" height="792px" viewBox="0 0 612 792" enable-background="new 0 0 612 792" xml:space="preserve">
<g>
	<g id="Layer_5_31_">
		<path d="M586.491,184.833H25.511C11.479,184.833,0,196.315,0,210.341v371.316c0,14.031,11.479,25.511,25.511,25.511h560.98
			c14.029,0,25.509-11.479,25.509-25.511V210.341C612,196.313,600.521,184.833,586.491,184.833z M399.222,413.719
			c47.339,31.917,169.661,126.606,169.661,126.606c4.872,3.302,5.22,11.766,2.781,16.809c-2.437,5.045-10.06,8.114-14.932,4.814
			c0,0-130.207-94.011-180.03-128.118c-2.758-1.887-5.199,0.378-5.199,0.378l-54.632,43.589c-2.987,2.451-6.926,3.803-11.083,3.803
			s-8.095-1.352-11.085-3.803l-55.259-44.101c0,0-1.903-1.657-4.067-0.157c-49.25,34.187-178.891,128.408-178.891,128.408
			c-4.87,3.301-14.138,0.231-16.575-4.815c-2.437-5.041-2.088-13.507,2.782-16.808c0,0,122.476-94.394,169.059-126.146
			c2.661-1.814-0.131-4.481-0.131-4.481L38.881,254.169c-6.28-5.148-8.16-14.368-4.28-20.992c2.304-3.94,6.362-6.293,10.852-6.293
			c3.162,0,6.351,1.188,8.981,3.344l245.662,215.3c1.451,1.188,3.524,1.872,5.692,1.872c2.167,0,4.241-0.684,5.693-1.872
			l245.66-215.3c2.631-2.158,5.82-3.344,8.983-3.344c4.489,0,8.547,2.353,10.852,6.293c3.878,6.624,1.998,15.846-4.278,20.992
			l-173.2,156.014C399.496,410.185,397.057,412.255,399.222,413.719z"/>
	</g>
</g>
</svg>
