<?xml version="1.0" encoding="utf-8"?>
<!-- Generator: Adobe Illustrator 16.0.0, SVG Export Plug-In . SVG Version: 6.00 Build 0)  -->
<!DOCTYPE svg PUBLIC "-//W3C//DTD SVG 1.1//EN" "http://www.w3.org/Graphics/SVG/1.1/DTD/svg11.dtd">
<svg version="1.1" id="Layer_1" xmlns="http://www.w3.org/2000/svg" xmlns:xlink="http://www.w3.org/1999/xlink" x="0px" y="0px"
	 width="400px" height="399.999px" viewBox="0 0 400 399.999" enable-background="new 0 0 400 399.999" xml:space="preserve">
<rect fill="#F6B344" width="400" height="399.999"/>
<g>
	<g>
		<path fill="#52A485" d="M229.101,260.538c-43.445,0-50.357,69.848-40.854,74.852c9.508,5.003,26.012-44.023,52.816-27.63
			C255.528,316.603,241.692,260.538,229.101,260.538z"/>
		<path fill="#52A485" d="M275.149,260.538c43.443,0,50.357,69.848,40.852,74.852c-9.504,5.003-26.012-44.023-52.814-27.63
			C248.726,316.603,262.556,260.538,275.149,260.538z"/>
	</g>
	<g>
		<polygon fill="#52A485" points="153.755,334.343 111.737,334.343 116.987,305.831 149.255,305.831 		"/>
		<g>
			<g>
				<path fill="#60BD97" d="M176.57,252.302c0,0-24.77-3.62-41.794-3.62c-18.568,0-33.213,1.525-44.736,4.281
					c-0.365-1.684,11.914,60.146,43.191,60.146S176.57,252.302,176.57,252.302z"/>
				<path fill="#60BD97" d="M156.87,100.505c-9.676-15.303-19.482-24.517-23.572-24.517c-4.087,0-13.892,9.214-23.566,24.517
					c7.49,1.341,15.389,2.074,23.566,2.074C141.478,102.579,149.378,101.846,156.87,100.505z"/>
				<path fill="#EC6346" d="M134.843,234.877c17.023,0,30.746,1.284,41.793,3.62c1.437-6.765,2.557-13.92,3.32-21.375
					c0.004-0.05,0.009-0.1,0.014-0.149c0.181-1.774,0.34-3.567,0.479-5.375c0.012-0.139,0.021-0.277,0.031-0.417
					c0.131-1.74,0.242-3.497,0.334-5.268c0.008-0.165,0.018-0.33,0.025-0.495c0.088-1.781,0.156-3.576,0.205-5.384
					c0.003-0.133,0.008-0.263,0.011-0.396c0.048-1.921,0.073-3.856,0.073-5.804c0-0.968-0.012-1.932-0.033-2.893
					c-0.008-0.314-0.021-0.628-0.029-0.943c-0.019-0.645-0.038-1.289-0.066-1.931c-0.016-0.372-0.037-0.743-0.057-1.114
					c-0.029-0.583-0.061-1.166-0.099-1.747c-0.024-0.389-0.054-0.776-0.081-1.164c-0.041-0.562-0.085-1.123-0.133-1.682
					c-0.033-0.392-0.068-0.781-0.105-1.171c-0.052-0.557-0.107-1.11-0.166-1.664c-0.041-0.385-0.082-0.771-0.127-1.154
					c-0.063-0.561-0.133-1.12-0.203-1.678c-0.047-0.369-0.092-0.737-0.143-1.105c-0.078-0.593-0.164-1.182-0.252-1.771
					c-0.048-0.326-0.094-0.652-0.143-0.978c-0.109-0.701-0.225-1.398-0.342-2.095c-0.036-0.21-0.068-0.42-0.105-0.63
					c-0.158-0.912-0.324-1.819-0.499-2.722c-0.029-0.151-0.062-0.301-0.091-0.451c-0.146-0.744-0.297-1.485-0.453-2.223
					c-0.062-0.288-0.127-0.574-0.189-0.861c-0.131-0.601-0.264-1.202-0.402-1.798c-0.072-0.316-0.148-0.631-0.225-0.945
					c-0.134-0.563-0.27-1.127-0.41-1.688c-0.081-0.325-0.164-0.647-0.248-0.971c-0.141-0.549-0.285-1.097-0.432-1.642
					c-0.086-0.319-0.172-0.638-0.26-0.954c-0.152-0.556-0.309-1.107-0.467-1.658c-0.086-0.297-0.171-0.594-0.258-0.89
					c-0.172-0.582-0.347-1.161-0.523-1.737c-0.079-0.258-0.157-0.517-0.236-0.772c-0.208-0.664-0.42-1.324-0.635-1.981
					c-0.053-0.161-0.105-0.325-0.158-0.487c-0.555-1.68-1.133-3.336-1.73-4.965c-0.026-0.072-0.054-0.144-0.08-0.216
					c-0.269-0.729-0.541-1.451-0.816-2.168c-0.065-0.171-0.133-0.339-0.198-0.509c-0.241-0.618-0.483-1.234-0.729-1.844
					c-0.079-0.199-0.16-0.396-0.241-0.594c-0.237-0.583-0.477-1.164-0.72-1.74c-0.082-0.197-0.166-0.395-0.25-0.591
					c-0.245-0.577-0.493-1.152-0.744-1.723c-0.08-0.181-0.158-0.362-0.239-0.544c-0.263-0.595-0.53-1.187-0.798-1.772
					c-0.066-0.146-0.134-0.293-0.201-0.439c-0.304-0.66-0.611-1.314-0.92-1.962c-0.029-0.064-0.061-0.129-0.09-0.191
					c-1.412-2.949-2.87-5.771-4.355-8.458c-0.023-0.042-0.048-0.084-0.071-0.127c-0.342-0.617-0.686-1.228-1.03-1.83
					c-0.041-0.072-0.082-0.144-0.123-0.215c-0.332-0.579-0.666-1.152-1-1.718c-0.042-0.07-0.083-0.141-0.125-0.21
					c-0.34-0.574-0.681-1.141-1.021-1.698c-0.033-0.053-0.064-0.105-0.097-0.158c-0.366-0.599-0.733-1.189-1.102-1.771
					c-0.001-0.003-0.004-0.007-0.006-0.01l0,0c-7.491,1.342-15.392,2.074-23.571,2.074c-8.178,0-16.076-0.732-23.566-2.074l0,0
					c-0.014,0.021-0.025,0.04-0.038,0.061c-0.351,0.557-0.702,1.12-1.054,1.692c-0.045,0.075-0.092,0.15-0.137,0.227
					c-0.327,0.535-0.654,1.077-0.979,1.626c-0.054,0.091-0.106,0.182-0.161,0.272c-0.32,0.542-0.639,1.091-0.957,1.646
					c-0.055,0.094-0.109,0.188-0.163,0.282c-0.331,0.579-0.66,1.165-0.989,1.758c-0.035,0.063-0.072,0.128-0.107,0.192
					c-1.479,2.675-2.93,5.484-4.335,8.419c-0.043,0.091-0.085,0.183-0.129,0.273c-0.297,0.623-0.592,1.251-0.884,1.885
					c-0.074,0.161-0.146,0.322-0.221,0.483c-0.261,0.571-0.52,1.146-0.776,1.724c-0.087,0.195-0.173,0.393-0.259,0.589
					c-0.243,0.554-0.483,1.109-0.722,1.67c-0.091,0.213-0.181,0.427-0.271,0.641c-0.235,0.561-0.469,1.125-0.7,1.693
					c-0.086,0.21-0.172,0.42-0.256,0.631c-0.238,0.591-0.474,1.188-0.707,1.788c-0.074,0.189-0.148,0.377-0.221,0.567
					c-0.268,0.692-0.529,1.392-0.789,2.095c-0.035,0.095-0.07,0.188-0.105,0.282c-0.596,1.622-1.17,3.271-1.723,4.944
					c-0.061,0.184-0.119,0.369-0.18,0.555c-0.207,0.636-0.413,1.273-0.614,1.917c-0.083,0.267-0.163,0.534-0.245,0.802
					c-0.174,0.566-0.347,1.136-0.516,1.707c-0.089,0.305-0.177,0.61-0.265,0.917c-0.155,0.541-0.31,1.083-0.46,1.629
					c-0.09,0.324-0.178,0.649-0.266,0.976c-0.145,0.537-0.285,1.077-0.425,1.617c-0.085,0.332-0.171,0.663-0.254,0.996
					c-0.138,0.552-0.271,1.104-0.403,1.66c-0.077,0.322-0.156,0.644-0.23,0.968c-0.137,0.592-0.269,1.188-0.398,1.785
					c-0.064,0.29-0.13,0.578-0.191,0.868c-0.154,0.727-0.302,1.458-0.447,2.191c-0.031,0.163-0.066,0.323-0.098,0.486
					c-0.174,0.901-0.34,1.807-0.498,2.718c-0.037,0.213-0.07,0.428-0.106,0.641c-0.117,0.691-0.231,1.383-0.339,2.08
					c-0.052,0.329-0.098,0.66-0.146,0.99c-0.086,0.587-0.172,1.174-0.251,1.766c-0.05,0.365-0.095,0.732-0.142,1.099
					c-0.07,0.56-0.14,1.12-0.203,1.682c-0.045,0.385-0.086,0.771-0.127,1.157c-0.059,0.55-0.113,1.102-0.166,1.656
					c-0.037,0.393-0.072,0.786-0.106,1.18c-0.047,0.557-0.091,1.116-0.132,1.676c-0.027,0.388-0.057,0.776-0.081,1.166
					c-0.038,0.581-0.069,1.164-0.099,1.747c-0.02,0.371-0.041,0.742-0.057,1.114c-0.028,0.642-0.048,1.286-0.066,1.931
					c-0.009,0.315-0.021,0.629-0.029,0.943c-0.021,0.961-0.033,1.925-0.033,2.893c0,1.972,0.027,3.93,0.076,5.875
					c0.003,0.147,0.008,0.295,0.012,0.444c0.049,1.816,0.119,3.621,0.209,5.413c0.009,0.183,0.018,0.364,0.027,0.547
					c0.095,1.788,0.209,3.564,0.344,5.324c0.01,0.141,0.02,0.281,0.031,0.42c0.146,1.867,0.312,3.718,0.502,5.549
					c0.001,0.013,0.002,0.023,0.003,0.035c0.195,1.885,0.414,3.749,0.655,5.594c0.003,0.024,0.006,0.05,0.01,0.075
					c0.234,1.8,0.492,3.579,0.77,5.337c0.014,0.088,0.028,0.176,0.042,0.263c0.273,1.721,0.566,3.422,0.878,5.1
					c0.014,0.076,0.028,0.15,0.042,0.226c0.324,1.73,0.667,3.439,1.03,5.123C101.63,236.403,116.273,234.877,134.843,234.877z"/>
			</g>
			<g>
				<circle fill="#413934" cx="133.304" cy="208.564" r="15.279"/>
				<path fill="#FFFFFF" d="M133.302,226.468c-9.873,0-17.904-8.031-17.904-17.903c0-9.873,8.031-17.906,17.904-17.906
					c9.875,0,17.904,8.034,17.904,17.906C151.208,218.435,143.177,226.468,133.302,226.468z M133.302,195.91
					c-6.975,0.001-12.652,5.676-12.652,12.654s5.68,12.65,12.652,12.65c6.979,0,12.654-5.672,12.654-12.65
					S140.28,195.91,133.302,195.91z"/>
			</g>
			<g>
				<path fill="#413934" d="M154.288,155.032c0,11.593-9.398,20.987-20.986,20.987c-11.594,0-20.991-9.396-20.991-20.986
					c0-11.593,9.397-20.989,20.991-20.99C144.891,134.043,154.288,143.441,154.288,155.032z"/>
				<path fill="#FFFFFF" d="M133.302,178.646c-13.021,0-23.616-10.593-23.615-23.613c0-13.021,10.594-23.616,23.615-23.616
					c13.019,0,23.613,10.594,23.613,23.615C156.915,168.053,146.321,178.646,133.302,178.646z M133.302,136.669
					c-10.127,0-18.364,8.238-18.363,18.364c-0.001,10.124,8.236,18.359,18.363,18.358c10.121,0.001,18.359-8.234,18.361-18.359
					C151.661,144.907,143.425,136.67,133.302,136.669z"/>
			</g>
			<path fill="#EC6346" d="M120.228,264.526c-0.115-3.229,26.572-4.596,26.142,0c-0.437,4.593-5.731,65.472-13.073,65.472
				C125.959,329.998,120.341,267.754,120.228,264.526z"/>
		</g>
	</g>
	<g>
		<path fill-rule="evenodd" clip-rule="evenodd" fill="#FFFFFF" d="M247.352,164.371l-1.925-4.674
			c-3.889,1.607-7.39,3.959-10.322,6.884l3.57,3.579c-2.467,2.46-4.453,5.396-5.814,8.664l-4.67-1.943
			c-1.559,3.745-2.424,7.855-2.43,12.165l5.055,0.007c-0.006,2.96,0.473,5.809,1.355,8.471c0.199,0.598,0.418,1.188,0.658,1.768
			l-4.672,1.927c1.604,3.888,3.959,7.39,6.883,10.322l3.58-3.572c2.459,2.466,5.395,4.457,8.662,5.816l-1.939,4.667
			c3.742,1.56,7.851,2.424,12.161,2.432l0.009-5.053c3.625,0.004,7.084-0.713,10.236-2.016l1.927,4.672
			c3.89-1.605,7.392-3.959,10.322-6.883l-3.57-3.578c2.466-2.461,4.454-5.398,5.815-8.665l4.668,1.942
			c1.557-3.746,2.424-7.855,2.434-12.165l-5.057-0.006c0.004-2.961-0.474-5.81-1.357-8.47c-0.199-0.6-0.418-1.188-0.656-1.769
			l4.671-1.926c-1.604-3.889-3.959-7.392-6.882-10.323l-3.58,3.571c-2.461-2.467-5.396-4.454-8.664-5.814l1.943-4.669
			c-3.746-1.559-7.855-2.424-12.163-2.431l-0.009,5.055C253.966,162.35,250.507,163.066,247.352,164.371z M257.57,176.147
			c5.714,0.011,10.559,3.721,12.266,8.863c0.43,1.289,0.659,2.668,0.659,4.099c-0.012,7.15-5.816,12.937-12.963,12.924
			c-5.714-0.007-10.561-3.718-12.266-8.861c-0.43-1.287-0.66-2.664-0.658-4.1C244.618,181.925,250.421,176.14,257.57,176.147z"/>
		<path fill-rule="evenodd" clip-rule="evenodd" fill="#FFFFFF" d="M230.737,102.62l-1.583-3.842
			c-3.198,1.32-6.074,3.255-8.487,5.659l2.936,2.942c-2.025,2.02-3.662,4.436-4.777,7.121l-3.84-1.599
			c-1.28,3.08-1.994,6.457-1.998,10.001l4.155,0.005c-0.005,2.434,0.389,4.774,1.116,6.965c0.162,0.491,0.342,0.975,0.539,1.451
			l-3.84,1.583c1.319,3.197,3.254,6.075,5.657,8.487l2.942-2.936c2.023,2.026,4.438,3.661,7.121,4.78l-1.594,3.837
			c3.076,1.279,6.453,1.991,9.996,1.999l0.008-4.154c2.98,0.002,5.822-0.585,8.414-1.657l1.584,3.84
			c3.197-1.321,6.074-3.254,8.486-5.658l-2.936-2.941c2.029-2.021,3.662-4.435,4.781-7.121l3.836,1.596
			c1.279-3.078,1.992-6.456,2-10l-4.157-0.005c0.004-2.435-0.388-4.775-1.115-6.962c-0.163-0.493-0.343-0.977-0.54-1.454
			l3.842-1.585c-1.32-3.194-3.254-6.073-5.66-8.482l-2.941,2.933c-2.021-2.025-4.436-3.66-7.121-4.778l1.596-3.838
			c-3.079-1.282-6.455-1.992-9.996-1.997l-0.008,4.153C236.173,100.959,233.33,101.548,230.737,102.62z M239.136,112.302
			c4.697,0.007,8.681,3.058,10.084,7.285c0.352,1.058,0.54,2.191,0.541,3.37c-0.011,5.877-4.781,10.632-10.656,10.624
			c-4.696-0.007-8.68-3.059-10.083-7.286c-0.353-1.06-0.542-2.191-0.54-3.369C228.489,117.05,233.261,112.295,239.136,112.302z"/>
		<path fill-rule="evenodd" clip-rule="evenodd" fill="#FFFFFF" d="M286.655,124.772l-1.104-2.682
			c-2.231,0.922-4.24,2.271-5.923,3.95l2.049,2.053c-1.414,1.411-2.557,3.097-3.334,4.97l-2.681-1.113
			c-0.894,2.149-1.392,4.506-1.394,6.979l2.898,0.005c-0.002,1.698,0.271,3.333,0.778,4.86c0.114,0.343,0.239,0.681,0.376,1.014
			l-2.68,1.105c0.922,2.23,2.271,4.239,3.949,5.921l2.055-2.047c1.41,1.414,3.096,2.555,4.971,3.337l-1.113,2.677
			c2.147,0.893,4.504,1.391,6.977,1.394l0.006-2.898c2.081,0.002,4.063-0.408,5.873-1.156l1.105,2.682
			c2.232-0.923,4.238-2.272,5.921-3.95l-2.048-2.054c1.416-1.412,2.557-3.097,3.336-4.97l2.678,1.113
			c0.896-2.148,1.393-4.506,1.396-6.979l-2.898-0.004c0.001-1.697-0.271-3.332-0.776-4.858c-0.119-0.344-0.244-0.682-0.38-1.015
			l2.681-1.106c-0.921-2.229-2.27-4.238-3.948-5.92l-2.056,2.047c-1.411-1.416-3.096-2.555-4.969-3.337l1.114-2.677
			c-2.151-0.896-4.508-1.392-6.979-1.396l-0.004,2.902C290.45,123.612,288.466,124.024,286.655,124.772z M292.519,131.529
			c3.277,0.005,6.057,2.135,7.038,5.085c0.245,0.738,0.378,1.53,0.376,2.353c-0.006,4.101-3.336,7.421-7.436,7.415
			c-3.278-0.005-6.061-2.135-7.037-5.085c-0.247-0.739-0.381-1.53-0.379-2.352C285.087,134.842,288.417,131.524,292.519,131.529z"/>
	</g>
</g>
</svg>
