<?xml version="1.0" encoding="utf-8"?>
<!-- Generator: Adobe Illustrator 16.0.0, SVG Export Plug-In . SVG Version: 6.00 Build 0)  -->
<!DOCTYPE svg PUBLIC "-//W3C//DTD SVG 1.1//EN" "http://www.w3.org/Graphics/SVG/1.1/DTD/svg11.dtd">
<svg version="1.1" id="Layer_1" xmlns="http://www.w3.org/2000/svg" xmlns:xlink="http://www.w3.org/1999/xlink" x="0px" y="0px"
	 width="500px" height="500px" viewBox="0 0 500 500" enable-background="new 0 0 500 500" xml:space="preserve">
<path fill="#FFFFFF" d="M0,273.828c0,41.667,6.25,74.913,18.75,99.74c13.368,26.389,34.115,45.92,62.24,58.594
	c28.472,13.367,57.552,21.614,87.24,24.739c26.736,3.125,55.555,4.688,86.458,4.688c13.368,0,30.121-0.521,50.261-1.562
	c16.84-1.042,34.765-3.342,53.775-6.901c19.011-3.559,35.374-8.203,49.089-13.932c15.625-6.598,30.035-15.495,43.229-26.693
	c13.195-11.197,23.437-24.175,30.729-38.932C493.924,348.741,500,315.495,500,273.828c0-47.569-13.629-87.326-40.886-119.271
	c5.382-16.146,8.073-33.073,8.073-50.781c0-23.438-5.035-45.226-15.104-65.365c-20.66,0-39.106,3.646-55.339,10.938
	c-16.233,7.292-35.46,19.619-57.682,36.979c-27.257-6.423-55.382-9.635-84.375-9.635c-31.598,0-62.5,3.472-92.708,10.416
	c-22.744-17.882-42.231-30.468-58.464-37.76c-16.233-7.292-34.679-10.938-55.339-10.938c-10.243,19.965-15.364,41.753-15.364,65.365
	c0,17.882,2.691,34.982,8.073,51.302C13.628,187.022,0,226.606,0,273.828L0,273.828z M67.188,326.693
	c0-24.653,7.075-45.226,21.224-61.72c14.149-16.492,32.77-24.739,55.86-24.739c9.201,0,28.732,2.17,58.593,6.511
	c15.278,2.257,30.99,3.386,47.136,3.386s31.945-1.129,47.396-3.386c30.382-4.341,49.914-6.511,58.594-6.511
	c23.091,0,41.667,8.247,55.729,24.739c14.062,16.494,21.094,37.066,21.094,61.72c0,17.535-3.212,32.985-9.635,46.354
	c-6.423,12.848-14.453,23.048-24.088,30.6c-9.636,7.552-21.918,13.585-36.85,18.099c-24.652,7.465-53.646,11.198-86.979,11.198
	h-50.521c-16.493,0-31.423-0.781-44.792-2.344c-14.236-1.39-28.559-4.428-42.969-9.115c-14.41-4.687-26.302-10.59-35.677-17.708
	c-10.243-7.986-18.49-18.619-24.74-31.901C70.312,358.594,67.188,343.533,67.188,326.693z M115.365,326.693
	c0,8.159,1.302,16.406,3.906,24.739c2.604,9.027,7.075,16.797,13.412,23.308c6.337,6.51,13.412,9.766,21.224,9.766
	c8.333,0,15.625-3.386,21.875-10.156c10.938-12.674,16.406-28.56,16.406-47.656c0-7.986-1.128-16.146-3.386-24.479
	c-2.604-9.027-7.074-16.797-13.411-23.308c-6.337-6.51-13.499-9.766-21.484-9.766c-8.333,0-15.625,3.473-21.875,10.417
	C120.92,291.537,115.365,307.248,115.365,326.693z M307.812,326.693c0,8.159,1.302,16.406,3.906,24.739
	c2.604,9.027,7.031,16.797,13.281,23.308c6.25,6.51,13.281,9.766,21.094,9.766c8.507,0,15.886-3.386,22.136-10.156
	c10.938-12.674,16.406-28.56,16.406-47.656c0-7.466-1.215-15.625-3.646-24.479c-2.604-9.027-7.075-16.797-13.412-23.308
	c-6.337-6.51-13.498-9.766-21.484-9.766c-8.333,0-15.451,3.473-21.354,10.417C313.455,291.537,307.812,307.248,307.812,326.693
	L307.812,326.693z"/>
</svg>
