<?xml version="1.0" encoding="utf-8"?>
<!-- Generator: Adobe Illustrator 16.0.0, SVG Export Plug-In . SVG Version: 6.00 Build 0)  -->
<!DOCTYPE svg PUBLIC "-//W3C//DTD SVG 1.1//EN" "http://www.w3.org/Graphics/SVG/1.1/DTD/svg11.dtd">
<svg version="1.1" id="Layer_1" xmlns="http://www.w3.org/2000/svg" xmlns:xlink="http://www.w3.org/1999/xlink" x="0px" y="0px"
	 width="50px" height="50px" viewBox="25 25.001 50 50" enable-background="new 25 25.001 50 50" xml:space="preserve">
<path d="M25,52.382c0,4.167,0.625,7.491,1.875,9.975c1.337,2.641,3.411,4.594,6.224,5.858c2.848,1.337,5.755,2.162,8.724,2.476
	c2.674,0.312,5.556,0.47,8.646,0.47c1.338,0,3.014-0.054,5.026-0.156c1.685-0.104,3.478-0.335,5.378-0.688
	c1.9-0.355,3.537-0.82,4.909-1.396c1.562-0.659,3.003-1.549,4.321-2.669s2.345-2.418,3.072-3.895C74.393,59.873,75,56.549,75,52.382
	c0-4.757-1.363-8.732-4.089-11.928c0.538-1.614,0.807-3.307,0.807-5.078c0-2.344-0.503-4.522-1.51-6.536
	c-2.065,0-3.911,0.364-5.534,1.094s-3.546,1.962-5.768,3.698c-2.727-0.643-5.539-0.964-8.438-0.964
	c-3.159,0-6.249,0.348-9.271,1.042c-2.273-1.788-4.223-3.047-5.846-3.776s-3.468-1.094-5.534-1.094
	c-1.024,1.997-1.536,4.176-1.536,6.536c0,1.789,0.269,3.499,0.807,5.131C26.362,43.701,25,47.659,25,52.382L25,52.382z
	 M31.719,57.668c0-2.465,0.707-4.522,2.122-6.172s3.277-2.474,5.586-2.474c0.92,0,2.873,0.217,5.859,0.65
	c1.528,0.227,3.099,0.339,4.714,0.339c1.613,0,3.193-0.112,4.738-0.339c3.039-0.434,4.992-0.65,5.859-0.65
	c2.31,0,4.166,0.824,5.572,2.474c1.406,1.649,2.107,3.707,2.107,6.172c0,1.754-0.319,3.299-0.963,4.636
	c-0.644,1.285-1.444,2.305-2.408,3.062c-0.965,0.756-2.191,1.356-3.686,1.811c-2.467,0.746-5.365,1.119-8.699,1.119h-5.051
	c-1.649,0-3.143-0.078-4.479-0.233c-1.423-0.14-2.855-0.441-4.297-0.91c-1.44-0.469-2.63-1.061-3.567-1.771
	c-1.024-0.799-1.849-1.861-2.474-3.189C32.029,60.863,31.719,59.353,31.719,57.668L31.719,57.668z M36.536,57.668
	c0,0.815,0.13,1.642,0.391,2.476c0.261,0.901,0.708,1.681,1.341,2.33c0.634,0.65,1.342,0.978,2.123,0.978
	c0.833,0,1.562-0.338,2.188-1.017c1.094-1.268,1.641-2.854,1.641-4.767c0-0.798-0.113-1.614-0.339-2.446
	c-0.261-0.904-0.707-1.681-1.341-2.332c-0.634-0.65-1.35-0.977-2.148-0.977c-0.834,0-1.562,0.348-2.188,1.042
	C37.092,54.151,36.536,55.724,36.536,57.668z M55.781,57.668c0,0.815,0.13,1.642,0.39,2.476c0.261,0.901,0.704,1.681,1.329,2.33
	c0.625,0.65,1.328,0.978,2.107,0.978c0.853,0,1.59-0.338,2.215-1.017c1.094-1.268,1.641-2.854,1.641-4.767
	c0-0.746-0.121-1.562-0.363-2.446c-0.262-0.904-0.709-1.681-1.342-2.332c-0.634-0.65-1.351-0.977-2.148-0.977
	c-0.834,0-1.545,0.348-2.135,1.042C56.346,54.151,55.781,55.724,55.781,57.668L55.781,57.668z"/>
</svg>
