<?xml version="1.0" encoding="utf-8"?>
<!-- Generator: Adobe Illustrator 16.0.0, SVG Export Plug-In . SVG Version: 6.00 Build 0)  -->
<!DOCTYPE svg PUBLIC "-//W3C//DTD SVG 1.1//EN" "http://www.w3.org/Graphics/SVG/1.1/DTD/svg11.dtd">
<svg version="1.1" id="Layer_1" xmlns="http://www.w3.org/2000/svg" xmlns:xlink="http://www.w3.org/1999/xlink" x="0px" y="0px"
	 width="188px" height="188px" viewBox="0 0 188 188" enable-background="new 0 0 188 188" xml:space="preserve">
<g>
	<g>
		<path stroke="#000000" stroke-width="10" stroke-miterlimit="10" d="M156.331,24.248c-7.13-3.928-15.308-6.187-24.033-6.187
			c-15.394,0-29.18,7.015-38.283,18.015c-9.146-11-22.919-18.015-38.334-18.015c-8.704,0-16.866,2.259-24.013,6.187
			c-15.332,8.491-25.72,24.816-25.72,43.577c0,5.371,0.874,10.521,2.457,15.341c8.537,38.374,85.609,86.771,85.609,86.771
			s77.022-48.396,85.571-86.771c1.583-4.819,2.466-9.977,2.466-15.341C182.052,49.071,171.664,32.751,156.331,24.248z"/>
	</g>
</g>
</svg>
