<?xml version="1.0" encoding="utf-8"?>
<!-- Generator: Adobe Illustrator 16.0.0, SVG Export Plug-In . SVG Version: 6.00 Build 0)  -->
<!DOCTYPE svg PUBLIC "-//W3C//DTD SVG 1.1//EN" "http://www.w3.org/Graphics/SVG/1.1/DTD/svg11.dtd">
<svg version="1.1" id="Capa_1" xmlns="http://www.w3.org/2000/svg" xmlns:xlink="http://www.w3.org/1999/xlink" x="0px" y="0px"
	 width="128px" height="128px" viewBox="432.091 432.09 128 128" enable-background="new 432.091 432.09 128 128"
	 xml:space="preserve">
<g>
	<path d="M528.744,444.132c-10.631,0-20.074,5.161-25.815,13.095c-1.251,1.742-1.419,4.051-0.451,5.96l2.632,5.238
		c0.903,1.806,0.812,3.948-0.258,5.664l-5.496,8.85c-1.174,1.884-1.161,4.257,0.013,6.141l5.354,8.566
		c1.147,1.832,1.174,4.142,0.09,6.012l-5.638,9.624c-1.058,1.807-1.058,4.051,0,5.87l5.779,9.882
		c1.007,1.729,1.059,3.857,0.129,5.625l-6.682,12.771c1.857,0.942,4.102,0.813,5.856-0.399c5.47-3.806,17.184-11.985,17.184-11.985
		c9.896-7.082,19.339-14.823,26.705-24.602c6.335-8.411,10.966-18.371,11.817-28.872
		C561.486,462.477,549.114,444.132,528.744,444.132z"/>
	<path d="M470.832,535.032c0,0,11.792,8.192,17.3,11.998c0.219,0.142,0.438,0.283,0.658,0.399l6.683-12.771
		c0.929-1.768,0.877-3.896-0.129-5.625l-5.779-9.882c-1.058-1.807-1.058-4.051,0-5.87l5.638-9.624
		c1.097-1.857,1.058-4.18-0.09-6.012l-5.354-8.566c-1.174-1.884-1.174-4.257-0.013-6.141l5.496-8.85
		c1.071-1.716,1.161-3.857,0.258-5.664c-2.671-5.315-5.044-10.63-9.302-14.888c-3.716-3.715-8.334-6.489-13.353-8.024
		c-3.032-0.916-6.192-1.38-9.366-1.38c-20.358,0-32.807,18.345-31.259,37.425c0.852,10.501,5.444,20.461,11.779,28.872
		C451.377,520.221,460.937,527.961,470.832,535.032z"/>
</g>
</svg>
