<?xml version="1.0" encoding="utf-8"?>
<!-- Generator: Adobe Illustrator 16.0.0, SVG Export Plug-In . SVG Version: 6.00 Build 0)  -->
<!DOCTYPE svg PUBLIC "-//W3C//DTD SVG 1.1//EN" "http://www.w3.org/Graphics/SVG/1.1/DTD/svg11.dtd">
<svg version="1.1" id="Layer_1" xmlns="http://www.w3.org/2000/svg" xmlns:xlink="http://www.w3.org/1999/xlink" x="0px" y="0px"
	 width="176.1px" height="176.1px" viewBox="0 0 176.1 176.1" enable-background="new 0 0 176.1 176.1" xml:space="preserve">
<g>
	<g>
		<path fill="#FFFFFF" d="M150.381,18.298c-7.13-3.928-15.308-6.187-24.033-6.187c-15.394,0-29.18,7.015-38.283,18.015
			c-9.146-11-22.919-18.015-38.334-18.015c-8.704,0-16.866,2.259-24.013,6.187C10.386,26.79-0.002,43.115-0.002,61.875
			c0,5.371,0.874,10.521,2.457,15.341c8.537,38.374,85.609,86.771,85.609,86.771s77.022-48.396,85.571-86.771
			c1.583-4.819,2.466-9.977,2.466-15.341C176.102,43.122,165.714,26.801,150.381,18.298z"/>
	</g>
</g>
</svg>
