<?xml version="1.0" encoding="utf-8"?>
<!-- Generator: Adobe Illustrator 16.0.0, SVG Export Plug-In . SVG Version: 6.00 Build 0)  -->
<!DOCTYPE svg PUBLIC "-//W3C//DTD SVG 1.1//EN" "http://www.w3.org/Graphics/SVG/1.1/DTD/svg11.dtd">
<svg version="1.1" id="Capa_1" xmlns="http://www.w3.org/2000/svg" xmlns:xlink="http://www.w3.org/1999/xlink" x="0px" y="0px"
	 width="128px" height="128px" viewBox="-1.968 -1.968 128 128" enable-background="new -1.968 -1.968 128 128"
	 xml:space="preserve">
<g>
	<path fill="#FFFFFF" d="M10.963,77.533c7.943,10.523,18.26,18.984,28.991,26.619c0,0,12.793,8.873,18.674,13
		c2.167,1.444,4.951,1.444,7.016,0c5.88-4.127,18.57-13,18.57-13c10.729-7.634,20.84-15.991,28.889-26.619
		c6.81-9.079,11.864-19.809,12.792-31.158c1.651-20.634-11.658-40.442-33.737-40.442c-12.896,0-24.245,7.016-30.022,17.436
		c-5.983-10.524-17.229-17.54-30.126-17.54c-21.976,0-35.492,19.81-33.84,40.444C-0.902,57.621,4.05,68.454,10.963,77.533z"/>
</g>
</svg>
