<?xml version="1.0" encoding="utf-8"?>
<!-- Generator: Adobe Illustrator 16.0.0, SVG Export Plug-In . SVG Version: 6.00 Build 0)  -->
<!DOCTYPE svg PUBLIC "-//W3C//DTD SVG 1.1//EN" "http://www.w3.org/Graphics/SVG/1.1/DTD/svg11.dtd">
<svg version="1.1" id="Layer_1" xmlns="http://www.w3.org/2000/svg" xmlns:xlink="http://www.w3.org/1999/xlink" x="0px" y="0px"
	 width="500px" height="500px" viewBox="0 0 500 500" enable-background="new 0 0 500 500" xml:space="preserve">
<g>
	<path fill="#D7AF72" d="M0,217.423h31.697v12.913h-6.065v14.772h18.587v-14.772h-5.771v-12.913h31.794v12.913h-5.674v42.556h5.674
		v12.914H38.447v-12.914h5.771V258.12H25.631v14.772h6.065v12.914H0v-12.914h5.38v-42.556H0V217.423z"/>
	<path fill="#D7AF72" d="M99.1,287.078c-3.521,0-6.93-0.538-10.223-1.614c-3.294-1.076-6.212-2.69-8.756-4.842
		c-2.543-2.152-4.582-4.858-6.114-8.12c-1.533-3.261-2.267-7.044-2.201-11.348c0-4.109,0.766-7.744,2.299-10.908
		c1.532-3.163,3.554-5.821,6.065-7.974c2.51-2.152,5.364-3.781,8.56-4.891c3.195-1.108,6.489-1.663,9.881-1.663
		c3.848,0.066,7.418,0.669,10.712,1.81c3.292,1.142,6.146,2.821,8.56,5.038c2.412,2.218,4.32,4.908,5.723,8.071
		c1.402,3.164,2.136,6.799,2.201,10.908c0.064,4.045-0.604,7.648-2.005,10.811c-1.403,3.164-3.311,5.837-5.723,8.022
		c-2.413,2.186-5.25,3.849-8.511,4.989C106.306,286.506,102.818,287.078,99.1,287.078z M99.1,274.556
		c1.042,0,1.972-0.326,2.789-0.979c0.814-0.651,1.516-1.565,2.103-2.739c0.587-1.174,1.027-2.559,1.321-4.157
		c0.293-1.598,0.44-3.31,0.44-5.137c0-3.717-0.62-6.814-1.858-9.293c-1.24-2.478-3-3.75-5.283-3.815
		c-0.979,0-1.875,0.327-2.69,0.979c-0.816,0.652-1.516,1.565-2.104,2.739c-0.587,1.174-1.061,2.544-1.418,4.109
		c-0.359,1.565-0.538,3.228-0.538,4.989c0,4.045,0.685,7.273,2.055,9.686C95.285,273.35,97.012,274.556,99.1,274.556z"/>
	<path fill="#D7AF72" d="M156.428,285.806h-29.056V272.99h4.109v-23.088h-4.109v-12.913h18.49l2.152,5.772
		c0.392-0.456,0.961-1.092,1.712-1.908c0.749-0.815,1.646-1.614,2.69-2.397c1.042-0.783,2.217-1.451,3.522-2.006
		c1.304-0.553,2.739-0.832,4.305-0.832c2.478,0,4.549,0.262,6.212,0.783c1.663,0.522,3.048,1.142,4.158,1.858
		c1.108,0.719,1.988,1.484,2.641,2.299c0.651,0.816,1.174,1.517,1.565,2.104c1.5-1.695,3.424-3.292,5.772-4.793
		c2.348-1.5,5.217-2.25,8.609-2.25c3.978,0,7.157,0.67,9.539,2.006c2.38,1.337,4.222,3.099,5.527,5.283
		c1.304,2.186,2.168,4.681,2.593,7.484c0.423,2.805,0.636,5.708,0.636,8.707v13.5h4.794v13.207H187.44v-23.968
		c0-1.174,0.015-2.461,0.048-3.864c0.032-1.402-0.033-2.723-0.195-3.962c-0.164-1.238-0.506-2.265-1.027-3.082
		c-0.522-0.814-1.37-1.223-2.543-1.223c-2.088,0-3.473,0.669-4.158,2.005c-0.685,1.337-1.027,3.049-1.027,5.136v15.848h5.87v13.109
		h-25.338v-24.947c0-3.978-0.195-6.831-0.587-8.56c-0.391-1.727-1.565-2.592-3.521-2.592c-1.565,0-2.69,0.474-3.375,1.418
		c-0.685,0.946-1.027,2.43-1.027,4.451v17.414h5.87V285.806z"/>
	<path fill="#D7AF72" d="M263.354,279.056c-3.653,3.131-7.501,5.332-11.544,6.604c-4.044,1.272-8.609,1.908-13.696,1.908
		c-3.066,0-6.131-0.506-9.196-1.516c-3.066-1.011-5.821-2.576-8.267-4.696c-2.446-2.119-4.451-4.858-6.017-8.218
		c-1.565-3.358-2.348-7.386-2.348-12.082c0-3.978,0.685-7.548,2.055-10.712c1.37-3.163,3.229-5.853,5.576-8.071
		c2.348-2.216,5.119-3.896,8.315-5.038c3.195-1.14,6.652-1.712,10.37-1.712c2.935,0,5.657,0.359,8.169,1.076
		c2.51,0.718,4.777,1.697,6.799,2.935c2.021,1.24,3.75,2.739,5.185,4.5c1.434,1.761,2.51,3.653,3.229,5.674
		c0.26,0.848,0.521,1.924,0.783,3.229c0.26,1.305,0.44,2.707,0.538,4.207c0.098,1.501,0.064,3.049-0.098,4.647
		c-0.164,1.599-0.506,3.081-1.027,4.451h-30.816c0.13,0.652,0.342,1.436,0.636,2.348c0.293,0.914,0.798,1.794,1.517,2.642
		c0.717,0.848,1.695,1.565,2.935,2.152c1.238,0.587,2.901,0.88,4.989,0.88c0.847,0,1.776-0.032,2.788-0.098
		c1.011-0.064,2.104-0.26,3.277-0.587c1.174-0.326,2.412-0.798,3.718-1.418c1.304-0.619,2.608-1.483,3.913-2.592L263.354,279.056z
		 M239.19,248.729c-1.501,0-2.724,0.293-3.669,0.88c-0.946,0.587-1.696,1.289-2.25,2.104c-0.555,0.816-0.947,1.68-1.174,2.592
		c-0.229,0.915-0.376,1.664-0.44,2.25h14.772c0-0.913-0.098-1.842-0.293-2.788c-0.196-0.945-0.539-1.793-1.027-2.544
		c-0.489-0.749-1.208-1.353-2.152-1.81C242.011,248.958,240.756,248.729,239.19,248.729z"/>
	<path fill="#D7AF72" d="M265.897,285.806v-12.718h4.108V225.25h-4.108v-12.816h23.674v28.273c0.521-0.651,1.255-1.255,2.202-1.81
		c0.945-0.553,2.005-1.042,3.18-1.467c1.174-0.423,2.412-0.749,3.717-0.979c1.304-0.228,2.544-0.342,3.718-0.342
		c3.717,0,6.995,0.718,9.832,2.152c2.837,1.436,5.2,3.343,7.093,5.723c1.891,2.381,3.309,5.121,4.256,8.218
		c0.944,3.098,1.384,6.278,1.32,9.539c-0.066,3.783-0.636,7.224-1.712,10.321c-1.076,3.098-2.592,5.74-4.549,7.924
		c-1.957,2.186-4.304,3.881-7.044,5.087c-2.739,1.206-5.837,1.81-9.293,1.81c-1.893,0-3.49-0.114-4.794-0.342
		c-1.305-0.229-2.446-0.555-3.424-0.979s-1.843-0.896-2.593-1.419c-0.75-0.521-1.452-1.076-2.103-1.663l-1.468,3.326H265.897z
		 M303.366,261.936c0-1.434-0.164-2.886-0.489-4.354c-0.327-1.467-0.799-2.754-1.418-3.864c-0.621-1.108-1.37-2.021-2.25-2.739
		c-0.88-0.717-1.844-1.076-2.886-1.076c-0.978,0-1.908,0.293-2.788,0.881c-0.881,0.587-1.648,1.418-2.299,2.494
		c-0.653,1.077-1.159,2.382-1.517,3.914c-0.359,1.533-0.474,3.277-0.342,5.234c0,1.697,0.195,3.245,0.587,4.647
		c0.391,1.403,0.912,2.642,1.565,3.717c0.651,1.076,1.402,1.908,2.25,2.495s1.728,0.88,2.642,0.88c2.087,0,3.767-1.108,5.039-3.326
		C302.73,268.622,303.366,265.653,303.366,261.936z"/>
	<path fill="#D7AF72" d="M355.215,285.806h-27.686V272.99h4.304v-23.381h-4.207v-12.718h18.392l2.935,6.261
		c0.651-1.174,1.335-2.282,2.054-3.326c0.717-1.042,1.63-1.972,2.739-2.788c1.108-0.815,2.478-1.451,4.108-1.908
		c1.63-0.456,3.718-0.685,6.261-0.685v17.609c-4.436,0-7.843,0.734-10.223,2.201c-2.382,1.467-3.571,4.354-3.571,8.658v10.076h4.892
		V285.806z"/>
	<path fill="#D7AF72" d="M415.183,279.056c-3.654,3.131-7.501,5.332-11.544,6.604c-4.044,1.272-8.609,1.908-13.696,1.908
		c-3.066,0-6.131-0.506-9.196-1.516c-3.066-1.011-5.821-2.576-8.267-4.696c-2.446-2.119-4.451-4.858-6.017-8.218
		c-1.565-3.358-2.348-7.386-2.348-12.082c0-3.978,0.685-7.548,2.055-10.712c1.37-3.163,3.229-5.853,5.576-8.071
		c2.348-2.216,5.119-3.896,8.315-5.038c3.195-1.14,6.652-1.712,10.37-1.712c2.935,0,5.658,0.359,8.169,1.076
		c2.509,0.718,4.777,1.697,6.799,2.935c2.021,1.24,3.75,2.739,5.185,4.5c1.434,1.761,2.51,3.653,3.229,5.674
		c0.26,0.848,0.521,1.924,0.783,3.229c0.26,1.305,0.44,2.707,0.538,4.207c0.098,1.501,0.064,3.049-0.098,4.647
		c-0.164,1.599-0.506,3.081-1.027,4.451h-30.817c0.13,0.652,0.342,1.436,0.636,2.348c0.293,0.914,0.797,1.794,1.516,2.642
		c0.717,0.848,1.696,1.565,2.935,2.152c1.238,0.587,2.901,0.88,4.99,0.88c0.847,0,1.775-0.032,2.788-0.098
		c1.01-0.064,2.104-0.26,3.278-0.587c1.174-0.326,2.412-0.798,3.717-1.418c1.304-0.619,2.607-1.483,3.913-2.592L415.183,279.056z
		 M391.019,248.729c-1.501,0-2.724,0.293-3.669,0.88c-0.946,0.587-1.696,1.289-2.25,2.104c-0.555,0.816-0.947,1.68-1.174,2.592
		c-0.229,0.915-0.376,1.664-0.44,2.25h14.772c0-0.913-0.098-1.842-0.293-2.788c-0.196-0.945-0.538-1.793-1.027-2.544
		c-0.49-0.749-1.208-1.353-2.153-1.81C393.839,248.958,392.584,248.729,391.019,248.729z"/>
	<path fill="#D7AF72" d="M442.477,270.838c0.064-0.978,0.179-2.282,0.342-3.913c0.162-1.629,0.392-3.456,0.686-5.479
		c0.293-2.021,0.685-4.189,1.174-6.505c0.489-2.314,1.092-4.679,1.81-7.093l3.131-10.957h18.099l3.717,12.718
		c0.587,1.893,1.125,3.898,1.615,6.017c0.488,2.12,0.896,4.158,1.223,6.115c0.325,1.956,0.602,3.751,0.831,5.38
		c0.229,1.631,0.406,2.871,0.538,3.717h0.195c0.064-0.782,0.18-1.776,0.343-2.983c0.162-1.206,0.343-2.527,0.538-3.962
		c0.195-1.434,0.44-2.886,0.733-4.354c0.294-1.467,0.636-2.852,1.027-4.157l1.663-5.772h-4.011v-12.718H500v12.718h-4.011
		l-11.446,36.197h-20.642l-6.75-22.11l-7.044,22.11h-20.153l-11.055-36.197h-4.207v-12.718h26.316v12.718h-3.326l2.152,7.142
		c0.325,1.174,0.636,2.431,0.93,3.767c0.293,1.337,0.538,2.658,0.733,3.962c0.196,1.305,0.357,2.511,0.489,3.619
		c0.13,1.11,0.228,2.022,0.294,2.739H442.477z"/>
</g>
</svg>
