<?xml version="1.0" encoding="utf-8"?>
<!-- Generator: Adobe Illustrator 16.0.0, SVG Export Plug-In . SVG Version: 6.00 Build 0)  -->
<!DOCTYPE svg PUBLIC "-//W3C//DTD SVG 1.1//EN" "http://www.w3.org/Graphics/SVG/1.1/DTD/svg11.dtd">
<svg version="1.1" id="Layer_1" xmlns="http://www.w3.org/2000/svg" xmlns:xlink="http://www.w3.org/1999/xlink" x="0px" y="0px"
	 width="100px" height="100px" viewBox="0 0 100 100" enable-background="new 0 0 100 100" xml:space="preserve">
<g>
	<g id="Layer_1_110_">
		<g>
			<path fill="#F6EC13" d="M37.376,33.91l-6.082-5.749c0.708-1.287,1.146-2.745,1.146-4.316c0-4.982-4.036-9.02-9.021-9.02
				c-4.985,0-9.027,4.035-9.027,9.02c0,4.984,4.042,9.023,9.027,9.023c1.758,0,3.384-0.523,4.771-1.392l6.074,5.743
				C35.184,36.004,36.219,34.892,37.376,33.91z"/>
			<path fill="#F6EC13" d="M63.106,33.191l8.083-13.602c0.796,0.228,1.621,0.392,2.487,0.392c4.993,0,9.03-4.038,9.03-9.024
				c0-4.982-4.037-9.019-9.03-9.019c-4.985,0-9.02,4.034-9.02,9.019c0,2.475,0.997,4.711,2.611,6.343l-8.058,13.563
				C60.597,31.491,61.901,32.274,63.106,33.191z"/>
			<path fill="#F6EC13" d="M90.982,44.579c-3.881,0-7.168,2.465-8.442,5.904l-11.23-1.109c0,0.086,0.013,0.167,0.013,0.25
				c0,1.463-0.162,2.895-0.453,4.273l11.227,1.11c0.68,4.305,4.387,7.608,8.887,7.608c4.982,0,9.018-4.035,9.018-9.018
				C100,48.617,95.965,44.579,90.982,44.579z"/>
			<path fill="#F6EC13" d="M59.994,80.051l-2.51-10.971c-1.417,0.495-2.893,0.848-4.43,1.024l2.514,10.971
				c-2.884,1.509-4.872,4.49-4.872,7.971c0,4.982,4.033,9.016,9.028,9.016c4.982,0,9.018-4.033,9.018-9.016
				C68.746,84.154,64.848,80.194,59.994,80.051z"/>
			<path fill="#F6EC13" d="M30.547,53.979L16.568,58.66c-1.613-2.462-4.389-4.098-7.55-4.098C4.034,54.562,0,58.6,0,63.582
				c0,4.989,4.034,9.026,9.019,9.026c4.981,0,9.026-4.037,9.026-9.026c0-0.207-0.044-0.4-0.061-0.604l14.022-4.695
				C31.375,56.919,30.872,55.483,30.547,53.979z"/>
			<circle fill="#F6EC13" cx="50.702" cy="49.623" r="15.47"/>
		</g>
	</g>
</g>
</svg>
