<?xml version="1.0" encoding="utf-8"?>
<!-- Generator: Adobe Illustrator 16.0.0, SVG Export Plug-In . SVG Version: 6.00 Build 0)  -->
<!DOCTYPE svg PUBLIC "-//W3C//DTD SVG 1.1//EN" "http://www.w3.org/Graphics/SVG/1.1/DTD/svg11.dtd">
<svg version="1.1" id="Layer_1" xmlns="http://www.w3.org/2000/svg" xmlns:xlink="http://www.w3.org/1999/xlink" x="0px" y="0px"
	 width="117.2px" height="117.2px" viewBox="0 0 117.2 117.2" enable-background="new 0 0 117.2 117.2" xml:space="preserve">
<g id="g3264" transform="matrix(0.19895547,0,0,0.19895547,146.39911,478.011)">
	<path id="path6" fill="#FFFFFF" d="M-447.132-2402.604c-16.1,0-18.799,0.201-29.5,2.999c-13.204,3.5-20.9,7.903-29.902,17.003
		c-4.599,4.496-6.901,7.397-9.1,11.098c-5.497,9.498-9.1,20.302-11.299,34.899c-1.198,7.103-1.296,9.699-1.198,27.301
		c0,18.5,2.199,74.898,3.5,91.798c0.898,11.201,0.496,12.404-8.899,25.504c-3.298,4.599-7.903,11.299-10.2,14.897
		c-6.302,9.699-15.202,22.201-22.5,31.802c-13.498,17.4-16.905,23.801-25.401,46.9c-8.202,22.599-13.199,33.8-25.303,57.296
		c-6.194,11.8-7.795,16.802-8.099,25.2c-0.398,7.201,0.599,17.204,1.698,19c0.903,1.203,2.003,1.502,4.202,0.903
		c-0.299,0.299-0.501,0.5-0.697,0.599c-3.505,2.297-7.5,7.201-10.003,13.4c-0.098,0.098-0.098,0.3-0.196,0.398
		c-0.903,1.404-1.905,3.804-3.102,7.5c-3.603,10.2-6.597,14.701-11.996,17.602c-4.604,2.499-8.703,3.102-20.704,3.102
		c-12.399,0-15.098,0.599-18.799,3.799c-6.597,5.601-7.598,16.698-3.102,32.096c4.104,13.901,3.902,20.301-1.399,35.9
		c-2.901,8.6-3.298,10.401-3.298,14.102c0,2.798,0.299,4.899,0.898,6.199c1.301,2.699,5.399,6.003,9.405,7.701
		c4.496,1.698,27.095,7.299,43.297,10.499c25.097,5.1,34.099,7.8,57.4,17.101c20.699,8.197,29.5,11.201,36.499,12.301
		c3.303,0.501,10.102-0.103,13.199-1.301c3.701-1.301,7.201-3.701,14.902-10.2c13.596-11.402,20.998-15,36.2-17.4
		c5.699-0.898,10.902-1.001,54.4-1.001c26.398,0,49.703,0.201,51.799,0.501c4.904,0.599,6.798,2.199,10.902,9.4
		c6.302,11.299,13.999,16.301,27.998,18.402c6.602,0.996,17.901,1.1,23.099,0.299c11.402-1.899,17.101-5.301,30-18.2
		c15-15.098,28.999-24.601,48.702-33.201c10.003-4.398,14.5-6.901,26.299-14.897c14.5-9.802,17.297-12.905,17.297-19.3
		c0-6.7-3.593-10.902-16.895-19.702c-12.703-8.398-18.402-13.498-23.703-21.298c-3.696-5.502-5.002-9.704-5.502-17.901
		c-0.196-3.799-0.599-6.401-1.099-8.001c-0.496-5.699-2.798-12.202-6.896-14.298c-5.699-3.004-7.701-2.101-9.601-0.903
		c6.401-7.201,8.501-10.597,10.597-16.797c3.701-11,2.906-23.301-3.495-55.304c-7.402-37.196-20.002-63.8-46.002-97.197
		c-16.502-21.303-23.197-31.9-39.297-62.102c-8.001-15.098-10.303-20.302-12.202-28.4c-2.798-11.702-4.104-22.201-6.204-52.098
		c-1.998-27.9-3.397-39.4-5.998-49.099c-6.901-26.403-27.595-46.405-56.496-54.7
		C-425.231-2401.907-430.532-2402.604-447.132-2402.604L-447.132-2402.604z"/>
	<g id="g8" transform="translate(104.88009,-79.427888)">
		<path id="path10" fill="#F7BF16" d="M-490.603-2158.163c0,13.95-16.615,16.895-24.675,21.896
			c-7.5,6.945-50.675,26.56-62.121,26.56c-18.397-3.887-40.789-31.34-43.68-49.565c0-10.617,13.503-19.119,21.062-26.064
			c7.5-6.946,16.168-13.503,30.953-10.725c11.447,0,29.338,5.448,36.843,12.394
			C-517.221-2178.666-490.603-2175.446-490.603-2158.163z"/>
		<path id="path12" fill="#F7BF16" d="M-793.126-1785.459c17.091,7.78,56.909,17.724,70.908,19.393
			c9.395,3.887,71.408,18.338,85.692,18.338c21.165-15.005,24.67-37.731,18.721-60.737c-26.393-42.62-46.787-98.469-96.132-117.695
			c-4.943,2.444-9.002,9.056-10.779,10.17c-3.559,2.278-7.505,7.22-10.003,13.39c-2.611,6.445-5.002,14.338-7.912,25.838
			c-5.699,11.447-28.979,1.114-44.922,9.449C-793.371-1849.696-783.446-1806.241-793.126-1785.459z"/>
		<path id="path14" fill="#F7BF16" d="M-333.787-1850.751c10.666,8.722,27.394,15.221,34.953,29.726
			c-14.392,17.175-26.785,23.232-45.01,31.9c-25.004,11.888-40.676,23.06-52.123,30.84c-11.451,10.003-38.011,16.115-50.071,14.446
			c-7.608-5.002-16.169-65.739-13.39-85.574c0-10.558-12.948-52.849,7.78-78.634c20.061-3.833,37.29,14.505,50.012,27.011
			c10.504-7.058,27.114-17.896,39.68-20.62c4.108-0.942,4.275-5.223,12.89-0.721c4.113,2.169,6.499,8.948,6.946,14.725
			C-341.4-1878.317-340.458-1858.531-333.787-1850.751z"/>
	</g>
	<g id="g16" transform="translate(104.88009,-79.427888)">
		<g id="g18" transform="matrix(0.55569,0,0,0.55569,249.6684,292.4824)">
			<path id="path20" fill="#010101" d="M-1618.666-3647.49c-12.596-2.005-28.496-7.005-65.7-22.003
				c-42.001-16.995-58.104-20.996-103.294-30.995c-29.105-5-69.914-15.502-77.89-18.7c-7.208-2.906-14.698-8.904-16.986-13.806
				c-1.069-2.199-1.634-6.095-1.634-11.094c0-6.802,0.724-9.805,5.971-25.307c9.513-28.195,9.972-39.696,2.57-64.693
				c-8.188-27.701-6.28-47.699,5.53-57.804c6.669-5.698,11.527-6.696,33.804-6.696c21.641,0,28.946-1.104,37.329-5.706
				c9.646-5.3,15.078-13.294,21.482-31.693c4.098-11.907,6.802-16.606,9.398-16.606c2.102,0,3.904,5.203,3.904,11.501
				c0,5.6-6.307,29.202-9.407,35.306c-3.295,6.598-7.8,11.695-12.993,14.698c-9.681,5.697-28.328,7.199-48.785,4.099
				c-13.064-2.102-20.572-1.599-25.572,1.396c-7.402,4.505-8.604,14.601-3.233,27.1c10.388,24.106,12.384,29.3,14.583,37.399
				c2.606,9.708,3.03,18.205,1.387,28.301c-1.625,9.999-4.496,16.306-12.985,28.204c-4.381,6.201-8.391,12.799-8.921,14.795
				c-1.502,5.406,0.707,9.504,6.669,12.605c5.061,2.5,77.228,21.199,128.203,32.7c15.697,4.001,44.298,10.997,63.501,15.997
				c19.291,5,39.298,9.001,44.501,9.999c16.094,2.005,30.995,0,41.295-5.998c14.301-9.001,24.3-29.697,25.501-53.802
				c0.795-15.899-2.703-30.2-11.995-48.697c-7.102-14.204-10.6-19.698-44.307-70.603c-59.5-89.594-85.292-119.494-107.304-124.096
				c-7.093-1.404-11.792-0.601-21.288,3.701c-9.107,4.099-12.207,4.293-14.407,0.998c-2.094-3.198-3.798-21.102-3.198-34.104
				c0.698-15.096,3.595-24.097,14.601-45.499c21.8-42.196,30.704-62.397,45.596-102.994c15.299-41.604,21.5-53.104,45.596-84.506
				c13.205-17.101,29.202-39.695,40.509-57.097c4.293-6.501,12.596-18.603,18.496-26.897c16.801-23.602,17.595-25.801,16.006-45.906
				c-2.403-30.297-6.404-131.896-6.404-165.099c-0.097-31.596,0.097-36.401,2.094-49.201c4.099-26.164,10.511-45.791,20.51-62.786
				c3.798-6.643,8.091-11.898,16.2-20.077c16.2-16.333,30.192-24.177,53.9-30.377c19.292-5.052,24.194-5.556,53.096-5.53
				c29.794,0.027,39.298,1.21,61.505,7.588c51.992,14.937,89.294,50.958,101.793,98.392c4.602,17.499,7.102,38.292,10.706,88.499
				c3.798,53.696,6.095,72.599,11.2,93.799c3.392,14.397,7.49,23.902,21.897,51.002c28.999,54.395,40.994,73.394,70.7,111.597
				c46.798,60.198,69.402,108.002,82.802,175.001c11.5,57.601,12.905,79.701,6.298,99.602c-4.001,11.995-7.897,17.993-21.606,33.097
				c-28.796,31.896-60.895,51.903-82.89,51.903c-19.998,0-38.3-13.603-51.409-38.3c-6.095-13.603-5.3-24.503-22.789-20.608
				c-8.506,2.305-15.511,12.605-17.604,25.907c-1.599,9.496-1.299,45.897,0.397,54.995c0.707,4.099,3.1,16.306,5.105,27.003
				c3.595,18.497,3.798,20.502,3.798,39.502c0,17.498-0.406,22.798-3.304,42.001c-2.703,17.993-3.198,24.194-2.897,33.999
				c0.397,11.395,0.601,12.499,3.992,19.601c4.099,9.001,13.108,19,20.899,24c17.207,10.997,41.206,11.995,61.408,1.996
				c5.697-2.994,14-9.001,28.001-19.998c22.701-18.399,39.599-30.103,52.398-36.595c4.894-2.403,16.695-6.907,26.199-10.008
				c39.396-12.693,57.397-20.298,67.396-28.593c11.907-9.708,17.604-20.201,15.511-28.107c-2.703-9.796-14.009-16.801-37.108-22.798
				c-17.392-4.602-21.597-6.695-28.699-14.495c-6.298-6.907-11.2-16.801-14.804-30.006c-3.498-12.896-3.993-33.795-0.989-42.001
				c2.093-5.794,4.196-8.497,6.589-8.497c2.809,0,4.205,4.902,5,18.002c1.007,14.601,3.304,22.295,9.999,32.1
				c9.504,14.098,19.61,23.196,42.505,38.397c23.902,15.802,30.501,23.399,30.501,35.5c0,11.501-5.097,17.101-31.101,34.599
				c-21.297,14.407-29.299,19-47.292,26.8c-35.509,15.502-60.701,32.7-87.801,59.703c-23.205,23.001-33.301,29.997-54.006,33
				c-9.301,0.998-29.6,0.998-41.498-0.998c-25.201-3.003-38.901-12.004-50.402-33c-7.296-13.002-10.706-16.005-19.503-17.004
				c-3.798,0-45.8-0.998-93.401-0.998c-78.19,0-87.598,0.998-97.694,1.996c-27.4,5.008-40.897,11.006-65.303,31.004
				c-13.806,12.004-20.095,15.997-26.8,19c-5.503,1.997-17.799,3.003-23.699,1.997H-1618.666z M-1528.463-3711.989
				c2.19-1.899,5.494-6.298,7.402-9.805c2.994-5.6,3.392-7.296,3.692-15.899c0.707-15.794-2.703-24.698-13.903-36.498
				c-7.694-8.1-8.798-11.598-4.399-13.603c4.099-1.793,9.31,0.503,18.603,8.303c17.595,14.902,28.001,17.401,66.407,16.597
				c41.295-0.998,63.792-5.3,86.494-16.695c14.698-7.402,24.397-15.802,36.701-32.099c8.701-11.404,12.605-15.299,17.498-17.304
				c8.1-3.401,12.402,3.198,12.207,18.903c-0.106,7.296-0.901,11.898-4.204,24.097c-9.001,32.506-11.801,50.799-9.301,60.1
				c1.501,5.397,6.201,9.504,10.502,9.098c3.003-0.3,3.092-0.495,3.904-6.298c0.389-3.295,2.094-14.495,3.798-24.998
				c1.59-10.405,3.595-23.902,4.496-29.997c2.094-15.802,3.701-64.808,3.798-118.001c0.097-45.906,0.097-46.003,2.5-53.007
				c1.899-5.397,3.604-8.1,7.499-11.995c6.104-5.998,11.801-8.197,24.706-9.098l8.595-0.707l1.201-6.095
				c2.906-13.903,11.2-21.8,27.604-26.199c5.3-1.404,10.6-1.899,21.994-1.899c16.5,0,21.102,0.998,36.004,8.197
				c6.696,3.198,12.499,4.302,12.499,2.403c0-1.502-8.1-9.107-14.601-13.7c-3.401-2.5-9.292-5.706-13.002-7.199
				c-5.097-2.102-6.996-3.401-7.19-4.902c-0.212-1.201,1.29-7.906,3.295-14.999c5.803-21.005,7.694-34.299,7.8-54.306
				c0.194-32.894-5.6-54.694-24.697-91.599c-17.701-34.201-36.41-59.296-51.205-68.694c-4.302-2.606-9.398-4.408-9.398-3.304
				c0,0.397,3.595,5.697,7.906,11.898c20.396,28.902,41.595,65.807,50.596,88.304c7.296,18.002,12.799,42.399,14.504,64.597
				c2.897,36.401-7.005,67.502-24.008,75.099c-3.392,1.599-7.199,2.199-15.493,2.403c-13.206,0.503-14.999-0.203-18.505-7.199
				l-2.5-5l-0.601-40.005c-1.095-68.094-4.293-79.692-39.996-144.2c-11.006-19.795-13.197-24.998-17.896-42.999
				c-9.61-36.993-18.903-58.696-33.513-78.297c-22.295-29.803-25.192-42.204-16.288-69.702c5.688-17.896,5.6-27.1-0.406-33.194
				c-4.399-4.505-7.8-6.104-27.895-12.508c-30.51-9.699-44.607-18.399-48.502-29.9c-3.895-11.297-1.104-29.697,5.892-38.795
				c5.009-6.598,11.412-9.398,21.208-9.398c6.492,0.097,9.098,0.601,13.594,2.597c6.907,3.303,12.402,8.002,15.21,13.302
				c2.995,5.698,2.897,19.194-0.212,29.096c-5.088,16.103-4.894,14.398-1.29,17.604c6.501,5.794,16.801,6.298,21.297,0.892
				c3.895-4.593,5.097-9.292,5.6-22.498c0.601-14.398-0.901-24-6.802-42.099c-8.1-24.804-16.2-32.002-40.694-36.004
				c-18.302-2.994-28.301-0.592-37.505,8.904c-14.398,14.999-21.606,38.901-18.699,62.9c1.599,13.303,1.298,13.903-6.201,11.5
				c-6.704-2.102-21.403-3.798-29.9-3.498c-9.098,0.397-9.902-0.407-9.902-10.6c-0.097-41.506-12.605-64.102-35.5-63.907
				c-15.9,0-28.796,12.102-33.601,31.305c-1.899,7.499-1.502,28.999,0.601,41.498c4.302,24.6,13.603,36.904,20.899,27.303
				c3.003-4.099,5.6-9.301,5.6-10.997c0-0.707-2.297-2.306-5-3.604c-3.003-1.396-5.697-3.604-6.899-5.6
				c-5.697-9.098-8.497-25.404-6.104-34.096c3.109-11.006,18.205-17.808,28.601-12.905c8.798,4.205,18.205,23.602,17.207,35.801
				c-0.804,9.698-2.606,12.702-11.404,19.203c-4.399,3.197-11.501,9.001-15.9,12.896c-4.399,3.904-9.796,8.4-12.004,10
				c-11.2,8.1-17.498,17.604-17.498,26.605c0,5.9,2.403,9.098,9.902,12.799c5.901,2.994,11.2,8.197,16.801,16.394
				c7.499,10.803,16.394,14.204,36.799,14.106c24.901-0.106,47.204-5.406,89.002-21.005c22.701-8.497,28.999-11.2,30.298-13.196
				c3.701-5.397,8.003-9.204,10.6-9.204c3.498,0,6.607,3.304,6.607,6.898c0,6.104-9.407,11.104-42.01,22.207
				c-9.593,3.294-24.494,9.301-33,13.293c-17.189,8.206-21.994,9.902-33.301,12.102c-9.292,1.802-30.792,2.005-42.593,0.406
				c-9.602-1.307-15.405-0.601-14.902,1.899c0.504,2.597,22.701,19.901,27.798,21.8c7.208,2.5,21.403,2.994,30.598,0.901
				c13.903-3.004,57.804-21.906,79.604-34.105c7.296-4.098,11.395-5.803,14-5.803c4.399-0.097,7.8,2.703,7.8,6.201
				c0,3.807-7.402,10.299-15.493,13.7c-14.31,5.803-17.304,7.402-31.508,16.403c-19.397,12.402-27.904,18.603-40.694,29.803
				c-13.709,11.898-17.604,13.497-32.806,13.7c-12.101,0.098-15.794-1.104-23.699-7.905c-6.201-5.3-20.996-23.699-25.201-31.393
				c-4.399-8.003-14.204-19.106-16.801-19.106c-1.696,0-1.899,0.397-4.796,13.002c-2.005,9.001-9.407,25.996-21.403,49.5
				c-14.398,28.302-15.104,30.801-15.104,60.498c0,24.803,0.601,22.701-11.501,39.501c-14.795,20.802-37.788,75.099-43.3,102.499
				c-4.196,20.502-7.093,55.401-6.289,75.002c0.601,15.599-0.203,20.201-3.904,22.498c-3.798,2.403-8.303-0.097-17.595-9.301
				c-14.61-14.698-19.309-26.897-19.203-50.198c0.097-14.795,1.396-26.199,4.293-37.196c2.509-9.407,2.606-12.101,0.3-11.607
				c-2.394,0.407-7.791,11.501-10.397,21.403c-1.599,5.901-2.199,12.004-2.597,24.397c-0.397,15.202-0.3,17.401,2.094,28.001
				c3.003,13.303,8.709,25.704,16.606,36.101c12.101,16.006,73.403,70.4,114.194,101.501c9.805,7.402,20.705,16.703,24.309,20.599
				c21.597,23.408,17.401,44.802-12.101,61.302c-4.602,2.606-8.409,4.903-8.409,5.106c0,0.194,3.807,5.494,8.409,11.598
				c16.898,22.798,26.694,39.502,30.103,51.197c2.297,7.702,2.191,18.806-0.3,25.898c-1.007,3.207-1.608,5.803-1.201,5.803
				C-1532.764-3708.491-1530.671-3710.488-1528.463-3711.989L-1528.463-3711.989z M-1511.167-4456.592
				c-3.101-5.9,2.703-10.998,12.596-10.998c3.507,0,6.607,0.398,6.907,0.999c0.698,1.201-2.703,2.994-5.706,2.994
				c-1.802,0-2.791,1.007-4.293,4.302c-1.608,3.498-2.509,4.302-5.203,4.505C-1509.26-4454.596-1510.267-4454.993-1511.167-4456.592
				z M-1451.862-4460.894c-5.803-2.103-10.299-5-9.204-6.095c0.3-0.301,3.701-0.804,7.499-1.202
				c9.001-0.804,12.402,0.495,12.402,4.496c0,2.005-0.698,3.401-1.899,4.099c-1.095,0.503-2.102,0.998-2.297,0.901
				C-1445.467-4458.694-1448.47-4459.692-1451.862-4460.894z M-1660.067-4180.593c9.602-9.902,12.304-14.902,11.704-22.003
				c-0.3-4.894-2.208-6.598-6.201-5.591c-2.897,0.698-4.505,3.692-7.102,12.799c-1.095,4.398-2.897,7.296-6.996,11.898
				c-5.503,6.201-6.501,8.498-4.311,10.697C-1670.667-4170.488-1668.768-4171.593-1660.067-4180.593z M-1275.465-4349.394
				c2.102-1.299,6.298-11.598,6.298-15.502c0-3.101-0.592-4.496-3.1-6.793c-1.696-1.607-3.498-2.906-3.993-2.906
				c-0.503,0-4.399-1.599-8.709-3.701c-5.194-2.5-9.796-5.6-14.292-9.999c-3.604-3.4-7.102-6.298-7.702-6.298
				c-0.601,0-1.396,1.201-1.802,2.597c-1.095,4.602,0.495,11.704,4.699,20.104c3.604,7.499,4.902,9.001,13.197,15.803
				C-1281.967-4348.793-1278.663-4347.389-1275.465-4349.394L-1275.465-4349.394z M-1516.061-4483.294
				c1.201-3.1,0.901-5.494-2.208-15.599c-1.299-4.399-3.198-8.1-5.194-10.3c-2.897-3.1-3.401-3.303-5.706-2.102
				c-3.295,1.802-3.003,5.803,0.901,10.202c2.897,3.304,5.406,9.602,6.607,16.8
				C-1520.866-4479.69-1517.669-4479.09-1516.061-4483.294L-1516.061-4483.294z M-1375.165-4486.095
				c2.199-2.597,0.601-14.999-2.403-19.601c-3.1-4.699-10.299-9.001-15.997-9.602c-3.798-0.495-4.505-0.194-5.6,1.705
				c-1.396,2.597-0.707,3.4,4.205,4.902c6.192,1.996,11.889,10.494,13.391,19.901c0.601,3.498,1.104,4.196,2.897,4.196
				C-1377.364-4484.593-1375.862-4485.291-1375.165-4486.095z M-1368.46-4620.79c7.19-4.974,7.694-5.194,14.592-5.371
				c8.798-0.229,10.706-0.972,10.706-4.072c0-4.832-16.606-19.547-23.602-20.846c-6.996-1.325-9.504,2.474-10.9,16.703
				c-0.601,5.327-1.307,7.544-3.604,10.397c-3.092,3.922-3.604,6.236-1.599,8.214
				C-1380.862-4613.715-1376.569-4615.226-1368.46-4620.79z"/>
		</g>
	</g>
</g>
</svg>
