<?xml version="1.0" encoding="utf-8"?>
<!-- Generator: Adobe Illustrator 16.0.0, SVG Export Plug-In . SVG Version: 6.00 Build 0)  -->
<!DOCTYPE svg PUBLIC "-//W3C//DTD SVG 1.1//EN" "http://www.w3.org/Graphics/SVG/1.1/DTD/svg11.dtd">
<svg version="1.1" id="Layer_1" xmlns="http://www.w3.org/2000/svg" xmlns:xlink="http://www.w3.org/1999/xlink" x="0px" y="0px" xmlns:inkscape="http://www.inkscape.org/namespaces/inkscape"
	 width="500px" height="499.999px" viewBox="0 0 500 499.999" enable-background="new 0 0 500 499.999" xml:space="preserve">
<g id="layer1" transform="translate(-35.433071,63.88618)" inkscape:groupmode="layer" inkscape:label="Layer 1">
	<path id="path154" inkscape:connector-curvature="0" fill="#FFFFFF" d="M295.936-63.886c-3.211-0.006-6.561,0.128-10.052,0.407
		c-88.271,7.109-64.861,100.362-66.171,131.59c-1.612,22.836-6.242,40.833-21.948,63.159
		c-18.452,21.943-44.431,57.458-56.738,94.429c-5.809,17.448-8.572,35.232-6.02,52.064c-0.799,0.716-1.561,1.466-2.285,2.238
		c-5.417,5.784-9.42,12.792-13.881,17.51c-4.167,4.158-10.104,5.738-16.628,8.08c-6.527,2.342-13.693,5.793-18.043,14.14
		c0,0,0,0.004-0.002,0.005c-0.007,0.014-0.015,0.027-0.022,0.041l0,0c-3.938,7.354-2.767,15.824-1.564,23.672
		c1.203,7.846,2.42,15.262,0.804,20.292c-5.166,14.119-5.825,23.886-2.188,30.969c3.645,7.1,11.137,10.232,19.605,12.001
		c16.937,3.537,39.874,2.658,57.951,12.239l1.553-2.931l-1.538,2.94c19.353,10.117,38.972,13.711,54.625,10.137
		c11.348-2.593,20.561-9.351,25.292-19.749c12.243-0.061,25.677-5.244,47.197-6.43c14.599-1.176,32.837,5.185,53.815,4.02
		c0.547,2.276,1.341,4.465,2.428,6.545c0.01,0.021,0.021,0.042,0.033,0.064c8.132,16.261,23.241,23.698,39.344,22.428
		c16.124-1.272,33.266-10.779,47.123-27.271l-2.541-2.134l2.56,2.111c13.208-16.016,35.131-22.655,49.667-31.424
		c7.269-4.384,13.167-9.874,13.622-17.847c0.456-7.969-4.224-16.898-14.98-28.841l-0.003-0.003c-0.005-0.005-0.008-0.01-0.013-0.015
		c-3.535-3.995-5.221-11.398-7.033-19.282c-1.812-7.879-3.832-16.378-10.301-21.886l0,0c-0.014-0.012-0.026-0.021-0.04-0.033l0,0
		c-2.573-2.244-5.249-3.766-7.942-4.788c8.992-26.673,5.465-53.232-3.614-77.232c-11.141-29.455-30.593-55.12-45.449-72.678
		c-16.628-20.974-32.893-40.888-32.572-70.299c0.495-44.888,4.938-128.131-74.053-128.239H295.936z M306.629,5.268
		c4.482,0,8.311,1.313,12.243,4.168c3.995,2.899,6.873,6.529,9.192,11.597c2.277,4.94,3.372,9.772,3.48,15.507
		c0,0.15,0,0.279,0.042,0.429c0.043,5.885-0.966,10.889-3.2,16c-1.273,2.917-2.738,5.365-4.49,7.484
		c-0.594-0.286-1.212-0.56-1.852-0.824l0,0c-4.441-1.902-7.848-3.112-10.687-4.098c1.029-1.237,1.886-2.704,2.64-4.538
		c1.138-2.771,1.696-5.477,1.804-8.698c0-0.129,0.043-0.236,0.043-0.386c0.065-3.093-0.344-5.735-1.245-8.441
		c-0.945-2.835-2.148-4.875-3.888-6.572c-1.74-1.697-3.479-2.47-5.562-2.535c-0.098-0.006-0.195-0.006-0.292-0.006
		c-1.959,0.006-3.661,0.678-5.421,2.152c-1.848,1.546-3.222,3.522-4.36,6.271c-1.139,2.749-1.696,5.477-1.805,8.72
		c-0.021,0.129-0.021,0.236-0.021,0.365c-0.037,1.783,0.076,3.416,0.352,5.001c-4.009-1.998-7.789-3.36-11.334-4.204
		c-0.202-1.534-0.319-3.116-0.356-4.771v-0.451c-0.064-5.863,0.902-10.889,3.157-16c2.255-5.112,5.047-8.785,8.977-11.77
		c3.931-2.985,7.797-4.36,12.372-4.403C306.487,5.268,306.559,5.268,306.629,5.268L306.629,5.268z M245.282,10.125
		c2.973,0.007,5.634,1,8.386,3.198c2.985,2.384,5.24,5.434,7.13,9.729s2.899,8.591,3.178,13.66v0.042
		c0.136,2.129,0.119,4.133-0.049,6.073c-0.588,0.167-1.164,0.348-1.729,0.542c-3.206,1.104-6.031,2.607-8.494,4.234
		c0.241-1.701,0.277-3.427,0.092-5.352c-0.021-0.107-0.021-0.193-0.021-0.301c-0.258-2.556-0.794-4.703-1.697-6.873
		c-0.966-2.255-2.04-3.844-3.458-5.069c-1.285-1.109-2.499-1.619-3.834-1.608c-0.138,0-0.278,0.008-0.418,0.02
		c-1.504,0.128-2.75,0.859-3.931,2.298s-1.954,3.221-2.513,5.584c-0.559,2.362-0.708,4.682-0.473,7.345
		c0,0.107,0.022,0.193,0.022,0.3c0.257,2.578,0.773,4.725,1.696,6.895c0.945,2.233,2.041,3.823,3.458,5.047
		c0.237,0.205,0.472,0.389,0.706,0.553c-1.474,1.135-2.178,1.658-3.387,2.546c-0.775,0.569-1.698,1.246-2.771,2.036
		c-2.339-2.191-4.164-4.945-5.76-8.572c-1.89-4.295-2.899-8.591-3.2-13.66v-0.042c-0.279-5.069,0.215-9.429,1.611-13.938
		c1.396-4.51,3.265-7.775,5.971-10.46c2.706-2.684,5.434-4.037,8.72-4.209C244.775,10.13,245.029,10.124,245.282,10.125
		L245.282,10.125z M273.182,45.289c6.911-0.027,15.228,2.239,25.295,8.712c6.185,4.022,10.998,4.357,22.078,9.104l0.014,0.006
		l0.014,0.005c5.331,2.188,8.459,5.039,9.989,8.041c1.529,3.003,1.566,6.259,0.287,9.684c-2.559,6.851-10.729,14.06-22.191,17.639
		l-0.011,0.005l-0.01,0.005c-5.59,1.816-10.463,5.826-16.209,9.112c-5.747,3.286-12.249,5.936-21.089,5.424l0,0
		c-7.527-0.439-12.026-2.994-16.094-6.264c-4.068-3.269-7.613-7.376-12.804-10.425l-0.013-0.008l-0.014-0.008
		c-8.361-4.726-12.927-10.192-14.359-14.931s-0.088-8.784,4.061-11.893c4.664-3.496,7.904-5.873,10.062-7.457
		c2.144-1.574,3.036-2.163,3.719-2.819c0.004-0.005,0.007-0.008,0.011-0.011l0.002-0.005c3.505-3.317,9.092-9.361,17.513-12.26
		C266.329,45.948,269.562,45.304,273.182,45.289L273.182,45.289z M321.509,73.871c-2.983,0.178-6.106,1.713-9.743,3.744
		c-3.637,2.03-7.727,4.627-12.159,7.186c-8.865,5.116-19.068,10.007-29.209,10.007c-10.156,0-18.271-4.69-24.357-9.513
		c-3.043-2.412-5.555-4.841-7.561-6.72c-1.003-0.939-1.874-1.74-2.685-2.365c-0.812-0.626-1.473-1.246-2.831-1.246l-0.065,2.854
		c-0.097,0.955-0.197,0.926-0.157,0.952c0.063,0.042,0.378,0.15,0.746,0.434c0.597,0.46,1.426,1.209,2.409,2.13
		c1.967,1.842,4.58,4.374,7.797,6.924c6.435,5.099,15.384,10.331,26.705,10.331c11.336,0,22.062-5.299,31.099-10.514
		c4.518-2.608,8.621-5.21,12.112-7.159c3.489-1.948,6.425-3.17,8.125-3.271L321.509,73.871L321.509,73.871z M331.585,87.437
		c7.529,29.681,25.042,72.551,36.298,93.473c5.983,11.1,17.886,34.683,23.028,63.097c3.259-0.1,6.847,0.373,10.689,1.356
		c13.446-34.857-11.401-72.403-22.763-82.859c-4.587-4.451-4.807-6.445-2.534-6.352c12.328,10.901,28.511,32.828,34.398,57.577
		c2.685,11.285,3.257,23.149,0.376,34.857c1.409,0.586,2.841,1.222,4.292,1.909c21.583,10.509,29.565,19.648,25.728,32.121
		c-1.266-0.045-2.509-0.039-3.721-0.011c-0.114,0.003-0.226,0.007-0.338,0.009c3.125-9.887-3.8-17.179-22.249-25.526
		c-19.137-8.419-34.385-7.582-36.963,9.493c-0.165,0.894-0.297,1.806-0.398,2.729c-1.43,0.497-2.868,1.131-4.308,1.919
		c-8.987,4.917-13.891,13.839-16.619,24.78c-2.726,10.933-3.506,24.15-4.259,39.008c0,0.004,0,0.006,0,0.008
		c-0.46,7.472-3.532,17.576-6.646,28.279c-31.348,22.36-74.856,32.049-111.796,6.839c-2.503-3.96-5.375-7.885-8.331-11.754
		c-1.888-2.472-3.827-4.927-5.755-7.35c3.792,0.003,7.016-0.618,9.621-1.799c3.239-1.469,5.516-3.828,6.642-6.857
		c2.252-6.058-0.01-14.604-7.22-24.363c-7.209-9.757-19.419-20.771-37.361-31.774c0,0-0.003,0-0.003-0.002
		c-13.181-8.201-20.553-18.253-24.003-29.166c-3.451-10.914-2.967-22.716-0.308-34.368c5.105-22.365,18.221-44.117,26.589-57.768
		c2.253-1.658,0.805,3.076-8.472,20.304c-8.314,15.751-23.858,52.1-2.576,80.473c0.568-20.191,5.391-40.785,13.486-60.048
		c11.791-26.729,36.455-73.079,38.414-110.022c1.01,0.733,4.481,3.075,6.027,3.955c0.003,0.005,0.007,0.005,0.01,0.005
		c4.524,2.665,7.923,6.559,12.324,10.096c4.41,3.544,9.919,6.605,18.242,7.09l0,0c9.715,0.562,17.119-2.447,23.185-5.916
		c6.058-3.464,10.897-7.297,15.48-8.793c0.008-0.004,0.015-0.004,0.021-0.007C319.5,99.051,327.202,93.69,331.585,87.437
		L331.585,87.437z M393.114,257.358c3.923-0.019,8.676,1.29,13.878,3.618c14.004,6.464,18.385,12.006,14.562,20.146
		c-3.222,6.142-17.009,15.914-26.459,13.337c-9.644-2.491-14.347-16.387-12.779-26.889
		C383.156,260.437,387.189,257.386,393.114,257.358L393.114,257.358z M377.27,276.549c0.792,12.844,7.145,25.941,18.382,28.776
		c12.297,3.24,30.028-7.311,37.514-15.916c1.492-0.061,2.952-0.134,4.369-0.168c6.566-0.158,12.074,0.217,17.701,5.138l0.02,0.017
		l0.021,0.017c4.324,3.663,6.38,10.588,8.163,18.344c1.782,7.756,3.208,16.203,8.554,22.221l0.008,0.009l0.008,0.01
		c10.278,11.406,13.582,19.115,13.301,24.035c-0.281,4.922-3.845,8.574-10.423,12.542c-13.152,7.933-36.457,14.831-51.342,32.861
		c-12.924,15.381-28.685,23.828-42.564,24.924c-13.88,1.096-25.855-4.666-32.916-18.836l-0.016-0.031l-0.016-0.032
		c-4.381-8.331-2.556-21.479,1.134-35.35c3.689-13.868,8.991-28.108,9.7-39.685v-0.018v-0.018c0.75-14.83,1.581-27.781,4.072-37.774
		c2.491-9.993,6.414-16.761,13.364-20.563c0.323-0.177,0.644-0.344,0.964-0.502H377.27z M151.565,277.519
		c1.038,0.004,2.135,0.09,3.305,0.268c7.868,1.192,14.729,6.693,21.338,15.658c6.61,8.967,12.76,21.205,19.083,34.78l0.008,0.018
		l0.007,0.016c5.081,10.604,15.803,22.265,24.888,34.159c9.086,11.896,16.118,23.836,15.202,32.975l-0.004,0.04l-0.003,0.039
		c-1.185,15.587-9.977,24.072-23.474,27.155c-13.493,3.081-31.785,0.01-50.055-9.539c-0.005-0.003-0.011-0.005-0.016-0.008
		c-20.213-10.706-44.26-9.643-59.685-12.864c-7.714-1.612-12.749-4.034-15.059-8.535c-2.311-4.5-2.362-12.354,2.548-25.741
		l0.021-0.059l0.02-0.061c2.428-7.49,0.631-15.685-0.547-23.377c-1.179-7.691-1.755-14.688,0.871-19.564l0.012-0.022l0.012-0.022
		c3.363-6.482,8.295-8.8,14.417-10.996c6.122-2.196,13.38-3.921,19.113-9.666l0.03-0.03l0.029-0.03
		c5.299-5.591,9.28-12.6,13.938-17.572c3.931-4.197,7.864-6.979,13.794-7.02C151.428,277.519,151.497,277.519,151.565,277.519
		L151.565,277.519z"/>
</g>
</svg>
