<?xml version="1.0" encoding="utf-8"?>
<!-- Generator: Adobe Illustrator 16.0.0, SVG Export Plug-In . SVG Version: 6.00 Build 0)  -->
<!DOCTYPE svg PUBLIC "-//W3C//DTD SVG 1.1//EN" "http://www.w3.org/Graphics/SVG/1.1/DTD/svg11.dtd">
<svg version="1.1" id="Layer_1" xmlns="http://www.w3.org/2000/svg" xmlns:xlink="http://www.w3.org/1999/xlink" x="0px" y="0px"
	 width="99.994px" height="100px" viewBox="0 0 99.994 100" enable-background="new 0 0 99.994 100" xml:space="preserve">
<g>
	<g>
		<g>
			<g>
				<path d="M99.682,55.497c0.188-1.799,0.312-3.637,0.312-5.5s-0.125-3.7-0.319-5.506l-13.662-4.863
					c-0.794-2.737-1.875-5.343-3.231-7.787l6.212-13.068c-2.306-2.875-4.918-5.488-7.793-7.793l-13.087,6.212
					c-2.431-1.35-5.043-2.425-7.768-3.212l-4.85-13.662C53.697,0.119,51.86,0,49.997,0c-1.862,0-3.7,0.119-5.505,0.319L39.629,13.98
					c-2.737,0.788-5.35,1.862-7.781,3.212l-13.074-6.212c-2.875,2.306-5.487,4.918-7.793,7.793l6.212,13.068
					c-1.35,2.438-2.425,5.05-3.212,7.787L0.312,44.491C0.119,46.297,0,48.134,0,49.997c0,1.862,0.119,3.7,0.319,5.505l13.668,4.863
					c0.787,2.737,1.856,5.337,3.212,7.781L10.987,81.22c2.306,2.875,4.918,5.494,7.793,7.793l13.068-6.212
					c2.438,1.351,5.05,2.425,7.787,3.219l4.863,13.668c1.799,0.187,3.637,0.312,5.5,0.312s3.7-0.125,5.506-0.319l4.863-13.674
					c2.737-0.788,5.336-1.856,7.78-3.212l13.074,6.212c2.875-2.306,5.494-4.918,7.793-7.793L82.802,68.14
					c1.35-2.45,2.425-5.062,3.218-7.781L99.682,55.497z M49.997,74.996c-13.805,0-24.999-11.194-24.999-24.999
					s11.193-24.999,24.999-24.999s24.999,11.193,24.999,24.999S63.802,74.996,49.997,74.996z"/>
				<circle cx="49.997" cy="49.997" r="12.499"/>
			</g>
		</g>
	</g>
</g>
</svg>
