<?xml version="1.0" encoding="utf-8"?>
<!-- Generator: Adobe Illustrator 16.0.0, SVG Export Plug-In . SVG Version: 6.00 Build 0)  -->
<!DOCTYPE svg PUBLIC "-//W3C//DTD SVG 1.1//EN" "http://www.w3.org/Graphics/SVG/1.1/DTD/svg11.dtd">
<svg version="1.1" id="Layer_1" xmlns="http://www.w3.org/2000/svg" xmlns:xlink="http://www.w3.org/1999/xlink" x="0px" y="0px"
	 width="612px" height="612px" viewBox="0 0 612 612" enable-background="new 0 0 612 612" xml:space="preserve">
<g>
	<g>
		<path fill="#040305" d="M306,0C187.393,0,91.235,96.158,91.235,214.765c0,9.08,0.728,17.929,1.839,26.702
			c18.351,167.759,198.981,361.109,198.981,361.109c3.218,3.601,6.321,5.822,9.309,7.432l0.153,0.076l6.015,1.916l6.015-1.916
			l0.152-0.076c2.988-1.609,6.092-3.946,9.31-7.432c0,0,178.026-193.695,195.955-361.492c1.072-8.658,1.801-17.431,1.801-26.357
			C520.727,96.158,424.607,0,306,0z M306,352.91c-76.16,0-138.146-61.985-138.146-138.145c0-76.16,61.985-138.146,138.146-138.146
			c76.16,0,138.107,61.985,138.107,138.146C444.107,290.925,382.16,352.91,306,352.91z"/>
	</g>
</g>
</svg>
