<?xml version="1.0" encoding="utf-8"?>
<!-- Generator: Adobe Illustrator 16.0.0, SVG Export Plug-In . SVG Version: 6.00 Build 0)  -->
<!DOCTYPE svg PUBLIC "-//W3C//DTD SVG 1.1//EN" "http://www.w3.org/Graphics/SVG/1.1/DTD/svg11.dtd">
<svg version="1.1" id="Layer_1" xmlns="http://www.w3.org/2000/svg" xmlns:xlink="http://www.w3.org/1999/xlink" x="0px" y="0px"
	 width="128px" height="128px" viewBox="0 0 128 128" enable-background="new 0 0 128 128" xml:space="preserve">
<path d="M105.669,52.888H75.11V22.332c0-4.6-3.73-8.332-8.332-8.332h-5.554c-4.602,0-8.334,3.732-8.334,8.332v30.557H22.333
	c-4.602,0-8.334,3.732-8.334,8.332v5.558c0,4.602,3.732,8.332,8.334,8.332h30.555v30.553c0,4.602,3.732,8.337,8.334,8.337h5.556
	c4.602,0,8.332-3.735,8.332-8.337V75.11h30.557c4.598,0,8.333-3.73,8.333-8.332V61.22C114.002,56.623,110.267,52.888,105.669,52.888
	z"/>
</svg>
