<?xml version="1.0" encoding="utf-8"?>
<!-- Generator: Adobe Illustrator 16.0.0, SVG Export Plug-In . SVG Version: 6.00 Build 0)  -->
<!DOCTYPE svg PUBLIC "-//W3C//DTD SVG 1.1//EN" "http://www.w3.org/Graphics/SVG/1.1/DTD/svg11.dtd">
<svg version="1.1" id="Layer_1" xmlns="http://www.w3.org/2000/svg" xmlns:xlink="http://www.w3.org/1999/xlink" x="0px" y="0px"
	 width="128px" height="128px" viewBox="0 0 128 128" enable-background="new 0 0 128 128" xml:space="preserve">
<polygon fill="#CCCCCC" points="64,0 16.54,30.118 16.54,97.882 64,128 111.461,97.882 111.461,30.118 "/>
<path fill="#FFFFFF" d="M84.834,58.444H69.555V43.166c0-2.3-1.865-4.166-4.166-4.166h-2.777c-2.301,0-4.167,1.866-4.167,4.166
	v15.278H43.167c-2.301,0-4.167,1.866-4.167,4.166v2.778c0,2.301,1.866,4.166,4.167,4.166h15.277v15.277
	c0,2.301,1.866,4.168,4.167,4.168h2.777c2.301,0,4.166-1.867,4.166-4.168V69.555h15.279c2.299,0,4.166-1.865,4.166-4.166V62.61
	C89,60.311,87.133,58.444,84.834,58.444z"/>
</svg>
