<?xml version="1.0" encoding="utf-8"?>
<!-- Generator: Adobe Illustrator 16.0.0, SVG Export Plug-In . SVG Version: 6.00 Build 0)  -->
<!DOCTYPE svg PUBLIC "-//W3C//DTD SVG 1.1//EN" "http://www.w3.org/Graphics/SVG/1.1/DTD/svg11.dtd">
<svg version="1.1"
	 id="Layer_1" xmlns:dc="http://purl.org/dc/elements/1.1/" xmlns:sodipodi="http://sodipodi.sourceforge.net/DTD/sodipodi-0.dtd" xmlns:cc="http://creativecommons.org/ns#" xmlns:rdf="http://www.w3.org/1999/02/22-rdf-syntax-ns#" xmlns:inkscape="http://www.inkscape.org/namespaces/inkscape" xmlns:svg="http://www.w3.org/2000/svg" sodipodi:docname="logo_mongo.svg" inkscape:version="0.48.4 r9939"
	 xmlns="http://www.w3.org/2000/svg" xmlns:xlink="http://www.w3.org/1999/xlink" x="0px" y="0px" width="126px" height="126px"
	 viewBox="-34.696 0 126 126" enable-background="new -34.696 0 126 126" xml:space="preserve">
<sodipodi:namedview  showgrid="false" inkscape:zoom="1.8730159" pagecolor="#ffffff" inkscape:cx="28.304501" guidetolerance="10" gridtolerance="10" inkscape:cy="63" borderopacity="1" objecttolerance="10" bordercolor="#666666" id="namedview4537" inkscape:window-height="898" inkscape:window-width="1501" inkscape:window-x="0" inkscape:pageopacity="0" inkscape:pageshadow="2" inkscape:window-y="0" inkscape:window-maximized="0" inkscape:current-layer="layer1_4_">
	</sodipodi:namedview>
<g id="layer1_4_" transform="translate(268,-635.29076)" inkscape:label="BACKGROUND" inkscape:groupmode="layer">
	<g id="g904" transform="matrix(0.18303902,0,0,0.18303902,-61.510334,551.26852)">
		
			<linearGradient id="path1268_1_" gradientUnits="userSpaceOnUse" x1="39803.3711" y1="114993.6875" x2="39730.3008" y2="114946.8203" gradientTransform="matrix(0.0335 0 0 0.0335 -2138.8008 -2941.1804)">
			<stop  offset="0" style="stop-color:#E3E2CE"/>
			<stop  offset="0.4508" style="stop-color:#CECEB5"/>
			<stop  offset="1" style="stop-color:#95966F"/>
		</linearGradient>
		<path id="path1268_11_" inkscape:connector-curvature="0" sodipodi:nodetypes="cssccccssc" fill="url(#path1268_1_)" d="
			M-977.542,459.049c-1.91-0.304,3.932,11.06-10.084,28.816c-15.099,19.13-136.657,97.785-140.44,309.699
			c-2.577,144.362,111.47,245.15,140.462,263.941c0,0,10.687,37.117,11.039,80.92l19.159,4.994
			c-2.289-45.035-2.956-71.071,10.062-90.95c18.257-8.59,133.254-107.015,128.351-259.206
			c-5.847-181.295-107.65-259.913-136.62-297.713C-968.136,483.209-973.493,459.401-977.542,459.049z"/>
		
			<linearGradient id="path871_1_" gradientUnits="userSpaceOnUse" x1="37042.2188" y1="118877.3281" x2="37041.9922" y2="118315.3594" gradientTransform="matrix(0.0335 0 0 0.0335 -2138.8008 -2941.1804)">
			<stop  offset="0" style="stop-color:#198332"/>
			<stop  offset="1" style="stop-color:#24933B"/>
		</linearGradient>
		<path id="path871_11_" inkscape:connector-curvature="0" sodipodi:nodetypes="cscssc" fill="url(#path871_1_)" d="
			M-977.542,459.049c10.537,34.084,8.59,189.285,10.868,338.216c2.065,135.068-23.321,239.895,19.33,259.209
			c18.257-8.59,133.254-107.015,128.351-259.211c-5.847-181.295-107.65-259.91-136.62-297.711
			C-968.136,483.209-973.493,459.401-977.542,459.049z"/>
		
			<linearGradient id="path873_1_" gradientUnits="userSpaceOnUse" x1="30006.0449" y1="114710.9453" x2="30285.5586" y2="114450.4375" gradientTransform="matrix(0.0335 0 0 0.0335 -2138.8008 -2941.1804)">
			<stop  offset="0" style="stop-color:#0F9B36"/>
			<stop  offset="1" style="stop-color:#64BB66"/>
		</linearGradient>
		<path id="path873_11_" inkscape:connector-curvature="0" fill="url(#path873_1_)" d="M-977.521,459.046
			c-1.91-0.304,3.895,11.065-10.116,28.821c-15.099,19.132-136.652,97.78-140.44,309.694
			c-2.577,144.365,111.502,245.132,140.494,263.922c7.971-3.66,11.791-41.279,15.259-84.873
			c0.261-46.209,6.712-108.589,5.629-179.321c-2.134-139.626-0.544-284.797-9.022-330.477c-0.021-0.117-0.032-0.211-0.053-0.328
			C-976.342,464.005-976.923,461.524-977.521,459.046z"/>
	</g>
</g>
<g id="g4507">
</g>
<g id="g4509">
</g>
<g id="g4511">
</g>
<g id="g4513">
</g>
<g id="g4515">
</g>
<g id="g4517">
</g>
<g id="g4519">
</g>
<g id="g4521">
</g>
<g id="g4523">
</g>
<g id="g4525">
</g>
<g id="g4527">
</g>
<g id="g4529">
</g>
<g id="g4531">
</g>
<g id="g4533">
</g>
<g id="g4535">
</g>
</svg>
