<?xml version="1.0" encoding="utf-8"?>
<!-- Generator: Adobe Illustrator 16.0.0, SVG Export Plug-In . SVG Version: 6.00 Build 0)  -->
<!DOCTYPE svg PUBLIC "-//W3C//DTD SVG 1.1//EN" "http://www.w3.org/Graphics/SVG/1.1/DTD/svg11.dtd">
<svg version="1.1" id="Layer_1" xmlns="http://www.w3.org/2000/svg" xmlns:xlink="http://www.w3.org/1999/xlink" x="0px" y="0px"
	 width="216.55px" height="216.55px" viewBox="0 0 216.55 216.55" enable-background="new 0 0 216.55 216.55" xml:space="preserve">
<g>
	<path fill="#A271B0" d="M216.539,0.111c0,0-32.81-0.925-65.61,15.493c-10.02,4.556-20.956,11.844-30.068,20.957
		c-14.736,14.736-37.623,41.859-55.652,63.785H25.182L6.958,127.682l30.905,8.356c0.098,1.104,0.382,2.661,1.246,4.761
		l-4.805,10.562c0,0-1.824,3.648,11.844,18.225c14.585,14.594,19.141,12.761,19.141,12.761l11.328-5.144
		c1.691,0.534,2.946,0.712,3.765,0.712l8.596,31.768l27.337-18.224v-41.254c22.077-17.851,49.174-40.284,63.785-54.424
		c9.112-9.112,16.4-20.049,21.864-30.069C217.437,32.912,216.539,0.111,216.539,0.111z M152.752,82.121
		c-10.028,0-18.224-8.204-18.224-18.224c0-10.038,8.196-18.224,18.224-18.224c10.02,0,18.225,8.187,18.225,18.224
		C170.977,73.917,162.764,82.121,152.752,82.121z"/>
</g>
<path fill="#ABDFE9" d="M59.348,188.987c1.824,0.916,2.731,1.824,4.556,2.731c-1.824,1.824-3.648,4.557-5.473,6.381
	c-20.974,20.956-58.312,18.224-58.312,18.224s-2.731-37.375,18.225-58.313c1.824-1.833,4.556-3.63,6.38-5.473
	c0.908,1.824,1.815,2.732,2.732,4.557c-13.668,17.299-11.844,43.736-11.844,43.736S42.022,202.655,59.348,188.987z"/>
</svg>
