<?xml version="1.0" encoding="utf-8"?>
<!-- Generator: Adobe Illustrator 16.0.0, SVG Export Plug-In . SVG Version: 6.00 Build 0)  -->
<!DOCTYPE svg PUBLIC "-//W3C//DTD SVG 1.1//EN" "http://www.w3.org/Graphics/SVG/1.1/DTD/svg11.dtd">
<svg version="1.1" id="Layer_1" xmlns="http://www.w3.org/2000/svg" xmlns:xlink="http://www.w3.org/1999/xlink" x="0px" y="0px"
	 width="500px" height="500px" viewBox="0 0 500 500" enable-background="new 0 0 500 500" xml:space="preserve">
<g>
	<polygon fill="#EFEEEE" points="250,0 64.61,117.647 64.61,382.353 250,500 435.39,382.353 435.39,117.647 	"/>
	<polygon fill="#DEDEDD" points="110.957,147.06 250,58.826 250,0 64.61,117.647 	"/>
	<polygon fill="#EFEEEE" points="250,58.826 110.957,147.06 250,235.292 	"/>
	<polygon fill="#EFEEEE" points="250,0 250,58.826 389.045,147.06 435.39,117.647 	"/>
	<polygon fill="#FFFFFF" points="250,235.292 250,58.826 389.045,147.06 389.045,338.234 	"/>
	<polygon fill="#DEDEDD" points="110.957,147.06 110.957,338.234 250,426.466 250,235.292 	"/>
	<polygon fill="#CDCCCC" points="250,235.292 250,426.466 389.045,338.234 	"/>
	<polygon fill="#DEDEDD" points="250,426.466 250,500 435.39,382.353 435.39,117.647 389.045,147.06 389.045,338.234 	"/>
	<polygon fill="#BCBCBB" points="250,235.292 389.045,147.06 389.045,338.234 	"/>
	<polygon fill="#EFEEEE" points="250,0 64.61,117.647 64.61,382.353 250,500 435.39,382.353 435.39,117.647 	"/>
	<polygon fill="#DEDEDD" points="110.957,147.06 250,58.826 250,0 64.61,117.647 	"/>
	<polygon fill="#EFEEEE" points="250,58.826 110.957,147.06 250,235.292 	"/>
	<polygon fill="#EFEEEE" points="250,0 250,58.826 389.045,147.06 435.39,117.647 	"/>
	<polygon fill="#FFFFFF" points="250,235.292 250,58.826 389.045,147.06 389.045,338.234 	"/>
	<polygon fill="#DEDEDD" points="110.957,147.06 110.957,352.942 250.001,441.174 250,235.292 	"/>
	<polygon fill="#CDCCCC" points="250,235.292 250.001,441.174 389.045,352.942 	"/>
	<polygon fill="#DEDEDD" points="250.001,441.174 250,500 435.39,382.353 435.39,117.647 389.045,147.06 389.045,352.942 	"/>
	<polygon fill="#BCBCBB" points="250,235.292 389.045,147.06 389.045,352.942 	"/>
</g>
</svg>
