<?xml version="1.0" encoding="utf-8"?>
<!-- Generator: Adobe Illustrator 16.0.0, SVG Export Plug-In . SVG Version: 6.00 Build 0)  -->
<!DOCTYPE svg PUBLIC "-//W3C//DTD SVG 1.1//EN" "http://www.w3.org/Graphics/SVG/1.1/DTD/svg11.dtd">
<svg version="1.1" id="Layer_1" xmlns="http://www.w3.org/2000/svg" xmlns:xlink="http://www.w3.org/1999/xlink" x="0px" y="0px"
	 width="126.73px" height="126.73px" viewBox="0 0 126.73 126.73" enable-background="new 0 0 126.73 126.73" xml:space="preserve">
<g>
	<path fill="#FFFFFF" d="M121.216,44.213l-34.899-3.3c-2.199-0.2-4.101-1.6-5-3.7l-12.5-30.3c-2-5-9.101-5-11.101,0l-12.4,30.3
		c-0.8,2.101-2.8,3.5-5,3.7l-34.899,3.3c-5.2,0.5-7.3,7-3.4,10.5l26.3,23.101c1.7,1.5,2.4,3.7,1.9,5.899l-7.9,32.399
		c-1.199,5.101,4.301,9.3,8.9,6.601l29.1-17.101c1.9-1.101,4.2-1.101,6.101,0l29.101,17.101c4.601,2.699,10.101-1.399,8.899-6.601
		l-7.8-32.399c-0.5-2.199,0.199-4.399,1.899-5.899l26.3-23.101C128.616,51.213,126.416,44.713,121.216,44.213z"/>
</g>
</svg>
