<?xml version="1.0" encoding="utf-8"?>
<!-- Generator: Adobe Illustrator 16.0.0, SVG Export Plug-In . SVG Version: 6.00 Build 0)  -->
<!DOCTYPE svg PUBLIC "-//W3C//DTD SVG 1.1//EN" "http://www.w3.org/Graphics/SVG/1.1/DTD/svg11.dtd">
<svg version="1.1" id="Layer_1" xmlns="http://www.w3.org/2000/svg" xmlns:xlink="http://www.w3.org/1999/xlink" x="0px" y="0px"
	 width="400px" height="400px" viewBox="0 0 400 400" enable-background="new 0 0 400 400" xml:space="preserve">
<rect fill="#EC6346" width="400" height="400"/>
<g>
	<g>
		<rect x="79.386" y="70.2" fill="#FFFFFF" width="230.71" height="275.8"/>
		<g>
			<defs>
				<rect id="SVGID_1_" x="79.386" y="70.2" width="230.71" height="275.8"/>
			</defs>
			<clipPath id="SVGID_2_">
				<use xlink:href="#SVGID_1_"  overflow="visible"/>
			</clipPath>
			<g clip-path="url(#SVGID_2_)">
				<g>
					<rect x="100.632" y="70.2" fill="#F1E4C4" width="1.856" height="275.8"/>
					<rect x="138.277" y="70.2" fill="#F1E4C4" width="1.857" height="275.8"/>
					<rect x="175.924" y="70.2" fill="#F1E4C4" width="1.857" height="275.8"/>
					<rect x="213.57" y="70.2" fill="#F1E4C4" width="1.857" height="275.8"/>
					<rect x="251.217" y="70.2" fill="#F1E4C4" width="1.857" height="275.8"/>
					<rect x="288.863" y="70.2" fill="#F1E4C4" width="1.857" height="275.8"/>
				</g>
				<g>
					<rect x="112.665" y="70.116" fill="#F1E4C4" width="0.696" height="275.801"/>
					<rect x="150.312" y="70.116" fill="#F1E4C4" width="0.696" height="275.801"/>
					<rect x="187.958" y="70.116" fill="#F1E4C4" width="0.696" height="275.801"/>
					<rect x="225.604" y="70.116" fill="#F1E4C4" width="0.696" height="275.801"/>
					<rect x="263.251" y="70.116" fill="#F1E4C4" width="0.696" height="275.801"/>
					<rect x="300.897" y="70.116" fill="#F1E4C4" width="0.696" height="275.801"/>
				</g>
				<g>
					<rect x="125.355" y="70.116" fill="#F1E4C4" width="0.696" height="275.801"/>
					<rect x="163.002" y="70.116" fill="#F1E4C4" width="0.696" height="275.801"/>
					<rect x="200.648" y="70.116" fill="#F1E4C4" width="0.696" height="275.801"/>
					<rect x="238.295" y="70.116" fill="#F1E4C4" width="0.696" height="275.801"/>
					<rect x="275.941" y="70.116" fill="#F1E4C4" width="0.696" height="275.801"/>
					<rect x="89.759" y="71.128" fill="#F1E4C4" width="0.696" height="275.801"/>
				</g>
				<g>
					<rect x="78.457" y="101.719" fill="#F1E4C4" width="231.69" height="1.857"/>
					<rect x="78.457" y="139.365" fill="#F1E4C4" width="231.69" height="1.857"/>
					<rect x="78.457" y="177.011" fill="#F1E4C4" width="231.69" height="1.857"/>
					<rect x="78.457" y="214.658" fill="#F1E4C4" width="231.69" height="1.857"/>
					<rect x="78.457" y="252.304" fill="#F1E4C4" width="231.69" height="1.858"/>
					<rect x="78.457" y="289.95" fill="#F1E4C4" width="231.69" height="1.857"/>
				</g>
				<g>
					<rect x="79.386" y="328.807" fill="#F1E4C4" width="231.691" height="1.857"/>
				</g>
				<g>
					<rect x="73.896" y="78.244" fill="#F1E4C4" width="275.801" height="0.696"/>
					<rect x="75.755" y="115.89" fill="#F1E4C4" width="275.801" height="0.696"/>
					<rect x="75.755" y="153.536" fill="#F1E4C4" width="275.801" height="0.696"/>
					<rect x="75.755" y="191.183" fill="#F1E4C4" width="275.801" height="0.696"/>
					<rect x="72.969" y="228.829" fill="#F1E4C4" width="275.8" height="0.696"/>
					<rect x="75.755" y="266.476" fill="#F1E4C4" width="275.801" height="0.696"/>
					<rect x="73.813" y="278.516" fill="#F1E4C4" width="275.801" height="0.697"/>
					<rect x="79.388" y="304.518" fill="#F1E4C4" width="230.914" height="0.696"/>
					
						<rect x="79.387" y="316.564" transform="matrix(1 0.0029 -0.0029 1 0.9228 -0.5631)" fill="#F1E4C4" width="229.274" height="0.696"/>
				</g>
				<g>
					<rect x="80.397" y="90.934" fill="#F1E4C4" width="275.801" height="0.697"/>
					<rect x="80.397" y="128.581" fill="#F1E4C4" width="275.801" height="0.696"/>
					<rect x="80.397" y="166.227" fill="#F1E4C4" width="275.801" height="0.697"/>
					<rect x="80.397" y="203.873" fill="#F1E4C4" width="275.801" height="0.697"/>
					<rect x="80.397" y="241.52" fill="#F1E4C4" width="275.801" height="0.696"/>
				</g>
			</g>
		</g>
	</g>
	<g>
		<path fill="#424143" d="M127.428,271.975c-0.588,0-1.165-0.141-1.736-0.441c-4.468-2.352-4.65-15.66-2.247-27.167
			c1.87-8.952,9.989-38.311,35.939-40.2l0.144,1.979c-24.565,1.787-32.344,30.018-34.143,38.627
			c-2.701,12.934-1.52,23.56,1.23,25.008c2.346,1.23,6.35-3.696,10.59-8.913c8.032-9.884,19.03-23.421,33.549-16.466l-0.856,1.789
			c-13.108-6.281-23.113,6.033-31.154,15.928C134.347,267.527,130.733,271.974,127.428,271.975z"/>
		<path fill="#424143" d="M270.711,271.975c-3.305,0-6.918-4.445-11.315-9.857c-8.248-10.15-18.517-22.783-32.079-15.457
			l-0.943-1.744c15.007-8.105,26.311,5.798,34.562,15.951c4.241,5.218,8.253,10.145,10.589,8.912
			c2.523-1.328,4.145-11.797,1.055-25.828c-1.887-8.561-9.961-36.592-34.676-37.852l0.102-1.979
			c26.116,1.329,34.548,30.497,36.51,39.404c2.612,11.858,2.554,25.577-2.066,28.009
			C271.877,271.834,271.299,271.975,270.711,271.975z"/>
		<path fill="#424143" d="M198.698,271.647c-23.024,0-41.756-40.774-41.756-90.892c0-28.743,10.997-52.471,17.553-64.056
			c8.514-15.046,19.146-26.833,24.203-26.833c5.061,0,15.693,11.787,24.208,26.833c6.555,11.585,17.553,35.312,17.553,64.056
			C240.459,230.873,221.726,271.647,198.698,271.647z M198.698,91.849c-6.388,0-39.773,37.933-39.773,88.907
			c0,49.025,17.843,88.909,39.773,88.909c21.934,0,39.777-39.884,39.777-88.909C238.476,129.78,205.088,91.849,198.698,91.849z"/>
		<polygon fill="#424143" points="219.585,287.428 180.415,287.428 184.436,265.588 186.386,265.947 182.797,285.445 
			217.266,285.445 213.808,263.537 215.766,263.229 		"/>
		<g>
			<path fill="#424143" d="M197.743,167.27c-10.689,0-19.386-8.695-19.386-19.381c0-10.688,8.696-19.384,19.386-19.385
				c10.687,0,19.381,8.695,19.381,19.384C217.124,158.575,208.43,167.27,197.743,167.27z M197.743,130.487
				c-9.597,0.001-17.403,7.807-17.403,17.402c0,9.594,7.807,17.398,17.403,17.398c9.593,0,17.397-7.805,17.397-17.399
				C215.141,138.292,207.336,130.487,197.743,130.487z"/>
		</g>
		<g>
			<path fill="#424143" d="M198.702,208.525c-7.931,0-14.382-6.451-14.382-14.38c0-7.93,6.451-14.382,14.38-14.382
				c7.93,0.001,14.382,6.454,14.382,14.382C213.082,202.074,206.631,208.525,198.702,208.525z M198.7,181.747
				c-6.835,0-12.396,5.562-12.396,12.399c0,6.836,5.562,12.397,12.396,12.397h0.002c6.836,0,12.396-5.562,12.396-12.397
				C211.099,187.31,205.537,181.748,198.7,181.747z"/>
		</g>
		<g>
			<defs>
				<path id="SVGID_3_" d="M198.698,271.152c-22.751,0-41.261-40.553-41.261-90.397c0-49.785,33.175-90.394,41.261-90.394
					c8.088,0,41.265,40.607,41.265,90.394C239.963,230.6,221.452,271.152,198.698,271.152z M198.698,91.353
					c-3.417,0-13.28,9.063-22.909,26.079c-6.483,11.458-17.359,34.921-17.359,63.324c0,49.297,18.064,89.405,40.269,89.405
					c22.207,0,40.273-40.107,40.273-89.405c0-28.403-10.877-51.866-17.36-63.324C211.982,100.416,202.118,91.353,198.698,91.353z"/>
			</defs>
			<use xlink:href="#SVGID_3_"  overflow="visible" fill="#424143"/>
			<clipPath id="SVGID_4_">
				<use xlink:href="#SVGID_3_"  overflow="visible"/>
			</clipPath>
			<path clip-path="url(#SVGID_4_)" fill="#424143" d="M200.015,308.125c-40.79,0-73.977-20.944-73.977-46.689
				c0-24.248,8.961-46.688,73.97-46.688c65.02,0,73.983,22.439,73.985,46.688C273.993,287.18,240.807,308.125,200.015,308.125z
				 M200.015,216.73c-59.751,0-71.993,17.872-71.993,44.705c0,24.651,32.296,44.707,71.993,44.707
				c39.698,0,71.996-20.056,71.996-44.707C272.009,234.603,259.765,216.73,200.015,216.73z"/>
			<path clip-path="url(#SVGID_4_)" fill="#424143" d="M198.698,114.514c-40.789,0-73.973-20.945-73.973-46.689
				c0-24.25,8.962-46.689,73.973-46.689c65.014,0,73.977,22.439,73.978,46.689C272.675,93.568,239.488,114.514,198.698,114.514z
				 M198.698,23.118c-59.747,0-71.989,17.872-71.989,44.707c0,24.651,32.295,44.707,71.989,44.707
				c39.697,0,71.993-20.055,71.994-44.707C270.691,40.99,258.448,23.118,198.698,23.118z"/>
		</g>
		<path fill="#424143" d="M199.492,280.012c-1.323,0-4.079,0-7.412-22.787c-1.606-10.977-2.63-22.515-2.673-23.732
			c-0.011-0.281,0.061-0.703,0.453-1.109c1.506-1.561,7.783-1.974,10.891-1.974c3.085,0,7.034,0.299,8.331,1.722
			c0.373,0.41,0.545,0.9,0.496,1.419l-0.055,0.587C205.295,280.012,200.928,280.012,199.492,280.012z M191.402,233.668
			c0.128,2.021,1.092,12.572,2.569,22.789c2.905,20.097,5.215,21.475,5.522,21.569c1.421-0.353,4.914-9.995,8.055-44.072
			l0.048-0.512c-0.346-0.366-2.356-1.05-6.846-1.05C196.05,232.393,192.251,233.118,191.402,233.668z"/>
		<g>
			<defs>
				<path id="SVGID_5_" d="M198.698,271.152c-22.751,0-41.261-40.553-41.261-90.397c0-49.785,33.175-90.394,41.261-90.394
					c8.088,0,41.265,40.607,41.265,90.394C239.963,230.6,221.452,271.152,198.698,271.152z M198.698,91.353
					c-3.417,0-13.28,9.063-22.909,26.079c-6.483,11.458-17.359,34.921-17.359,63.324c0,49.297,18.064,89.405,40.269,89.405
					c22.207,0,40.273-40.107,40.273-89.405c0-28.403-10.877-51.866-17.36-63.324C211.982,100.416,202.118,91.353,198.698,91.353z"/>
			</defs>
			<use xlink:href="#SVGID_5_"  overflow="visible" fill="#424143"/>
			<clipPath id="SVGID_6_">
				<use xlink:href="#SVGID_5_"  overflow="visible"/>
			</clipPath>
			<path clip-path="url(#SVGID_6_)" fill="#424143" d="M200.015,308.125c-40.79,0-73.977-20.944-73.977-46.689
				c0-24.248,8.961-46.688,73.97-46.688c65.02,0,73.983,22.439,73.985,46.688C273.993,287.18,240.807,308.125,200.015,308.125z
				 M200.015,216.73c-59.751,0-71.993,17.872-71.993,44.705c0,24.651,32.296,44.707,71.993,44.707
				c39.698,0,71.996-20.056,71.996-44.707C272.009,234.603,259.765,216.73,200.015,216.73z"/>
			<path clip-path="url(#SVGID_6_)" fill="#424143" d="M198.698,114.514c-40.789,0-73.973-20.945-73.973-46.689
				c0-24.25,8.962-46.689,73.973-46.689c65.014,0,73.977,22.439,73.978,46.689C272.675,93.568,239.488,114.514,198.698,114.514z
				 M198.698,23.118c-59.747,0-71.989,17.872-71.989,44.707c0,24.651,32.295,44.707,71.989,44.707
				c39.697,0,71.993-20.055,71.994-44.707C270.691,40.99,258.448,23.118,198.698,23.118z"/>
		</g>
	</g>
	<g>
		<rect x="92.201" y="296.211" fill="#60BD97" width="182.024" height="32.152"/>
		<g>
			<rect x="115.41" y="314.935" fill="#413934" width="3.371" height="13.429"/>
			<rect x="141.858" y="314.935" fill="#413934" width="3.369" height="13.429"/>
			<rect x="168.305" y="314.935" fill="#413934" width="3.371" height="13.429"/>
			<rect x="194.753" y="314.935" fill="#413934" width="3.369" height="13.429"/>
			<rect x="221.199" y="314.935" fill="#413934" width="3.371" height="13.429"/>
			<rect x="247.646" y="314.935" fill="#413934" width="3.371" height="13.429"/>
		</g>
	</g>
	<g>
		<rect x="319.086" y="168.459" fill="#F6B344" width="18.963" height="164.379"/>
		<rect x="319.086" y="332.839" fill="#F1E4C4" width="18.963" height="13.439"/>
		<polygon fill="#223228" points="328.567,147.887 324.363,157.01 332.771,157.01 		"/>
		<polygon fill="#F1E4C4" points="324.363,157.01 319.086,168.459 338.049,168.459 332.771,157.01 		"/>
	</g>
</g>
</svg>
