<?xml version="1.0" encoding="utf-8"?>
<!-- Generator: Adobe Illustrator 16.0.0, SVG Export Plug-In . SVG Version: 6.00 Build 0)  -->
<!DOCTYPE svg PUBLIC "-//W3C//DTD SVG 1.1//EN" "http://www.w3.org/Graphics/SVG/1.1/DTD/svg11.dtd">
<svg version="1.1" id="Layer_1" xmlns="http://www.w3.org/2000/svg" xmlns:xlink="http://www.w3.org/1999/xlink" x="0px" y="0px"
	 width="100px" height="100px" viewBox="0 0 100 100" enable-background="new 0 0 100 100" xml:space="preserve">
<g>
	<path fill="#F6EC13" d="M85.475,14.764C66.02-4.825,34.364-4.937,14.766,14.525C-4.83,33.984-4.932,65.64,14.521,85.235
		c19.462,19.592,51.117,19.7,70.716,0.241C104.829,66.018,104.934,34.362,85.475,14.764z M71.658,12.443L61.053,22.977
		c-7.004-2.863-14.898-2.891-21.922-0.078l-10.53-10.604C41.926,4.742,58.383,4.797,71.658,12.443z M22.911,60.869L12.303,71.396
		c-7.559-13.325-7.5-29.781,0.149-43.057l10.536,10.604C20.119,45.946,20.094,53.842,22.911,60.869z M28.344,87.555l10.607-10.533
		c7.002,2.859,14.898,2.891,21.919,0.071l10.53,10.61C58.08,95.257,41.617,95.202,28.344,87.555z M65.912,66.024
		c-8.836,8.773-23.161,8.724-31.941-0.111c-8.773-8.836-8.724-23.161,0.115-31.938c8.838-8.774,23.16-8.728,31.938,0.108
		C74.799,42.918,74.75,57.244,65.912,66.024z M77.014,61.051c2.863-7.005,2.895-14.898,0.075-21.922l10.607-10.53
		c7.556,13.322,7.5,29.782-0.148,43.057L77.014,61.051z"/>
</g>
</svg>
