<?xml version="1.0" encoding="utf-8"?>
<!-- Generator: Adobe Illustrator 16.0.0, SVG Export Plug-In . SVG Version: 6.00 Build 0)  -->
<!DOCTYPE svg PUBLIC "-//W3C//DTD SVG 1.1//EN" "http://www.w3.org/Graphics/SVG/1.1/DTD/svg11.dtd">
<svg version="1.1" id="Layer_1" xmlns="http://www.w3.org/2000/svg" xmlns:xlink="http://www.w3.org/1999/xlink" x="0px" y="0px"
	 width="100px" height="100px" viewBox="0 0 100 100" enable-background="new 0 0 100 100" xml:space="preserve">
<g>
	<g>
		<path fill="#FFFFFF" d="M50.001,53.846c2.083,0,3.888-0.759,5.409-2.283c1.521-1.521,2.284-3.326,2.284-5.408V7.693
			c0-2.084-0.762-3.887-2.284-5.408C53.889,0.761,52.084,0,50.001,0c-2.084,0-3.886,0.762-5.409,2.285
			c-1.522,1.521-2.284,3.325-2.284,5.408v38.462c0,2.083,0.762,3.887,2.284,5.408C46.115,53.087,47.918,53.846,50.001,53.846z"/>
		<path fill="#FFFFFF" d="M91.318,33.233c-3.226-6.45-7.762-11.859-13.611-16.226c-1.683-1.282-3.586-1.783-5.709-1.502
			c-2.124,0.281-3.806,1.282-5.048,3.004c-1.282,1.683-1.771,3.575-1.472,5.679c0.3,2.104,1.292,3.796,2.975,5.079
			c3.924,2.964,6.961,6.591,9.104,10.878c2.144,4.286,3.214,8.854,3.214,13.701c0,4.168-0.811,8.144-2.433,11.93
			c-1.622,3.786-3.816,7.061-6.581,9.825c-2.765,2.764-6.039,4.957-9.825,6.58c-3.786,1.623-7.762,2.436-11.929,2.436
			c-4.166,0-8.143-0.812-11.928-2.436c-3.787-1.623-7.062-3.816-9.826-6.58c-2.764-2.765-4.957-6.039-6.58-9.825
			c-1.623-3.787-2.434-7.762-2.434-11.93c0-4.847,1.072-9.414,3.215-13.701s5.178-7.913,9.104-10.878
			c1.683-1.283,2.674-2.975,2.975-5.079c0.3-2.103-0.19-3.996-1.473-5.679c-1.242-1.722-2.914-2.724-5.018-3.004
			s-4.017,0.221-5.74,1.503c-5.85,4.366-10.386,9.775-13.612,16.225c-3.225,6.451-4.837,13.321-4.837,20.613
			c0,6.25,1.222,12.22,3.666,17.909c2.444,5.689,5.729,10.596,9.856,14.723c4.126,4.126,9.034,7.412,14.724,9.854
			C37.782,98.777,43.751,100,50.001,100s12.219-1.223,17.909-3.668c5.69-2.443,10.597-5.728,14.724-9.854
			c4.126-4.126,7.411-9.034,9.854-14.723c2.444-5.689,3.665-11.66,3.665-17.909C96.153,46.555,94.543,39.684,91.318,33.233z"/>
	</g>
</g>
</svg>
