<?xml version="1.0" encoding="utf-8"?>
<!-- Generator: Adobe Illustrator 16.0.0, SVG Export Plug-In . SVG Version: 6.00 Build 0)  -->
<!DOCTYPE svg PUBLIC "-//W3C//DTD SVG 1.1//EN" "http://www.w3.org/Graphics/SVG/1.1/DTD/svg11.dtd">
<svg version="1.1" id="Layer_1" xmlns="http://www.w3.org/2000/svg" xmlns:xlink="http://www.w3.org/1999/xlink" x="0px" y="0px"
	 width="612px" height="612px" viewBox="0 0 612 612" enable-background="new 0 0 612 612" xml:space="preserve">
<g>
	<g>
		<polygon fill="#040305" points="101.243,285.029 124.8,372.694 159.467,372.694 203.3,236.443 167.661,236.443 141.661,325.736 
			118.865,236.443 84.067,236.443 60.562,325.736 35.035,236.443 0,236.443 43.124,372.694 78.21,372.694 		"/>
		<polygon fill="#040305" points="323.215,236.443 288.443,236.443 264.912,325.736 239.28,236.443 204.245,236.443 
			247.447,372.694 282.561,372.694 305.619,285.029 329.229,372.694 363.844,372.694 407.676,236.443 372.116,236.443 
			345.985,325.736 		"/>
		<polygon fill="#040305" points="576.361,236.443 550.282,325.736 527.539,236.443 492.688,236.443 469.157,325.736 
			443.656,236.443 408.569,236.443 451.798,372.694 486.858,372.694 509.917,285.029 533.448,372.694 568.168,372.694 612,236.443 
					"/>
		<path fill="#040305" d="M305.987,43.543c-105.392,0-196.051,62.295-237.756,151.904H543.77
			C502.012,105.839,411.379,43.543,305.987,43.543z"/>
		<path fill="#040305" d="M305.987,568.456c105.418,0,195.972-62.269,237.756-151.903H68.283
			C109.988,506.161,200.595,568.456,305.987,568.456z"/>
	</g>
</g>
</svg>
