<?xml version="1.0" encoding="utf-8"?>
<!-- Generator: Adobe Illustrator 16.0.0, SVG Export Plug-In . SVG Version: 6.00 Build 0)  -->
<!DOCTYPE svg PUBLIC "-//W3C//DTD SVG 1.1//EN" "http://www.w3.org/Graphics/SVG/1.1/DTD/svg11.dtd">
<svg version="1.1" id="Layer_1" xmlns="http://www.w3.org/2000/svg" xmlns:xlink="http://www.w3.org/1999/xlink" x="0px" y="0px"
	 width="100px" height="100px" viewBox="0 0 100 100" enable-background="new 0 0 100 100" xml:space="preserve">
<path fill="#FFFFFF" d="M45.818,7.848C63.811,5.095,81.837,2.501,99.863,0c0.012,15.799,0,31.585,0.012,47.384
	c-18.017,0.069-36.029,0.343-54.057,0.4C45.808,34.464,45.808,21.156,45.818,7.848z"/>
<path fill="#FFFFFF" d="M0.125,14.222c13.548-2.091,27.153-3.896,40.759-5.598c0.011,13.103,0.011,26.193,0.023,39.297
	c-13.595-0.012-27.188,0.194-40.782,0.159V14.222z"/>
<path fill="#FFFFFF" d="M0.125,52.205c13.583-0.046,27.165,0.172,40.747,0.148c0,13.137,0.035,26.274,0.012,39.411
	c-13.571-2.012-27.165-3.77-40.759-5.608V52.205z"/>
<path fill="#FFFFFF" d="M45.738,52.73c18.05,0,36.086,0,54.125,0c0.022,15.752,0,31.506,0,47.27
	c-17.992-2.696-36.018-5.198-54.045-7.642C45.796,79.152,45.762,65.946,45.738,52.73z"/>
</svg>
